{"glyphs":{"0":{"ha":778,"x_min":33,"x_max":744,"o":"m 389 933 q 655 820 565 933 q 744 454 744 707 q 722 239 744 328 q 656 93 700 150 q 544 10 611 36 q 389 -17 478 -17 q 233 10 300 -17 q 122 93 167 36 q 56 239 78 150 q 33 454 33 328 q 48 634 33 547 q 102 788 63 721 q 210 894 142 854 q 389 933 279 933 m 547 458 q 511 699 547 629 q 390 767 476 767 q 317 750 347 767 q 268 697 288 733 q 240 602 249 661 q 231 457 231 543 q 240 313 231 372 q 268 218 249 254 q 318 166 288 182 q 390 150 349 150 q 511 218 476 150 q 547 458 547 288 z "},"1":{"ha":778,"x_min":103,"x_max":581,"o":"m 406 917 l 103 715 l 190 572 l 389 700 l 389 0 l 581 0 l 581 917 l 406 917 z "},"2":{"ha":778,"x_min":90,"x_max":685,"o":"m 685 167 l 685 0 l 90 0 l 90 163 l 286 361 q 374 454 339 415 q 431 526 410 493 q 463 587 453 558 q 472 647 472 615 q 438 738 472 713 q 342 764 404 764 q 139 747 250 764 l 106 743 l 96 892 q 378 933 232 933 q 669 671 669 933 q 659 577 669 619 q 625 493 649 535 q 562 408 601 451 q 464 311 522 365 l 304 167 l 685 167 z "},"3":{"ha":778,"x_min":79,"x_max":690,"o":"m 99 742 l 86 883 q 372 933 214 933 q 602 874 531 933 q 674 679 674 814 q 567 475 674 546 q 624 440 600 457 q 662 400 647 422 q 683 348 676 378 q 690 276 690 318 q 616 55 690 126 q 378 -17 542 -17 q 124 19 260 -17 l 79 31 l 89 176 q 233 156 168 163 q 350 150 297 150 q 493 272 493 150 q 456 354 493 324 q 360 385 419 385 l 175 385 l 175 543 l 360 543 q 404 553 383 543 q 441 582 425 564 q 467 622 457 600 q 476 668 476 644 q 339 767 476 767 q 240 762 290 767 q 135 747 189 757 l 99 742 z "},"4":{"ha":778,"x_min":56,"x_max":724,"o":"m 636 0 l 636 151 l 724 151 l 724 318 l 636 318 l 636 575 l 444 575 l 444 318 l 247 318 l 493 917 l 282 917 l 56 297 l 56 151 l 444 151 l 444 0 l 636 0 z "},"5":{"ha":778,"x_min":69,"x_max":708,"o":"m 121 917 l 681 917 l 681 750 l 271 750 l 247 551 q 411 585 333 585 q 708 308 708 585 q 627 68 708 153 q 394 -17 546 -17 q 325 -13 363 -17 q 250 -4 288 -10 q 178 8 213 1 q 119 22 144 15 l 69 35 l 90 176 q 244 156 175 163 q 371 150 314 150 q 475 186 439 150 q 511 290 511 222 q 481 388 511 357 q 394 418 450 418 q 231 400 299 418 l 210 394 l 96 421 l 121 917 z "},"6":{"ha":778,"x_min":49,"x_max":736,"o":"m 706 893 l 689 746 q 443 767 547 767 q 246 553 246 767 l 275 561 q 421 588 364 588 q 658 516 579 588 q 736 292 736 444 q 648 61 736 139 q 390 -17 560 -17 q 135 106 221 -17 q 49 468 49 228 q 147 820 49 707 q 431 933 246 933 q 663 903 542 933 l 706 893 m 404 421 q 268 397 342 421 l 244 390 q 400 150 244 150 q 503 187 467 150 q 539 290 539 224 q 404 421 539 421 z "},"7":{"ha":778,"x_min":96,"x_max":682,"o":"m 490 746 l 490 701 l 178 33 l 356 -17 l 682 700 l 682 917 l 96 917 l 96 746 l 490 746 z "},"8":{"ha":778,"x_min":39,"x_max":738,"o":"m 386 933 q 524 916 461 933 q 631 867 586 899 q 699 788 675 835 q 724 682 724 740 q 719 613 724 642 q 704 562 715 585 q 674 518 693 539 q 624 472 654 497 q 676 424 654 447 q 711 375 697 400 q 731 319 725 350 q 738 249 738 289 q 712 131 738 181 q 640 48 686 81 q 530 -1 594 15 q 386 -17 465 -17 q 39 233 39 -17 q 45 311 39 278 q 65 372 51 344 q 101 423 79 399 q 154 472 124 447 q 106 518 125 496 q 75 565 86 540 q 59 617 64 589 q 54 683 54 646 q 83 802 54 754 q 160 879 113 850 q 267 921 207 908 q 386 933 326 933 m 244 278 q 389 156 244 156 q 532 278 532 156 q 450 382 532 350 l 328 382 q 244 278 244 351 m 389 761 q 293 734 326 761 q 260 649 260 707 q 328 544 260 592 l 450 544 q 518 653 518 592 q 389 761 518 761 z "},"9":{"ha":778,"x_min":39,"x_max":726,"o":"m 344 150 q 529 375 529 150 l 500 365 q 354 333 401 333 q 121 406 203 333 q 39 626 39 479 q 128 853 39 772 q 386 933 218 933 q 640 811 553 933 q 726 446 726 689 q 629 93 726 203 q 344 -17 532 -17 q 113 14 233 -17 l 69 24 l 86 171 q 344 150 228 150 m 371 500 q 508 525 436 500 l 531 532 q 375 767 531 767 q 272 730 308 767 q 236 626 236 693 q 371 500 236 500 z "},"\u0000":{"ha":0,"x_min":0,"x_max":0,"o":""},"\r":{"ha":347,"x_min":0,"x_max":0,"o":""}," ":{"ha":306,"x_min":0,"x_max":0,"o":""},"가":{"ha":1250,"x_min":181,"x_max":1181,"o":"m 1181 664 l 1181 822 l 1006 822 l 1006 1085 l 840 1085 l 840 71 l 1006 71 l 1006 664 l 1181 664 m 747 975 l 633 1058 l 181 1058 l 181 900 l 499 900 l 190 457 l 324 368 l 747 975 z "},"각":{"ha":1250,"x_min":167,"x_max":1181,"o":"m 731 956 l 626 1057 l 167 1057 l 167 899 l 475 899 l 179 546 l 304 444 l 731 956 m 1006 -249 l 1006 283 l 1006 701 l 1181 701 l 1181 861 l 1006 861 l 1006 1085 l 840 1085 l 840 283 l 396 283 l 396 125 l 840 125 l 840 -249 l 1006 -249 z "},"간":{"ha":1250,"x_min":167,"x_max":1181,"o":"m 1181 701 l 1181 861 l 1006 861 l 1006 1085 l 840 1085 l 840 200 l 1006 200 l 1006 701 l 1181 701 m 731 956 l 626 1057 l 167 1057 l 167 899 l 475 899 l 179 546 l 304 444 l 731 956 m 1018 -249 l 1018 -90 l 574 -90 l 574 229 l 408 229 l 408 -125 q 444 -212 408 -176 q 532 -249 481 -249 l 1018 -249 z "},"갇":{"ha":1250,"x_min":167,"x_max":1181,"o":"m 731 956 l 626 1057 l 167 1057 l 167 899 l 475 899 l 179 546 l 304 444 l 731 956 m 1018 -249 l 1018 -90 l 574 -90 l 574 125 l 1006 125 l 1006 283 l 1006 701 l 1181 701 l 1181 861 l 1006 861 l 1006 1085 l 840 1085 l 840 283 l 408 283 l 408 -125 q 444 -212 408 -176 q 532 -249 481 -249 l 1018 -249 z "},"갈":{"ha":1250,"x_min":167,"x_max":1181,"o":"m 731 956 l 626 1057 l 167 1057 l 167 899 l 475 899 l 179 546 l 304 444 l 731 956 m 1018 -276 l 1018 -124 l 574 -124 l 574 -62 l 1006 -62 l 1006 297 l 1006 701 l 1181 701 l 1181 861 l 1006 861 l 1006 1085 l 840 1085 l 840 297 l 408 297 l 408 144 l 840 144 l 840 85 l 408 85 l 408 -153 q 444 -240 408 -204 q 532 -276 481 -276 l 1018 -276 z "},"갉":{"ha":1250,"x_min":167,"x_max":1181,"o":"m 731 956 l 626 1057 l 167 1057 l 167 899 l 475 899 l 179 546 l 304 444 l 731 956 m 667 -262 l 667 -110 l 424 -110 l 424 -56 l 654 -56 l 654 138 l 840 138 l 840 -262 l 1006 -262 l 1006 297 l 1006 701 l 1181 701 l 1181 861 l 1006 861 l 1006 1085 l 840 1085 l 840 297 l 597 297 l 260 297 l 260 144 l 489 144 l 489 92 l 260 92 l 260 -139 q 269 -187 260 -164 q 296 -226 279 -210 q 335 -253 313 -243 q 382 -262 357 -262 l 667 -262 z "},"갊":{"ha":1250,"x_min":167,"x_max":1181,"o":"m 731 956 l 626 1057 l 167 1057 l 167 899 l 475 899 l 179 546 l 304 444 l 731 956 m 1006 -139 l 1006 297 l 1006 701 l 1181 701 l 1181 861 l 1006 861 l 1006 1085 l 840 1085 l 840 297 l 611 297 l 611 -139 q 621 -187 611 -164 q 647 -226 631 -210 q 686 -253 664 -243 q 733 -262 708 -262 l 882 -262 q 969 -226 933 -262 q 1006 -139 1006 -190 m 840 -104 l 776 -104 l 776 138 l 840 138 l 840 -104 m 586 -262 l 586 -110 l 371 -110 l 371 -56 l 574 -56 l 574 297 l 206 297 l 206 144 l 408 144 l 408 92 l 206 92 l 206 -139 q 242 -226 206 -190 q 329 -262 278 -262 l 586 -262 z "},"감":{"ha":1250,"x_min":167,"x_max":1181,"o":"m 731 956 l 626 1057 l 167 1057 l 167 899 l 475 899 l 179 546 l 304 444 l 731 956 m 1006 -125 l 1006 283 l 1006 701 l 1181 701 l 1181 861 l 1006 861 l 1006 1085 l 840 1085 l 840 283 l 408 283 l 408 -125 q 444 -212 408 -176 q 532 -249 481 -249 l 882 -249 q 969 -212 933 -249 q 1006 -125 1006 -176 m 840 -90 l 574 -90 l 574 125 l 840 125 l 840 -90 z "},"갑":{"ha":1250,"x_min":167,"x_max":1181,"o":"m 731 956 l 626 1057 l 167 1057 l 167 899 l 475 899 l 179 546 l 304 444 l 731 956 m 1006 -132 l 1006 283 l 1006 701 l 1181 701 l 1181 861 l 1006 861 l 1006 1085 l 840 1085 l 840 200 l 840 161 l 574 161 l 574 283 l 408 283 l 408 -132 q 444 -219 408 -183 q 532 -256 481 -256 l 882 -256 q 969 -219 933 -256 q 1006 -132 1006 -183 m 840 -97 l 574 -97 l 574 3 l 840 3 l 840 -97 z "},"값":{"ha":1250,"x_min":167,"x_max":1181,"o":"m 731 956 l 626 1057 l 167 1057 l 167 899 l 475 899 l 179 546 l 304 444 l 731 956 m 626 -125 l 626 297 l 463 297 l 463 168 l 397 168 l 397 297 l 233 297 l 233 -125 q 269 -212 233 -176 q 356 -249 304 -249 l 504 -249 q 564 -233 536 -249 q 608 -190 592 -217 l 729 -268 l 835 -93 l 940 -268 l 1076 -182 l 844 199 l 1006 199 l 1006 701 l 1181 701 l 1181 861 l 1006 861 l 1006 1085 l 840 1085 l 840 207 l 835 215 l 626 -126 l 626 -125 m 463 -90 l 397 -90 l 397 10 l 463 10 l 463 -90 z "},"갓":{"ha":1250,"x_min":167,"x_max":1181,"o":"m 1181 701 l 1181 861 l 1006 861 l 1006 1085 l 840 1085 l 840 199 l 1006 199 l 1006 701 l 1181 701 m 731 956 l 626 1057 l 167 1057 l 167 899 l 475 899 l 179 546 l 304 444 l 731 956 m 1053 -167 l 681 278 l 307 -167 l 435 -268 l 681 26 l 925 -268 l 1053 -167 z "},"갔":{"ha":1250,"x_min":167,"x_max":1181,"o":"m 731 956 l 626 1057 l 167 1057 l 167 899 l 475 899 l 179 546 l 304 444 l 731 956 m 1053 -203 l 856 199 l 1006 199 l 1006 701 l 1181 701 l 1181 861 l 1006 861 l 1006 1085 l 840 1085 l 840 231 l 807 300 l 639 22 l 474 300 l 228 -203 l 374 -267 l 489 -31 l 639 -261 l 792 -31 l 907 -267 l 1053 -203 z "},"강":{"ha":1250,"x_min":167,"x_max":1181,"o":"m 1181 701 l 1181 861 l 1006 861 l 1006 1085 l 840 1085 l 840 247 q 722 272 788 272 q 614 251 665 272 q 524 192 563 229 q 462 106 485 156 q 439 -1 439 56 q 462 -108 439 -58 q 523 -196 485 -158 q 613 -255 561 -233 q 722 -276 664 -276 q 831 -255 779 -276 q 921 -196 882 -233 q 983 -108 960 -158 q 1006 -1 1006 -58 l 1006 701 l 1181 701 m 840 -1 q 806 -87 840 -54 q 722 -121 771 -121 q 638 -87 674 -121 q 603 -1 603 -54 q 638 84 603 51 q 722 117 674 117 q 806 84 771 117 q 840 -1 840 51 m 731 956 l 626 1057 l 167 1057 l 167 899 l 475 899 l 179 546 l 304 444 l 731 956 z "},"갖":{"ha":1250,"x_min":167,"x_max":1181,"o":"m 731 956 l 626 1057 l 167 1057 l 167 899 l 475 899 l 179 546 l 304 444 l 731 956 m 1072 -167 l 832 125 l 1006 125 l 1006 283 l 1006 701 l 1181 701 l 1181 861 l 1006 861 l 1006 1085 l 840 1085 l 840 283 l 408 283 l 408 125 l 582 125 l 342 -167 l 468 -268 l 707 24 l 946 -268 l 1072 -167 z "},"갗":{"ha":1250,"x_min":167,"x_max":1181,"o":"m 731 956 l 626 1057 l 167 1057 l 167 899 l 475 899 l 179 546 l 304 444 l 731 956 m 1072 -156 l 835 97 l 1006 97 l 1006 257 l 1006 701 l 1181 701 l 1181 861 l 1006 861 l 1006 1085 l 840 1085 l 840 257 l 789 257 l 789 365 l 625 365 l 625 257 l 408 257 l 408 97 l 579 97 l 342 -156 l 461 -269 l 707 0 l 953 -269 l 1072 -156 z "},"같":{"ha":1250,"x_min":167,"x_max":1181,"o":"m 731 956 l 626 1057 l 167 1057 l 167 899 l 475 899 l 179 546 l 304 444 l 731 956 m 1006 -262 l 1006 -110 l 574 -110 l 574 -62 l 992 -62 l 992 85 l 574 85 l 574 132 l 1006 132 l 1006 283 l 1006 701 l 1181 701 l 1181 861 l 1006 861 l 1006 1085 l 840 1085 l 840 283 l 408 283 l 408 -139 q 444 -226 408 -190 q 532 -262 481 -262 l 1006 -262 z "},"갚":{"ha":1250,"x_min":167,"x_max":1181,"o":"m 731 956 l 626 1057 l 167 1057 l 167 899 l 475 899 l 179 546 l 304 444 l 731 956 m 614 -90 l 614 125 l 746 125 l 746 -90 l 614 -90 m 1013 -249 l 1013 -90 l 911 -90 l 911 125 l 1006 125 l 1006 283 l 1006 701 l 1181 701 l 1181 861 l 1006 861 l 1006 1085 l 840 1085 l 840 283 l 354 283 l 354 125 l 449 125 l 449 -90 l 349 -90 l 349 -249 l 1013 -249 z "},"갛":{"ha":1250,"x_min":167,"x_max":1181,"o":"m 731 956 l 626 1057 l 167 1057 l 167 899 l 475 899 l 179 546 l 304 444 l 731 956 m 926 -18 q 899 97 926 44 l 1006 97 l 1006 256 l 1006 701 l 1181 701 l 1181 861 l 1006 861 l 1006 1085 l 840 1085 l 840 256 l 742 256 l 742 365 l 578 365 l 578 256 l 314 256 l 314 97 l 421 97 q 393 -18 393 44 q 415 -119 393 -72 q 473 -201 436 -165 q 558 -256 510 -236 q 660 -276 607 -276 q 760 -256 713 -276 q 845 -201 808 -236 q 904 -119 882 -165 q 926 -18 926 -72 m 763 -18 q 733 -92 763 -62 q 660 -121 703 -121 q 587 -92 617 -121 q 557 -18 557 -62 q 587 55 557 26 q 660 83 617 83 q 733 55 703 83 q 763 -18 763 26 z "},"개":{"ha":1250,"x_min":126,"x_max":1056,"o":"m 1056 71 l 1056 1085 l 892 1085 l 892 835 l 818 835 l 818 1085 l 656 1085 l 656 71 l 818 71 l 818 678 l 892 678 l 892 71 l 1056 71 m 600 985 l 485 1058 l 139 1058 l 139 900 l 369 900 l 126 475 l 265 399 l 600 985 z "},"객":{"ha":1250,"x_min":135,"x_max":1056,"o":"m 615 982 l 513 1057 l 139 1057 l 139 899 l 371 899 l 135 531 l 271 447 l 615 982 m 1056 -249 l 1056 283 l 1056 1085 l 892 1085 l 892 861 l 818 861 l 818 1085 l 656 1085 l 656 363 l 818 363 l 818 701 l 892 701 l 892 283 l 447 283 l 447 125 l 892 125 l 892 -249 l 1056 -249 z "},"갠":{"ha":1250,"x_min":135,"x_max":1069,"o":"m 1056 200 l 1056 1085 l 892 1085 l 892 861 l 818 861 l 818 1085 l 657 1085 l 657 200 l 818 200 l 818 701 l 892 701 l 892 200 l 1056 200 m 615 982 l 513 1057 l 139 1057 l 139 899 l 372 899 l 135 531 l 271 447 l 615 982 m 1069 -249 l 1069 -90 l 625 -90 l 625 229 l 461 229 l 461 -125 q 471 -173 461 -150 q 497 -212 481 -196 q 536 -239 514 -229 q 583 -249 558 -249 l 1069 -249 z "},"갤":{"ha":1250,"x_min":135,"x_max":1069,"o":"m 615 982 l 513 1057 l 139 1057 l 139 899 l 372 899 l 135 531 l 271 447 l 615 982 m 1069 -276 l 1069 -124 l 625 -124 l 625 -62 l 1056 -62 l 1056 297 l 1056 1085 l 892 1085 l 892 861 l 818 861 l 818 1085 l 657 1085 l 657 363 l 818 363 l 818 701 l 892 701 l 892 297 l 461 297 l 461 144 l 892 144 l 892 85 l 461 85 l 461 -153 q 471 -201 461 -178 q 497 -240 481 -224 q 536 -267 514 -257 q 583 -276 558 -276 l 1069 -276 z "},"갬":{"ha":1250,"x_min":135,"x_max":1056,"o":"m 615 982 l 513 1057 l 139 1057 l 139 899 l 372 899 l 135 531 l 271 447 l 615 982 m 1056 -125 l 1056 283 l 1056 1085 l 892 1085 l 892 861 l 818 861 l 818 1085 l 656 1085 l 656 363 l 818 363 l 818 701 l 892 701 l 892 283 l 461 283 l 461 -125 q 471 -173 461 -150 q 497 -212 481 -196 q 536 -239 514 -229 q 583 -249 558 -249 l 933 -249 q 981 -239 958 -249 q 1019 -212 1003 -229 q 1046 -173 1036 -196 q 1056 -125 1056 -150 m 892 -90 l 625 -90 l 625 125 l 892 125 l 892 -90 z "},"갭":{"ha":1250,"x_min":135,"x_max":1056,"o":"m 615 982 l 513 1057 l 139 1057 l 139 899 l 372 899 l 135 531 l 271 447 l 615 982 m 1056 -132 l 1056 283 l 1056 1085 l 892 1085 l 892 861 l 818 861 l 818 1085 l 656 1085 l 656 363 l 818 363 l 818 701 l 892 701 l 892 200 l 892 161 l 625 161 l 625 283 l 461 283 l 461 -132 q 471 -180 461 -157 q 497 -219 481 -203 q 536 -246 514 -236 q 583 -256 558 -256 l 933 -256 q 981 -246 958 -256 q 1019 -219 1003 -236 q 1046 -180 1036 -203 q 1056 -132 1056 -157 m 892 -97 l 625 -97 l 625 3 l 892 3 l 892 -97 z "},"갯":{"ha":1250,"x_min":135,"x_max":1106,"o":"m 1057 199 l 1057 1085 l 893 1085 l 893 861 l 818 861 l 818 1085 l 657 1085 l 657 363 l 818 363 l 818 701 l 893 701 l 893 199 l 1057 199 m 615 982 l 513 1057 l 139 1057 l 139 899 l 372 899 l 135 531 l 271 447 l 615 982 m 1106 -167 l 732 278 l 360 -167 l 488 -268 l 732 26 l 976 -268 l 1106 -167 z "},"갰":{"ha":1250,"x_min":135,"x_max":1104,"o":"m 615 982 l 513 1057 l 139 1057 l 139 899 l 372 899 l 135 531 l 271 447 l 615 982 m 1104 -203 l 908 199 l 1057 199 l 1057 1085 l 893 1085 l 893 861 l 818 861 l 818 1085 l 657 1085 l 657 363 l 818 363 l 818 701 l 893 701 l 893 231 l 858 300 l 692 22 l 526 300 l 282 -203 l 426 -267 l 542 -31 l 692 -261 l 843 -31 l 958 -267 l 1104 -203 z "},"갱":{"ha":1250,"x_min":135,"x_max":1056,"o":"m 1056 -1 l 1056 1085 l 892 1085 l 892 861 l 818 861 l 818 1085 l 656 1085 l 656 363 l 818 363 l 818 701 l 892 701 l 892 247 q 774 272 839 272 q 667 251 718 272 q 576 194 615 231 q 514 107 538 157 q 490 -1 490 57 q 513 -108 490 -58 q 576 -196 536 -158 q 666 -255 615 -233 q 774 -276 717 -276 q 882 -255 831 -276 q 972 -196 933 -233 q 1033 -108 1010 -158 q 1056 -1 1056 -58 m 892 -1 q 857 -87 892 -54 q 774 -121 822 -121 q 690 -87 725 -121 q 654 -1 654 -54 q 690 84 654 51 q 774 117 725 117 q 857 84 822 117 q 892 -1 892 51 m 615 982 l 513 1057 l 139 1057 l 139 899 l 372 899 l 135 531 l 271 447 l 615 982 z "},"갸":{"ha":1250,"x_min":181,"x_max":1181,"o":"m 1181 550 l 1181 707 l 1006 707 l 1006 792 l 1181 792 l 1181 950 l 1006 950 l 1006 1085 l 840 1085 l 840 71 l 1006 71 l 1006 550 l 1181 550 m 747 975 l 633 1058 l 181 1058 l 181 900 l 499 900 l 190 457 l 324 368 l 747 975 z "},"갹":{"ha":1250,"x_min":167,"x_max":1181,"o":"m 731 956 l 628 1057 l 167 1057 l 167 899 l 475 899 l 179 546 l 306 444 l 731 956 m 1006 -249 l 1006 283 l 1006 586 l 1181 586 l 1181 746 l 1006 746 l 1006 817 l 1181 817 l 1181 976 l 1006 976 l 1006 1085 l 840 1085 l 840 283 l 396 283 l 396 125 l 840 125 l 840 -249 l 1006 -249 z "},"갼":{"ha":1250,"x_min":167,"x_max":1181,"o":"m 1181 586 l 1181 746 l 1006 746 l 1006 817 l 1181 817 l 1181 976 l 1006 976 l 1006 1085 l 840 1085 l 840 200 l 1006 200 l 1006 586 l 1181 586 m 731 956 l 628 1057 l 167 1057 l 167 899 l 475 899 l 179 546 l 306 444 l 731 956 m 1018 -249 l 1018 -90 l 574 -90 l 574 229 l 408 229 l 408 -125 q 444 -212 408 -176 q 532 -249 481 -249 l 1018 -249 z "},"걀":{"ha":1250,"x_min":167,"x_max":1181,"o":"m 731 956 l 628 1057 l 167 1057 l 167 899 l 475 899 l 179 546 l 306 444 l 731 956 m 1018 -276 l 1018 -124 l 574 -124 l 574 -62 l 1006 -62 l 1006 297 l 1006 586 l 1181 586 l 1181 744 l 1006 744 l 1006 817 l 1181 817 l 1181 976 l 1006 976 l 1006 1085 l 840 1085 l 840 297 l 408 297 l 408 144 l 840 144 l 840 85 l 408 85 l 408 -153 q 444 -240 408 -204 q 532 -276 481 -276 l 1018 -276 z "},"걋":{"ha":1250,"x_min":167,"x_max":1181,"o":"m 1181 586 l 1181 746 l 1006 746 l 1006 817 l 1181 817 l 1181 976 l 1006 976 l 1006 1085 l 840 1085 l 840 199 l 1006 199 l 1006 586 l 1181 586 m 731 956 l 628 1057 l 167 1057 l 167 899 l 475 899 l 179 546 l 306 444 l 731 956 m 1053 -167 l 681 278 l 307 -167 l 435 -268 l 681 26 l 925 -268 l 1053 -167 z "},"걍":{"ha":1250,"x_min":167,"x_max":1181,"o":"m 1181 586 l 1181 744 l 1006 744 l 1006 817 l 1181 817 l 1181 976 l 1006 976 l 1006 1085 l 840 1085 l 840 247 q 722 272 788 272 q 614 251 665 272 q 524 192 563 229 q 462 106 485 156 q 439 -1 439 56 q 462 -108 439 -58 q 523 -196 485 -158 q 613 -255 561 -233 q 722 -276 664 -276 q 831 -255 779 -276 q 921 -196 882 -233 q 983 -108 960 -158 q 1006 -1 1006 -58 l 1006 586 l 1181 586 m 840 -1 q 806 -87 840 -54 q 722 -121 771 -121 q 638 -87 674 -121 q 603 -1 603 -54 q 638 84 603 51 q 722 117 674 117 q 806 84 771 117 q 840 -1 840 51 m 731 956 l 628 1057 l 167 1057 l 167 899 l 475 899 l 179 546 l 306 444 l 731 956 z "},"걔":{"ha":1250,"x_min":154,"x_max":1056,"o":"m 1056 71 l 1056 1085 l 892 1085 l 892 964 l 818 964 l 818 1085 l 656 1085 l 656 71 l 818 71 l 818 536 l 892 536 l 892 71 l 1056 71 m 892 693 l 818 693 l 818 806 l 892 806 l 892 693 m 628 985 l 513 1058 l 167 1058 l 167 900 l 397 900 l 154 475 l 293 399 l 628 985 z "},"걘":{"ha":1250,"x_min":163,"x_max":1069,"o":"m 1056 200 l 1056 1085 l 892 1085 l 892 976 l 818 976 l 818 1085 l 657 1085 l 657 200 l 818 200 l 818 572 l 892 572 l 892 200 l 1056 200 m 892 732 l 818 732 l 818 817 l 892 817 l 892 732 m 643 982 l 540 1057 l 167 1057 l 167 899 l 400 899 l 163 531 l 299 447 l 643 982 m 1069 -249 l 1069 -90 l 625 -90 l 625 229 l 461 229 l 461 -125 q 471 -173 461 -150 q 497 -212 481 -196 q 536 -239 514 -229 q 583 -249 558 -249 l 1069 -249 z "},"걜":{"ha":1250,"x_min":163,"x_max":1069,"o":"m 643 982 l 540 1057 l 167 1057 l 167 899 l 400 899 l 163 531 l 299 447 l 643 982 m 1069 -276 l 1069 -124 l 625 -124 l 625 -62 l 1056 -62 l 1056 297 l 1056 1085 l 892 1085 l 892 976 l 818 976 l 818 1085 l 657 1085 l 657 363 l 818 363 l 818 572 l 892 572 l 892 297 l 461 297 l 461 144 l 892 144 l 892 85 l 461 85 l 461 -153 q 471 -201 461 -178 q 497 -240 481 -224 q 536 -267 514 -257 q 583 -276 558 -276 l 1069 -276 m 892 732 l 818 732 l 818 817 l 892 817 l 892 732 z "},"거":{"ha":1250,"x_min":153,"x_max":1014,"o":"m 1014 71 l 1014 1085 l 850 1085 l 850 793 l 624 793 l 624 636 l 850 636 l 850 71 l 1014 71 m 715 975 l 603 1058 l 153 1058 l 153 900 l 469 900 l 163 457 l 294 368 l 715 975 z "},"걱":{"ha":1250,"x_min":153,"x_max":1014,"o":"m 713 956 l 610 1057 l 153 1057 l 153 899 l 458 899 l 165 546 l 290 444 l 713 956 m 1014 -249 l 1014 283 l 1014 1085 l 850 1085 l 850 819 l 624 819 l 624 660 l 850 660 l 850 283 l 407 283 l 407 125 l 850 125 l 850 -249 l 1014 -249 z "},"건":{"ha":1250,"x_min":153,"x_max":1028,"o":"m 1014 200 l 1014 1085 l 850 1085 l 850 819 l 624 819 l 624 660 l 850 660 l 850 200 l 1014 200 m 713 956 l 610 1057 l 153 1057 l 153 899 l 458 899 l 165 546 l 290 444 l 713 956 m 1028 -249 l 1028 -90 l 585 -90 l 585 229 l 421 229 l 421 -125 q 431 -173 421 -150 q 457 -212 440 -196 q 496 -239 474 -229 q 543 -249 518 -249 l 1028 -249 z "},"걷":{"ha":1250,"x_min":153,"x_max":1028,"o":"m 713 956 l 610 1057 l 153 1057 l 153 899 l 458 899 l 165 546 l 290 444 l 713 956 m 1028 -249 l 1028 -90 l 585 -90 l 585 125 l 1014 125 l 1014 1085 l 850 1085 l 850 819 l 624 819 l 624 660 l 850 660 l 850 283 l 421 283 l 421 -125 q 431 -173 421 -150 q 457 -212 440 -196 q 496 -239 474 -229 q 543 -249 518 -249 l 1028 -249 z "},"걸":{"ha":1250,"x_min":153,"x_max":1028,"o":"m 713 956 l 610 1057 l 153 1057 l 153 899 l 458 899 l 165 546 l 290 444 l 713 956 m 1028 -276 l 1028 -124 l 585 -124 l 585 -62 l 1014 -62 l 1014 1085 l 850 1085 l 850 819 l 624 819 l 624 660 l 850 660 l 850 297 l 421 297 l 421 144 l 850 144 l 850 85 l 421 85 l 421 -153 q 431 -201 421 -178 q 457 -240 440 -224 q 496 -267 474 -257 q 543 -276 518 -276 l 1028 -276 z "},"걺":{"ha":1250,"x_min":153,"x_max":1014,"o":"m 713 956 l 610 1057 l 153 1057 l 153 899 l 458 899 l 165 546 l 290 444 l 713 956 m 1014 -139 l 1014 297 l 1014 1085 l 850 1085 l 850 819 l 624 819 l 624 660 l 850 660 l 850 297 l 622 297 l 622 -139 q 632 -187 622 -164 q 658 -226 642 -210 q 697 -253 675 -243 q 744 -262 719 -262 l 892 -262 q 939 -253 917 -262 q 978 -226 961 -243 q 1004 -187 994 -210 q 1014 -139 1014 -164 m 850 -104 l 786 -104 l 786 138 l 850 138 l 850 -104 m 597 -262 l 597 -110 l 383 -110 l 383 -56 l 585 -56 l 585 297 l 219 297 l 219 144 l 421 144 l 421 92 l 219 92 l 219 -139 q 255 -226 219 -190 q 342 -262 290 -262 l 597 -262 z "},"검":{"ha":1250,"x_min":153,"x_max":1014,"o":"m 713 956 l 610 1057 l 153 1057 l 153 899 l 458 899 l 165 546 l 290 444 l 713 956 m 1014 -125 l 1014 283 l 1014 1085 l 850 1085 l 850 819 l 624 819 l 624 660 l 850 660 l 850 283 l 421 283 l 421 -125 q 431 -173 421 -150 q 457 -212 440 -196 q 496 -239 474 -229 q 543 -249 518 -249 l 892 -249 q 939 -239 917 -249 q 978 -212 961 -229 q 1004 -173 994 -196 q 1014 -125 1014 -150 m 850 -90 l 585 -90 l 585 125 l 850 125 l 850 -90 z "},"겁":{"ha":1250,"x_min":153,"x_max":1014,"o":"m 713 956 l 610 1057 l 153 1057 l 153 899 l 458 899 l 165 546 l 290 444 l 713 956 m 1014 -132 l 1014 283 l 1014 1085 l 850 1085 l 850 819 l 624 819 l 624 660 l 850 660 l 850 200 l 850 161 l 585 161 l 585 283 l 421 283 l 421 -132 q 431 -180 421 -157 q 457 -219 440 -203 q 496 -246 474 -236 q 543 -256 518 -256 l 892 -256 q 939 -246 917 -256 q 978 -219 961 -236 q 1004 -180 994 -203 q 1014 -132 1014 -157 m 850 -97 l 585 -97 l 585 3 l 850 3 l 850 -97 z "},"것":{"ha":1250,"x_min":153,"x_max":1064,"o":"m 1014 200 l 1014 1085 l 850 1085 l 850 819 l 624 819 l 624 660 l 850 660 l 850 200 l 1014 200 m 713 956 l 610 1057 l 153 1057 l 153 899 l 458 899 l 165 546 l 290 444 l 713 956 m 1064 -167 l 692 278 l 319 -167 l 447 -268 l 692 26 l 935 -268 l 1064 -167 z "},"겄":{"ha":1250,"x_min":153,"x_max":1063,"o":"m 713 956 l 610 1057 l 153 1057 l 153 899 l 458 899 l 165 546 l 290 444 l 713 956 m 1063 -203 l 867 200 l 1014 200 l 1014 1085 l 850 1085 l 850 819 l 624 819 l 624 660 l 850 660 l 850 233 l 818 300 l 651 22 l 486 300 l 242 -203 l 388 -267 l 501 -31 l 651 -261 l 803 -31 l 917 -267 l 1063 -203 z "},"겅":{"ha":1250,"x_min":153,"x_max":1014,"o":"m 713 956 l 610 1057 l 153 1057 l 153 899 l 458 899 l 165 546 l 290 444 l 713 956 m 1014 -1 l 1014 1085 l 850 1085 l 850 819 l 624 819 l 624 660 l 850 660 l 850 247 q 732 272 797 272 q 624 251 675 272 q 535 192 574 229 q 473 106 496 156 q 450 -1 450 56 q 473 -108 450 -58 q 534 -196 496 -158 q 624 -255 572 -233 q 732 -276 675 -276 q 840 -255 789 -276 q 930 -196 892 -233 q 991 -108 968 -158 q 1014 -1 1014 -58 m 850 -1 q 815 -87 850 -54 q 732 -121 781 -121 q 649 -87 683 -121 q 614 -1 614 -54 q 649 84 614 51 q 732 117 683 117 q 815 84 781 117 q 850 -1 850 51 z "},"겆":{"ha":1250,"x_min":153,"x_max":1082,"o":"m 713 956 l 610 1057 l 153 1057 l 153 899 l 458 899 l 165 546 l 290 444 l 713 956 m 1082 -167 l 843 125 l 1015 125 l 1015 283 l 1015 1085 l 850 1085 l 850 819 l 624 819 l 624 660 l 850 660 l 850 283 l 422 283 l 422 125 l 594 125 l 356 -167 l 481 -268 l 719 24 l 957 -268 l 1082 -167 z "},"겉":{"ha":1250,"x_min":153,"x_max":1014,"o":"m 713 956 l 610 1057 l 153 1057 l 153 899 l 458 899 l 165 546 l 290 444 l 713 956 m 1014 -262 l 1014 -110 l 585 -110 l 585 -62 l 1000 -62 l 1000 85 l 585 85 l 585 132 l 1014 132 l 1014 283 l 1014 1085 l 850 1085 l 850 819 l 624 819 l 624 660 l 850 660 l 850 283 l 421 283 l 421 -139 q 431 -187 421 -164 q 457 -226 440 -210 q 496 -253 474 -243 q 543 -262 518 -262 l 1014 -262 z "},"겊":{"ha":1250,"x_min":153,"x_max":1021,"o":"m 713 956 l 610 1057 l 153 1057 l 153 899 l 458 899 l 165 546 l 290 444 l 713 956 m 625 -90 l 625 125 l 757 125 l 757 -90 l 625 -90 m 1021 -249 l 1021 -90 l 921 -90 l 921 125 l 1014 125 l 1014 1085 l 850 1085 l 850 819 l 624 819 l 624 660 l 850 660 l 850 283 l 368 283 l 368 125 l 461 125 l 461 -90 l 361 -90 l 361 -249 l 1021 -249 z "},"겋":{"ha":1250,"x_min":153,"x_max":1014,"o":"m 713 956 l 610 1057 l 153 1057 l 153 899 l 458 899 l 165 546 l 290 444 l 713 956 m 936 -18 q 908 97 936 44 l 1014 97 l 1014 256 l 1014 1085 l 850 1085 l 850 819 l 624 819 l 624 660 l 850 660 l 850 256 l 753 256 l 753 365 l 589 365 l 589 256 l 328 256 l 328 97 l 433 97 q 406 -18 406 44 q 427 -119 406 -72 q 485 -201 449 -165 q 569 -256 521 -236 q 671 -276 618 -276 q 772 -256 724 -276 q 856 -199 819 -235 q 915 -117 893 -164 q 936 -18 936 -71 m 772 -18 q 743 -92 772 -62 q 671 -121 714 -121 q 598 -92 628 -121 q 568 -18 568 -62 q 598 55 568 26 q 671 83 628 83 q 743 55 714 83 q 772 -18 772 26 z "},"게":{"ha":1250,"x_min":126,"x_max":1056,"o":"m 1056 71 l 1056 1085 l 892 1085 l 892 71 l 1056 71 m 840 71 l 840 1085 l 679 1085 l 679 807 l 517 807 l 517 650 l 679 650 l 679 71 l 840 71 m 600 985 l 485 1058 l 139 1058 l 139 900 l 369 900 l 126 475 l 265 399 l 600 985 z "},"겐":{"ha":1250,"x_min":135,"x_max":1069,"o":"m 1056 200 l 1056 1085 l 892 1085 l 892 200 l 1056 200 m 840 200 l 840 1085 l 679 1085 l 679 819 l 517 819 l 517 660 l 679 660 l 679 200 l 840 200 m 615 982 l 513 1057 l 139 1057 l 139 899 l 372 899 l 135 531 l 271 447 l 615 982 m 1069 -249 l 1069 -90 l 625 -90 l 625 229 l 461 229 l 461 -125 q 471 -173 461 -150 q 497 -212 481 -196 q 536 -239 514 -229 q 583 -249 558 -249 l 1069 -249 z "},"겔":{"ha":1250,"x_min":135,"x_max":1069,"o":"m 840 363 l 840 1085 l 679 1085 l 679 819 l 517 819 l 517 660 l 679 660 l 679 363 l 840 363 m 615 982 l 513 1057 l 139 1057 l 139 899 l 372 899 l 135 531 l 271 447 l 615 982 m 1069 -276 l 1069 -124 l 625 -124 l 625 -62 l 1056 -62 l 1056 297 l 1056 1085 l 892 1085 l 892 297 l 461 297 l 461 144 l 892 144 l 892 85 l 461 85 l 461 -153 q 471 -201 461 -178 q 497 -240 481 -224 q 536 -267 514 -257 q 583 -276 558 -276 l 1069 -276 z "},"겜":{"ha":1250,"x_min":135,"x_max":1056,"o":"m 840 363 l 840 1085 l 679 1085 l 679 819 l 517 819 l 517 660 l 679 660 l 679 363 l 840 363 m 615 982 l 513 1057 l 139 1057 l 139 899 l 372 899 l 135 531 l 271 447 l 615 982 m 1056 -125 l 1056 283 l 1056 1085 l 892 1085 l 892 283 l 461 283 l 461 -125 q 471 -173 461 -150 q 497 -212 481 -196 q 536 -239 514 -229 q 583 -249 558 -249 l 933 -249 q 981 -239 958 -249 q 1019 -212 1003 -229 q 1046 -173 1036 -196 q 1056 -125 1056 -150 m 892 -90 l 625 -90 l 625 125 l 892 125 l 892 -90 z "},"겝":{"ha":1250,"x_min":135,"x_max":1056,"o":"m 840 363 l 840 1085 l 679 1085 l 679 819 l 517 819 l 517 660 l 679 660 l 679 363 l 840 363 m 615 982 l 513 1057 l 139 1057 l 139 899 l 372 899 l 135 531 l 271 447 l 615 982 m 1056 -132 l 1056 283 l 1056 1085 l 892 1085 l 892 200 l 892 161 l 625 161 l 625 283 l 461 283 l 461 -132 q 471 -180 461 -157 q 497 -219 481 -203 q 536 -246 514 -236 q 583 -256 558 -256 l 933 -256 q 981 -246 958 -256 q 1019 -219 1003 -236 q 1046 -180 1036 -203 q 1056 -132 1056 -157 m 892 -97 l 625 -97 l 625 3 l 892 3 l 892 -97 z "},"겟":{"ha":1250,"x_min":135,"x_max":1106,"o":"m 1057 199 l 1057 1085 l 893 1085 l 893 199 l 1057 199 m 840 363 l 893 1085 l 679 1085 l 679 819 l 517 819 l 517 660 l 679 660 l 679 363 l 840 363 m 615 982 l 513 1057 l 139 1057 l 139 899 l 372 899 l 135 531 l 271 447 l 615 982 m 1106 -167 l 732 278 l 360 -167 l 488 -268 l 732 26 l 976 -268 l 1106 -167 z "},"겠":{"ha":1250,"x_min":135,"x_max":1104,"o":"m 840 363 l 840 1085 l 679 1085 l 679 819 l 517 819 l 517 660 l 679 660 l 679 363 l 840 363 m 615 982 l 513 1057 l 139 1057 l 139 899 l 372 899 l 135 531 l 271 447 l 615 982 m 1104 -203 l 908 199 l 1057 199 l 1057 1085 l 893 1085 l 893 231 l 858 300 l 692 22 l 526 300 l 282 -203 l 426 -267 l 542 -31 l 692 -261 l 843 -31 l 958 -267 l 1104 -203 z "},"겡":{"ha":1250,"x_min":135,"x_max":1056,"o":"m 840 363 l 840 1085 l 679 1085 l 679 819 l 517 819 l 517 660 l 679 660 l 679 363 l 840 363 m 1056 -1 l 1056 1085 l 892 1085 l 892 247 q 774 272 839 272 q 667 251 718 272 q 576 194 615 231 q 514 107 538 157 q 490 -1 490 57 q 513 -108 490 -58 q 576 -196 536 -158 q 666 -255 615 -233 q 774 -276 717 -276 q 882 -255 831 -276 q 972 -196 933 -233 q 1033 -108 1010 -158 q 1056 -1 1056 -58 m 892 -1 q 857 -87 892 -54 q 774 -121 822 -121 q 690 -87 725 -121 q 654 -1 654 -54 q 690 84 654 51 q 774 117 725 117 q 857 84 822 117 q 892 -1 892 51 m 615 982 l 513 1057 l 139 1057 l 139 899 l 372 899 l 135 531 l 271 447 l 615 982 z "},"겨":{"ha":1250,"x_min":153,"x_max":1014,"o":"m 715 975 l 603 1058 l 153 1058 l 153 900 l 469 900 l 163 457 l 294 368 l 582 782 l 582 722 l 850 722 l 850 651 l 582 651 l 582 493 l 850 493 l 850 71 l 1014 71 l 1014 1085 l 850 1085 l 850 881 l 650 881 l 715 975 z "},"격":{"ha":1250,"x_min":153,"x_max":1014,"o":"m 1014 -249 l 1014 283 l 1014 1085 l 850 1085 l 850 907 l 672 907 l 713 956 l 610 1057 l 153 1057 l 153 899 l 458 899 l 165 546 l 290 444 l 582 797 l 582 747 l 850 747 l 850 676 l 582 676 l 582 517 l 850 517 l 850 283 l 407 283 l 407 125 l 850 125 l 850 -249 l 1014 -249 z "},"겪":{"ha":1250,"x_min":153,"x_max":1014,"o":"m 1014 -249 l 1014 283 l 1014 1085 l 850 1085 l 850 907 l 672 907 l 713 956 l 610 1057 l 153 1057 l 153 899 l 458 899 l 165 546 l 290 444 l 582 797 l 582 747 l 850 747 l 850 676 l 582 676 l 582 517 l 850 517 l 850 283 l 300 283 l 300 125 l 500 125 l 500 -249 l 664 -249 l 664 125 l 850 125 l 850 -249 l 1014 -249 z "},"견":{"ha":1250,"x_min":153,"x_max":1028,"o":"m 713 956 l 610 1057 l 153 1057 l 153 899 l 458 899 l 165 546 l 290 444 l 582 797 l 582 747 l 850 747 l 850 676 l 582 676 l 582 517 l 850 517 l 850 200 l 1014 200 l 1014 1085 l 850 1085 l 850 907 l 672 907 l 713 956 m 1028 -249 l 1028 -90 l 585 -90 l 585 229 l 421 229 l 421 -125 q 431 -173 421 -150 q 457 -212 440 -196 q 496 -239 474 -229 q 543 -249 518 -249 l 1028 -249 z "},"겯":{"ha":1250,"x_min":153,"x_max":1028,"o":"m 1028 -249 l 1028 -90 l 585 -90 l 585 125 l 1014 125 l 1014 1085 l 850 1085 l 850 907 l 672 907 l 713 956 l 610 1057 l 153 1057 l 153 899 l 458 899 l 165 546 l 290 444 l 582 797 l 582 747 l 850 747 l 850 676 l 582 676 l 582 517 l 850 517 l 850 283 l 421 283 l 421 -125 q 431 -173 421 -150 q 457 -212 440 -196 q 496 -239 474 -229 q 543 -249 518 -249 l 1028 -249 z "},"결":{"ha":1250,"x_min":153,"x_max":1028,"o":"m 1028 -276 l 1028 -124 l 585 -124 l 585 -62 l 1014 -62 l 1014 1085 l 850 1085 l 850 907 l 672 907 l 713 956 l 610 1057 l 153 1057 l 153 899 l 458 899 l 165 546 l 290 444 l 582 797 l 582 747 l 850 747 l 850 676 l 582 676 l 582 517 l 850 517 l 850 297 l 421 297 l 421 144 l 850 144 l 850 85 l 421 85 l 421 -153 q 431 -201 421 -178 q 457 -240 440 -224 q 496 -267 474 -257 q 543 -276 518 -276 l 1028 -276 z "},"겸":{"ha":1250,"x_min":153,"x_max":1014,"o":"m 1014 -125 l 1014 283 l 1014 1085 l 850 1085 l 850 907 l 672 907 l 713 956 l 610 1057 l 153 1057 l 153 899 l 458 899 l 165 546 l 290 444 l 582 797 l 582 747 l 850 747 l 850 676 l 582 676 l 582 517 l 850 517 l 850 283 l 421 283 l 421 -125 q 431 -173 421 -150 q 457 -212 440 -196 q 496 -239 474 -229 q 543 -249 518 -249 l 892 -249 q 939 -239 917 -249 q 978 -212 961 -229 q 1004 -173 994 -196 q 1014 -125 1014 -150 m 850 -90 l 585 -90 l 585 125 l 850 125 l 850 -90 z "},"겹":{"ha":1250,"x_min":153,"x_max":1014,"o":"m 1014 -132 l 1014 283 l 1014 1085 l 850 1085 l 850 907 l 672 907 l 713 956 l 610 1057 l 153 1057 l 153 899 l 458 899 l 165 546 l 290 444 l 582 797 l 582 747 l 850 747 l 850 676 l 582 676 l 582 517 l 850 517 l 850 200 l 850 161 l 585 161 l 585 283 l 421 283 l 421 -132 q 431 -180 421 -157 q 457 -219 440 -203 q 496 -246 474 -236 q 543 -256 518 -256 l 892 -256 q 939 -246 917 -256 q 978 -219 961 -236 q 1004 -180 994 -203 q 1014 -132 1014 -157 m 850 -97 l 585 -97 l 585 3 l 850 3 l 850 -97 z "},"겻":{"ha":1250,"x_min":153,"x_max":1064,"o":"m 713 956 l 610 1057 l 153 1057 l 153 899 l 458 899 l 165 546 l 290 444 l 582 797 l 582 747 l 850 747 l 850 676 l 582 676 l 582 517 l 850 517 l 850 200 l 1014 200 l 1014 1085 l 850 1085 l 850 907 l 672 907 l 713 956 m 1064 -167 l 672 278 l 319 -167 l 447 -268 l 692 26 l 935 -268 l 1064 -167 z "},"겼":{"ha":1250,"x_min":153,"x_max":1063,"o":"m 1063 -203 l 867 200 l 1014 200 l 1014 1085 l 850 1085 l 850 907 l 672 907 l 713 956 l 610 1057 l 153 1057 l 153 899 l 458 899 l 165 546 l 290 444 l 582 797 l 582 747 l 850 747 l 850 676 l 582 676 l 582 517 l 850 517 l 850 233 l 818 300 l 651 22 l 486 300 l 242 -203 l 388 -267 l 501 -31 l 651 -261 l 803 -31 l 917 -267 l 1063 -203 z "},"경":{"ha":1250,"x_min":153,"x_max":1014,"o":"m 1014 -17 l 1014 1085 l 850 1085 l 850 907 l 672 907 l 713 956 l 610 1057 l 153 1057 l 153 899 l 458 899 l 165 546 l 290 444 l 582 797 l 582 747 l 850 747 l 850 675 l 582 675 l 582 517 l 850 517 l 850 247 q 732 272 797 272 q 624 251 675 272 q 535 192 574 229 q 473 106 496 156 q 450 -1 450 56 q 473 -108 450 -58 q 534 -196 496 -158 q 624 -255 572 -233 q 732 -276 675 -276 q 836 -256 786 -276 q 924 -201 886 -236 q 987 -118 963 -165 q 1014 -17 1011 -71 m 850 -1 q 815 -87 850 -54 q 732 -121 781 -121 q 649 -87 683 -121 q 614 -1 614 -54 q 649 84 614 51 q 732 117 683 117 q 815 84 781 117 q 850 -1 850 51 z "},"곁":{"ha":1250,"x_min":153,"x_max":1014,"o":"m 1014 -262 l 1014 -110 l 585 -110 l 585 -62 l 1000 -62 l 1000 85 l 585 85 l 585 132 l 1014 132 l 1014 283 l 1014 1085 l 850 1085 l 850 907 l 672 907 l 713 956 l 610 1057 l 153 1057 l 153 899 l 458 899 l 165 546 l 290 444 l 582 797 l 582 747 l 850 747 l 850 676 l 582 676 l 582 517 l 850 517 l 850 283 l 421 283 l 421 -139 q 431 -187 421 -164 q 457 -226 440 -210 q 496 -253 474 -243 q 543 -262 518 -262 l 1014 -262 z "},"계":{"ha":1250,"x_min":126,"x_max":1056,"o":"m 1056 71 l 1056 1085 l 892 1085 l 892 71 l 1056 71 m 600 985 l 485 1058 l 139 1058 l 139 900 l 369 900 l 126 475 l 265 399 l 517 838 l 517 722 l 679 722 l 679 651 l 517 651 l 517 493 l 679 493 l 679 71 l 840 71 l 840 1085 l 679 1085 l 679 881 l 542 881 l 600 985 z "},"곈":{"ha":1250,"x_min":135,"x_max":1069,"o":"m 1056 200 l 1056 1085 l 892 1085 l 892 200 l 1056 200 m 615 982 l 513 1057 l 139 1057 l 139 899 l 372 899 l 135 531 l 271 447 l 531 850 l 531 747 l 679 747 l 679 676 l 531 676 l 531 517 l 679 517 l 679 200 l 840 200 l 840 1085 l 679 1085 l 679 907 l 567 907 l 615 982 m 1069 -249 l 1069 -90 l 625 -90 l 625 229 l 461 229 l 461 -125 q 471 -173 461 -150 q 497 -212 481 -196 q 536 -239 514 -229 q 583 -249 558 -249 l 1069 -249 z "},"곌":{"ha":1250,"x_min":135,"x_max":1069,"o":"m 615 982 l 513 1057 l 139 1057 l 139 899 l 372 899 l 135 531 l 271 447 l 531 850 l 531 747 l 679 747 l 679 675 l 531 675 l 531 517 l 679 517 l 679 363 l 840 363 l 840 1085 l 679 1085 l 679 907 l 567 907 l 615 982 m 1069 -276 l 1069 -124 l 625 -124 l 625 -62 l 1056 -62 l 1056 297 l 1056 1085 l 892 1085 l 892 297 l 461 297 l 461 144 l 892 144 l 892 85 l 461 85 l 461 -153 q 471 -201 461 -178 q 497 -240 481 -224 q 536 -267 514 -257 q 583 -276 558 -276 l 1069 -276 z "},"곕":{"ha":1250,"x_min":135,"x_max":1056,"o":"m 615 982 l 513 1057 l 139 1057 l 139 899 l 372 899 l 135 531 l 271 447 l 531 850 l 531 747 l 679 747 l 679 675 l 531 675 l 531 517 l 679 517 l 679 363 l 840 363 l 840 1085 l 679 1085 l 679 907 l 567 907 l 615 982 m 1056 -132 l 1056 283 l 1056 1085 l 892 1085 l 892 200 l 892 161 l 625 161 l 625 283 l 461 283 l 461 -132 q 471 -180 461 -157 q 497 -219 481 -203 q 536 -246 514 -236 q 583 -256 558 -256 l 933 -256 q 981 -246 958 -256 q 1019 -219 1003 -236 q 1046 -180 1036 -203 q 1056 -132 1056 -157 m 892 -97 l 625 -97 l 625 3 l 892 3 l 892 -97 z "},"곗":{"ha":1250,"x_min":135,"x_max":1106,"o":"m 1057 199 l 1057 1085 l 893 1085 l 893 199 l 1057 199 m 615 982 l 513 1057 l 139 1057 l 139 899 l 372 899 l 135 531 l 271 447 l 531 850 l 531 747 l 679 747 l 679 675 l 531 675 l 531 517 l 679 517 l 679 363 l 840 363 l 840 1085 l 679 1085 l 679 907 l 567 907 l 615 982 m 1106 -167 l 732 278 l 360 -167 l 488 -268 l 732 26 l 976 -268 l 1106 -167 z "},"고":{"ha":1250,"x_min":56,"x_max":1194,"o":"m 924 558 l 924 1057 l 313 1057 l 313 900 l 758 900 l 758 558 l 924 558 m 1194 217 l 1194 374 l 653 374 l 653 682 l 489 682 l 489 374 l 56 374 l 56 217 l 1194 217 z "},"곡":{"ha":1250,"x_min":56,"x_max":1194,"o":"m 924 593 l 924 1057 l 313 1057 l 313 899 l 758 899 l 758 593 l 924 593 m 1194 356 l 1194 514 l 653 514 l 653 744 l 489 744 l 489 514 l 56 514 l 56 356 l 1194 356 m 924 -249 l 924 215 l 313 215 l 313 57 l 758 57 l 758 -249 l 924 -249 z "},"곤":{"ha":1250,"x_min":56,"x_max":1194,"o":"m 924 593 l 924 1057 l 313 1057 l 313 899 l 758 899 l 758 593 l 924 593 m 1194 328 l 1194 488 l 653 488 l 653 744 l 489 744 l 489 488 l 56 488 l 56 328 l 1194 328 m 938 -249 l 938 -90 l 492 -90 l 492 175 l 326 175 l 326 -125 q 336 -173 326 -150 q 363 -212 346 -196 q 401 -239 379 -229 q 449 -249 424 -249 l 938 -249 z "},"곧":{"ha":1250,"x_min":56,"x_max":1194,"o":"m 924 593 l 924 1057 l 313 1057 l 313 899 l 758 899 l 758 593 l 924 593 m 1194 356 l 1194 514 l 653 514 l 653 744 l 489 744 l 489 514 l 56 514 l 56 356 l 1194 356 m 938 -249 l 938 -90 l 492 -90 l 492 83 l 924 83 l 924 243 l 326 243 l 326 -125 q 336 -173 326 -150 q 363 -212 346 -196 q 401 -239 379 -229 q 449 -249 424 -249 l 938 -249 z "},"골":{"ha":1250,"x_min":56,"x_max":1194,"o":"m 924 633 l 924 1057 l 313 1057 l 313 899 l 758 899 l 758 633 l 924 633 m 1194 396 l 1194 554 l 653 554 l 653 758 l 489 758 l 489 554 l 56 554 l 56 396 l 1194 396 m 938 -276 l 938 -125 l 492 -125 l 492 -57 l 924 -57 l 924 310 l 326 310 l 326 158 l 758 158 l 758 92 l 326 92 l 326 -153 q 336 -201 326 -178 q 363 -240 346 -224 q 401 -267 379 -257 q 449 -276 424 -276 l 938 -276 z "},"곪":{"ha":1250,"x_min":56,"x_max":1194,"o":"m 924 633 l 924 1057 l 313 1057 l 313 899 l 758 899 l 758 633 l 924 633 m 1194 396 l 1194 554 l 653 554 l 653 758 l 489 758 l 489 554 l 56 554 l 56 396 l 1194 396 m 1025 -153 l 1025 310 l 631 310 l 631 -153 q 667 -240 631 -204 q 754 -276 703 -276 l 903 -276 q 990 -240 954 -276 q 1025 -153 1025 -204 m 861 -118 l 796 -118 l 796 151 l 861 151 l 861 -118 m 606 -276 l 606 -125 l 389 -125 l 389 -57 l 592 -57 l 592 310 l 225 310 l 225 158 l 428 158 l 428 92 l 225 92 l 225 -153 q 260 -240 225 -204 q 347 -276 296 -276 l 606 -276 z "},"곬":{"ha":1250,"x_min":56,"x_max":1194,"o":"m 924 633 l 924 1057 l 313 1057 l 313 899 l 758 899 l 758 633 l 924 633 m 1194 396 l 1194 554 l 653 554 l 653 758 l 489 758 l 489 554 l 56 554 l 56 396 l 1194 396 m 633 -262 l 633 -217 l 736 -282 l 842 -89 l 947 -282 l 1083 -196 l 842 244 l 633 -136 l 633 -111 l 417 -111 l 417 -50 l 619 -50 l 619 310 l 251 310 l 251 158 l 454 158 l 454 99 l 251 99 l 251 -139 q 288 -226 251 -190 q 375 -262 324 -262 l 633 -262 z "},"곯":{"ha":1250,"x_min":56,"x_max":1194,"o":"m 924 633 l 924 1057 l 313 1057 l 313 899 l 758 899 l 758 633 l 924 633 m 1194 396 l 1194 554 l 653 554 l 653 758 l 489 758 l 489 554 l 56 554 l 56 396 l 1194 396 m 918 263 l 918 396 l 753 351 l 753 263 l 585 263 l 585 324 l 218 324 l 218 172 l 421 172 l 421 106 l 218 106 l 218 -139 q 253 -226 218 -190 q 340 -262 289 -262 l 599 -262 l 599 -111 l 382 -111 l 382 -43 l 585 -43 l 585 104 l 639 104 q 613 -15 613 49 q 630 -115 613 -68 q 678 -198 647 -162 q 749 -255 708 -233 q 835 -276 789 -276 q 922 -255 881 -276 q 992 -198 963 -233 q 1040 -115 1022 -162 q 1057 -15 1057 -68 q 1050 47 1057 17 q 1032 104 1043 78 l 1100 104 l 1100 263 l 918 263 m 892 -15 q 872 -92 892 -64 q 835 -121 853 -121 q 798 -92 818 -121 q 778 -15 778 -64 q 798 61 778 33 q 835 89 818 89 q 872 61 853 89 q 892 -15 892 33 z "},"곰":{"ha":1250,"x_min":56,"x_max":1194,"o":"m 924 593 l 924 1057 l 313 1057 l 313 899 l 758 899 l 758 593 l 924 593 m 1194 356 l 1194 514 l 653 514 l 653 744 l 489 744 l 489 514 l 56 514 l 56 356 l 1194 356 m 924 -125 l 924 243 l 326 243 l 326 -125 q 336 -173 326 -150 q 363 -212 346 -196 q 401 -239 379 -229 q 449 -249 424 -249 l 801 -249 q 849 -239 826 -249 q 888 -212 871 -229 q 914 -173 904 -196 q 924 -125 924 -150 m 758 -90 l 492 -90 l 492 83 l 758 83 l 758 -90 z "},"곱":{"ha":1250,"x_min":56,"x_max":1194,"o":"m 924 593 l 924 1057 l 313 1057 l 313 899 l 758 899 l 758 593 l 924 593 m 1194 356 l 1194 514 l 653 514 l 653 744 l 489 744 l 489 514 l 56 514 l 56 356 l 1194 356 m 924 -139 l 924 276 l 758 276 l 758 154 l 492 154 l 492 276 l 326 276 l 326 -139 q 336 -187 326 -164 q 363 -226 346 -210 q 401 -253 379 -243 q 449 -262 424 -262 l 801 -262 q 849 -253 826 -262 q 888 -226 871 -243 q 914 -187 904 -210 q 924 -139 924 -164 m 758 -104 l 492 -104 l 492 -4 l 758 -4 l 758 -104 z "},"곳":{"ha":1250,"x_min":56,"x_max":1194,"o":"m 924 593 l 924 1057 l 313 1057 l 313 899 l 758 899 l 758 593 l 924 593 m 1194 356 l 1194 514 l 653 514 l 653 744 l 489 744 l 489 514 l 56 514 l 56 356 l 1194 356 m 1000 -167 l 625 278 l 250 -167 l 379 -268 l 625 26 l 871 -268 l 1000 -167 z "},"공":{"ha":1250,"x_min":56,"x_max":1194,"o":"m 924 593 l 924 1057 l 313 1057 l 313 899 l 758 899 l 758 593 l 924 593 m 1194 356 l 1194 514 l 653 514 l 653 744 l 489 744 l 489 514 l 56 514 l 56 356 l 1194 356 m 910 -14 q 886 88 910 40 q 824 170 863 135 q 733 226 785 206 q 625 247 681 247 q 517 226 568 247 q 426 170 465 206 q 363 88 386 135 q 340 -14 340 40 q 364 -117 340 -69 q 426 -201 388 -165 q 517 -256 465 -236 q 625 -276 568 -276 q 733 -256 681 -276 q 824 -201 785 -236 q 886 -117 863 -165 q 910 -14 910 -69 m 744 -14 q 710 -90 744 -60 q 625 -121 675 -121 q 540 -90 575 -121 q 506 -14 506 -60 q 540 61 506 31 q 625 92 575 92 q 710 61 675 92 q 744 -14 744 31 z "},"곶":{"ha":1250,"x_min":56,"x_max":1194,"o":"m 924 593 l 924 1057 l 313 1057 l 313 899 l 758 899 l 758 593 l 924 593 m 1194 356 l 1194 514 l 653 514 l 653 744 l 489 744 l 489 514 l 56 514 l 56 356 l 1194 356 m 992 -156 l 756 83 l 924 83 l 924 243 l 326 243 l 326 83 l 494 83 l 258 -156 l 378 -268 l 625 -14 l 872 -268 l 992 -156 z "},"과":{"ha":1250,"x_min":14,"x_max":1208,"o":"m 721 569 l 721 1058 l 190 1058 l 190 900 l 556 900 l 556 569 l 721 569 m 867 267 l 867 71 l 1032 71 l 1032 664 l 1208 664 l 1208 822 l 1032 822 l 1032 1085 l 867 1085 l 867 424 l 483 424 l 483 721 l 318 721 l 318 424 l 14 424 l 14 267 l 867 267 z "},"곽":{"ha":1250,"x_min":14,"x_max":1208,"o":"m 721 593 l 721 1057 l 190 1057 l 190 899 l 556 899 l 556 593 l 721 593 m 1032 -249 l 1032 215 l 1032 701 l 1208 701 l 1208 861 l 1032 861 l 1032 1085 l 867 1085 l 867 514 l 483 514 l 483 746 l 318 746 l 318 514 l 14 514 l 14 356 l 867 356 l 867 215 l 421 215 l 421 57 l 867 57 l 867 -249 l 1032 -249 z "},"관":{"ha":1250,"x_min":14,"x_max":1208,"o":"m 721 593 l 721 1057 l 190 1057 l 190 899 l 556 899 l 556 593 l 721 593 m 867 328 l 867 158 l 1032 158 l 1032 701 l 1208 701 l 1208 861 l 1032 861 l 1032 1085 l 867 1085 l 867 488 l 483 488 l 483 746 l 318 746 l 318 488 l 14 488 l 14 328 l 867 328 m 1046 -249 l 1046 -90 l 599 -90 l 599 175 l 433 175 l 433 -125 q 469 -212 433 -176 q 557 -249 506 -249 l 1046 -249 z "},"괄":{"ha":1250,"x_min":14,"x_max":1208,"o":"m 721 593 l 721 1057 l 190 1057 l 190 899 l 556 899 l 556 593 l 721 593 m 1046 -276 l 1046 -124 l 599 -124 l 599 -76 l 1032 -76 l 1032 269 l 1032 701 l 1208 701 l 1208 861 l 1032 861 l 1032 1085 l 867 1085 l 867 514 l 483 514 l 483 744 l 318 744 l 318 514 l 14 514 l 14 356 l 867 356 l 867 269 l 433 269 l 433 118 l 867 118 l 867 71 l 433 71 l 433 -153 q 469 -240 433 -204 q 557 -276 506 -276 l 1046 -276 z "},"괆":{"ha":1250,"x_min":14,"x_max":1208,"o":"m 721 593 l 721 1057 l 190 1057 l 190 899 l 556 899 l 556 593 l 721 593 m 1032 -153 l 1032 269 l 1032 701 l 1208 701 l 1208 861 l 1032 861 l 1032 1085 l 867 1085 l 867 514 l 483 514 l 483 744 l 318 744 l 318 514 l 14 514 l 14 356 l 867 356 l 867 269 l 638 269 l 638 -153 q 673 -240 638 -204 q 760 -276 708 -276 l 910 -276 q 957 -267 935 -276 q 996 -240 979 -257 q 1022 -201 1013 -224 q 1032 -153 1032 -178 m 867 -118 l 801 -118 l 801 111 l 867 111 l 867 -118 m 613 -276 l 613 -124 l 396 -124 l 396 -76 l 599 -76 l 599 269 l 231 269 l 231 118 l 433 118 l 433 71 l 231 71 l 231 -153 q 240 -201 231 -178 q 267 -240 250 -224 q 306 -267 283 -257 q 353 -276 328 -276 l 613 -276 z "},"괌":{"ha":1250,"x_min":14,"x_max":1208,"o":"m 721 593 l 721 1057 l 190 1057 l 190 899 l 556 899 l 556 593 l 721 593 m 1032 -125 l 1032 243 l 1032 701 l 1208 701 l 1208 861 l 1032 861 l 1032 1085 l 867 1085 l 867 514 l 483 514 l 483 746 l 318 746 l 318 514 l 14 514 l 14 356 l 867 356 l 867 243 l 433 243 l 433 -125 q 469 -212 433 -176 q 557 -249 506 -249 l 910 -249 q 957 -239 935 -249 q 996 -212 979 -229 q 1022 -173 1013 -196 q 1032 -125 1032 -150 m 867 -90 l 599 -90 l 599 85 l 867 85 l 867 -90 z "},"괍":{"ha":1250,"x_min":14,"x_max":1208,"o":"m 721 593 l 721 1057 l 190 1057 l 190 899 l 556 899 l 556 593 l 721 593 m 599 -18 l 867 -18 l 867 -104 l 599 -104 l 599 -18 m 867 140 l 599 140 l 599 250 l 433 250 l 433 -139 q 469 -226 433 -190 q 557 -262 506 -262 l 910 -262 q 957 -253 935 -262 q 996 -226 979 -243 q 1022 -187 1013 -210 q 1032 -139 1032 -164 l 1032 250 l 1032 701 l 1208 701 l 1208 861 l 1032 861 l 1032 1085 l 867 1085 l 867 514 l 483 514 l 483 746 l 318 746 l 318 514 l 14 514 l 14 356 l 867 356 l 867 158 l 867 140 z "},"괏":{"ha":1250,"x_min":14,"x_max":1208,"o":"m 721 593 l 721 1057 l 190 1057 l 190 899 l 556 899 l 556 593 l 721 593 m 867 356 l 867 158 l 1032 158 l 1032 701 l 1208 701 l 1208 861 l 1032 861 l 1032 1085 l 867 1085 l 867 514 l 483 514 l 483 746 l 318 746 l 318 514 l 14 514 l 14 356 l 867 356 m 1081 -167 l 706 278 l 331 -167 l 460 -268 l 706 26 l 951 -268 l 1081 -167 z "},"광":{"ha":1250,"x_min":14,"x_max":1208,"o":"m 721 593 l 721 1057 l 190 1057 l 190 899 l 556 899 l 556 593 l 721 593 m 867 356 l 867 224 q 810 242 840 235 q 747 249 779 249 q 640 228 692 249 q 550 172 589 207 q 488 88 511 136 q 464 -14 464 40 q 487 -117 464 -69 q 549 -201 510 -165 q 640 -256 589 -236 q 747 -276 690 -276 q 856 -256 804 -276 q 947 -199 908 -235 q 1009 -115 986 -162 q 1032 -12 1032 -67 l 1032 701 l 1208 701 l 1208 861 l 1032 861 l 1032 1085 l 867 1085 l 867 514 l 483 514 l 483 744 l 318 744 l 318 514 l 14 514 l 14 356 l 867 356 m 867 -14 q 833 -90 867 -60 q 747 -121 799 -121 q 663 -90 697 -121 q 629 -14 629 -60 q 663 61 629 31 q 747 92 697 92 q 833 61 799 92 q 867 -14 867 31 z "},"괘":{"ha":1250,"x_min":14,"x_max":1083,"o":"m 611 569 l 611 1058 l 149 1058 l 149 900 l 446 900 l 446 569 l 611 569 m 767 267 l 844 267 l 844 664 l 918 664 l 918 71 l 1083 71 l 1083 1085 l 918 1085 l 918 822 l 844 822 l 844 1085 l 682 1085 l 682 424 l 415 424 l 415 721 l 250 721 l 250 424 l 14 424 l 14 267 l 682 267 l 767 267 z "},"괜":{"ha":1250,"x_min":14,"x_max":1097,"o":"m 611 593 l 611 1057 l 149 1057 l 149 899 l 446 899 l 446 593 l 611 593 m 767 328 l 844 328 l 844 701 l 919 701 l 919 158 l 1083 158 l 1083 1085 l 919 1085 l 919 861 l 844 861 l 844 1085 l 682 1085 l 682 488 l 415 488 l 415 746 l 250 746 l 250 488 l 14 488 l 14 328 l 682 328 l 767 328 m 1097 -249 l 1097 -90 l 651 -90 l 651 175 l 486 175 l 486 -125 q 522 -212 486 -176 q 610 -249 558 -249 l 1097 -249 z "},"괠":{"ha":1250,"x_min":14,"x_max":1097,"o":"m 611 593 l 611 1057 l 149 1057 l 149 899 l 446 899 l 446 593 l 611 593 m 1097 -276 l 1097 -124 l 651 -124 l 651 -76 l 1083 -76 l 1083 269 l 1083 1085 l 919 1085 l 919 861 l 844 861 l 844 1085 l 682 1085 l 682 514 l 415 514 l 415 744 l 250 744 l 250 514 l 14 514 l 14 356 l 767 356 l 844 356 l 844 701 l 919 701 l 919 269 l 486 269 l 486 118 l 919 118 l 919 71 l 486 71 l 486 -153 q 522 -240 486 -204 q 610 -276 558 -276 l 1097 -276 z "},"괩":{"ha":1250,"x_min":14,"x_max":1083,"o":"m 611 593 l 611 1057 l 149 1057 l 149 899 l 446 899 l 446 593 l 611 593 m 1083 -139 l 1083 250 l 1083 1085 l 918 1085 l 918 861 l 844 861 l 844 1085 l 682 1085 l 682 514 l 415 514 l 415 746 l 250 746 l 250 514 l 14 514 l 14 356 l 767 356 l 844 356 l 844 701 l 918 701 l 918 158 l 918 140 l 651 140 l 651 250 l 486 250 l 486 -139 q 522 -226 486 -190 q 610 -262 558 -262 l 961 -262 q 1008 -253 986 -262 q 1047 -226 1031 -243 q 1074 -187 1064 -210 q 1083 -139 1083 -164 m 918 -104 l 651 -104 l 651 -18 l 918 -18 l 918 -104 z "},"괬":{"ha":1250,"x_min":14,"x_max":1132,"o":"m 611 593 l 611 1057 l 149 1057 l 149 899 l 446 899 l 446 593 l 611 593 m 1132 -217 l 943 158 l 1085 158 l 1085 1085 l 919 1085 l 919 861 l 846 861 l 846 1085 l 683 1085 l 683 514 l 415 514 l 415 744 l 250 744 l 250 514 l 14 514 l 14 356 l 767 356 l 846 356 l 846 701 l 919 701 l 919 204 l 886 271 l 718 7 l 551 271 l 306 -217 l 451 -281 l 568 -50 l 718 -275 l 869 -50 l 986 -281 l 1132 -217 z "},"괭":{"ha":1250,"x_min":14,"x_max":1083,"o":"m 611 593 l 611 1057 l 149 1057 l 149 899 l 446 899 l 446 593 l 611 593 m 767 356 l 844 356 l 844 701 l 918 701 l 918 224 q 862 242 892 235 q 800 249 832 249 q 693 228 744 249 q 603 172 642 207 q 540 88 564 136 q 517 -14 517 40 q 540 -117 517 -69 q 602 -201 563 -165 q 692 -256 642 -236 q 800 -276 743 -276 q 908 -256 857 -276 q 999 -199 960 -235 q 1060 -116 1038 -164 q 1083 -14 1083 -68 l 1083 1085 l 918 1085 l 918 861 l 844 861 l 844 1085 l 682 1085 l 682 514 l 415 514 l 415 744 l 250 744 l 250 514 l 14 514 l 14 356 l 682 356 l 767 356 m 918 -14 q 884 -90 918 -60 q 800 -121 850 -121 q 715 -90 750 -121 q 681 -14 681 -60 q 715 61 681 31 q 800 92 750 92 q 884 61 850 92 q 918 -14 918 31 z "},"괴":{"ha":1250,"x_min":42,"x_max":1056,"o":"m 746 569 l 746 1058 l 217 1058 l 217 900 l 581 900 l 581 569 l 746 569 m 892 267 l 892 71 l 1056 71 l 1056 1085 l 892 1085 l 892 424 l 510 424 l 510 721 l 344 721 l 344 424 l 42 424 l 42 267 l 892 267 z "},"괵":{"ha":1250,"x_min":42,"x_max":1056,"o":"m 746 593 l 746 1057 l 217 1057 l 217 899 l 581 899 l 581 593 l 746 593 m 1056 -249 l 1056 215 l 1056 1085 l 892 1085 l 892 514 l 510 514 l 510 746 l 344 746 l 344 514 l 42 514 l 42 356 l 892 356 l 892 215 l 446 215 l 446 57 l 892 57 l 892 -249 l 1056 -249 z "},"괸":{"ha":1250,"x_min":42,"x_max":1069,"o":"m 746 593 l 746 1057 l 217 1057 l 217 899 l 581 899 l 581 593 l 746 593 m 892 328 l 892 158 l 1056 158 l 1056 1085 l 892 1085 l 892 488 l 510 488 l 510 746 l 346 746 l 346 488 l 42 488 l 42 328 l 892 328 m 1069 -249 l 1069 -90 l 625 -90 l 625 175 l 460 175 l 460 -125 q 469 -173 460 -150 q 496 -212 479 -196 q 535 -239 513 -229 q 582 -249 557 -249 l 1069 -249 z "},"괼":{"ha":1250,"x_min":42,"x_max":1069,"o":"m 746 593 l 746 1057 l 217 1057 l 217 899 l 581 899 l 581 593 l 746 593 m 1069 -276 l 1069 -124 l 625 -124 l 625 -76 l 1056 -76 l 1056 269 l 1056 1085 l 892 1085 l 892 514 l 510 514 l 510 744 l 346 744 l 346 514 l 42 514 l 42 356 l 892 356 l 892 269 l 460 269 l 460 118 l 892 118 l 892 71 l 460 71 l 460 -153 q 469 -201 460 -178 q 496 -240 479 -224 q 535 -267 513 -257 q 582 -276 557 -276 l 1069 -276 z "},"굄":{"ha":1250,"x_min":42,"x_max":1056,"o":"m 746 593 l 746 1057 l 217 1057 l 217 899 l 581 899 l 581 593 l 746 593 m 1056 -125 l 1056 243 l 1056 1085 l 892 1085 l 892 514 l 510 514 l 510 746 l 344 746 l 344 514 l 42 514 l 42 356 l 892 356 l 892 243 l 460 243 l 460 -125 q 469 -173 460 -150 q 496 -212 479 -196 q 535 -239 513 -229 q 582 -249 557 -249 l 933 -249 q 981 -239 958 -249 q 1019 -212 1003 -229 q 1046 -173 1036 -196 q 1056 -125 1056 -150 m 892 -90 l 624 -90 l 624 85 l 892 85 l 892 -90 z "},"굅":{"ha":1250,"x_min":42,"x_max":1056,"o":"m 746 593 l 746 1057 l 217 1057 l 217 899 l 581 899 l 581 593 l 746 593 m 1056 -139 l 1056 250 l 1056 1085 l 892 1085 l 892 514 l 510 514 l 510 746 l 344 746 l 344 514 l 42 514 l 42 356 l 892 356 l 892 158 l 892 140 l 624 140 l 624 250 l 460 250 l 460 -139 q 469 -187 460 -164 q 496 -226 479 -210 q 535 -253 513 -243 q 582 -262 557 -262 l 933 -262 q 981 -253 958 -262 q 1019 -226 1003 -243 q 1046 -187 1036 -210 q 1056 -139 1056 -164 m 892 -104 l 624 -104 l 624 -18 l 892 -18 l 892 -104 z "},"굇":{"ha":1250,"x_min":42,"x_max":1106,"o":"m 746 593 l 746 1057 l 217 1057 l 217 899 l 582 899 l 582 593 l 746 593 m 892 356 l 892 158 l 1057 158 l 1057 1085 l 892 1085 l 892 514 l 510 514 l 510 746 l 346 746 l 346 514 l 42 514 l 42 356 l 892 356 m 1106 -167 l 732 278 l 358 -167 l 486 -268 l 732 26 l 976 -268 l 1106 -167 z "},"굉":{"ha":1250,"x_min":42,"x_max":1056,"o":"m 746 593 l 746 1057 l 217 1057 l 217 899 l 581 899 l 581 593 l 746 593 m 892 356 l 892 224 q 835 242 865 235 q 772 249 804 249 q 665 228 717 249 q 575 172 614 207 q 513 88 536 136 q 489 -14 489 40 q 512 -117 489 -69 q 574 -201 535 -165 q 665 -256 614 -236 q 772 -276 715 -276 q 881 -256 829 -276 q 971 -199 932 -235 q 1033 -116 1010 -164 q 1056 -14 1056 -68 l 1056 1085 l 892 1085 l 892 514 l 510 514 l 510 744 l 344 744 l 344 514 l 42 514 l 42 356 l 892 356 m 892 -14 q 857 -90 892 -60 q 772 -121 822 -121 q 688 -90 722 -121 q 654 -14 654 -60 q 688 61 654 31 q 772 92 722 92 q 857 61 822 92 q 892 -14 892 31 z "},"교":{"ha":1250,"x_min":56,"x_max":1194,"o":"m 1194 217 l 1194 374 l 803 374 l 803 558 l 924 558 l 924 1057 l 313 1057 l 313 900 l 758 900 l 758 682 l 638 682 l 638 374 l 546 374 l 546 682 l 381 682 l 381 374 l 56 374 l 56 217 l 1194 217 z "},"굔":{"ha":1250,"x_min":56,"x_max":1194,"o":"m 381 488 l 56 488 l 56 328 l 1194 328 l 1194 488 l 803 488 l 803 593 l 924 593 l 924 1057 l 313 1057 l 313 899 l 758 899 l 758 731 l 638 731 l 638 488 l 546 488 l 546 731 l 381 731 l 381 488 m 938 -249 l 938 -90 l 492 -90 l 492 175 l 326 175 l 326 -125 q 336 -173 326 -150 q 363 -212 346 -196 q 401 -239 379 -229 q 449 -249 424 -249 l 938 -249 z "},"굘":{"ha":1250,"x_min":56,"x_max":1194,"o":"m 381 554 l 56 554 l 56 396 l 1194 396 l 1194 554 l 803 554 l 803 633 l 924 633 l 924 1057 l 313 1057 l 313 899 l 758 899 l 758 758 l 638 758 l 638 554 l 546 554 l 546 758 l 381 758 l 381 554 m 938 -276 l 938 -125 l 492 -125 l 492 -57 l 924 -57 l 924 310 l 326 310 l 326 158 l 758 158 l 758 92 l 326 92 l 326 -153 q 336 -201 326 -178 q 363 -240 346 -224 q 401 -267 379 -257 q 449 -276 424 -276 l 938 -276 z "},"굡":{"ha":1250,"x_min":56,"x_max":1194,"o":"m 381 514 l 56 514 l 56 356 l 1194 356 l 1194 514 l 803 514 l 803 593 l 924 593 l 924 1057 l 313 1057 l 313 899 l 758 899 l 758 731 l 638 731 l 638 514 l 546 514 l 546 731 l 381 731 l 381 514 m 924 -139 l 924 276 l 758 276 l 758 154 l 492 154 l 492 276 l 326 276 l 326 -139 q 336 -187 326 -164 q 363 -226 346 -210 q 401 -253 379 -243 q 449 -262 424 -262 l 801 -262 q 849 -253 826 -262 q 888 -226 871 -243 q 914 -187 904 -210 q 924 -139 924 -164 m 758 -104 l 492 -104 l 492 -4 l 758 -4 l 758 -104 z "},"굣":{"ha":1250,"x_min":56,"x_max":1194,"o":"m 381 514 l 56 514 l 56 356 l 1194 356 l 1194 514 l 803 514 l 803 593 l 924 593 l 924 1057 l 313 1057 l 313 899 l 758 899 l 758 731 l 638 731 l 638 514 l 546 514 l 546 731 l 381 731 l 381 514 m 1000 -167 l 625 278 l 250 -167 l 379 -268 l 625 26 l 871 -268 l 1000 -167 z "},"구":{"ha":1250,"x_min":56,"x_max":1194,"o":"m 707 1 l 707 386 l 1194 386 l 1194 544 l 924 544 l 924 1057 l 313 1057 l 313 899 l 758 899 l 758 544 l 56 544 l 56 386 l 543 386 l 543 1 l 707 1 z "},"국":{"ha":1250,"x_min":56,"x_max":1194,"o":"m 924 -249 l 924 215 l 707 215 l 707 450 l 1194 450 l 1194 610 l 924 610 l 924 1057 l 313 1057 l 313 899 l 758 899 l 758 610 l 56 610 l 56 450 l 543 450 l 543 215 l 313 215 l 313 57 l 758 57 l 758 -249 l 924 -249 z "},"군":{"ha":1250,"x_min":56,"x_max":1194,"o":"m 749 104 l 749 410 l 1194 410 l 1194 568 l 924 568 l 924 1057 l 313 1057 l 313 899 l 758 899 l 758 568 l 56 568 l 56 410 l 583 410 l 583 104 l 749 104 m 938 -249 l 938 -90 l 492 -90 l 492 175 l 326 175 l 326 -125 q 336 -173 326 -150 q 363 -212 346 -196 q 401 -239 379 -229 q 449 -249 424 -249 l 938 -249 z "},"굳":{"ha":1250,"x_min":56,"x_max":1194,"o":"m 938 -249 l 938 -90 l 492 -90 l 492 83 l 924 83 l 924 243 l 707 243 l 707 450 l 1194 450 l 1194 610 l 924 610 l 924 1057 l 313 1057 l 313 899 l 758 899 l 758 610 l 56 610 l 56 450 l 543 450 l 543 243 l 326 243 l 326 -125 q 336 -173 326 -150 q 363 -212 346 -196 q 401 -239 379 -229 q 449 -249 424 -249 l 938 -249 z "},"굴":{"ha":1250,"x_min":56,"x_max":1194,"o":"m 938 -276 l 938 -125 l 492 -125 l 492 -57 l 924 -57 l 924 310 l 707 310 l 707 464 l 1194 464 l 1194 622 l 924 622 l 924 1057 l 313 1057 l 313 899 l 758 899 l 758 622 l 56 622 l 56 464 l 543 464 l 543 310 l 326 310 l 326 158 l 758 158 l 758 92 l 326 92 l 326 -153 q 336 -201 326 -178 q 363 -240 346 -224 q 401 -267 379 -257 q 449 -276 424 -276 l 938 -276 z "},"굵":{"ha":1250,"x_min":56,"x_max":1194,"o":"m 660 -276 l 660 -125 l 417 -125 l 417 -57 l 646 -57 l 646 151 l 833 151 l 833 -276 l 999 -276 l 999 310 l 707 310 l 707 464 l 1194 464 l 1194 622 l 924 622 l 924 1057 l 313 1057 l 313 899 l 758 899 l 758 622 l 56 622 l 56 464 l 543 464 l 543 310 l 251 310 l 251 158 l 482 158 l 482 92 l 251 92 l 251 -153 q 288 -240 251 -204 q 375 -276 324 -276 l 660 -276 z "},"굶":{"ha":1250,"x_min":56,"x_max":1194,"o":"m 606 -276 l 606 -125 l 389 -125 l 389 -57 l 592 -57 l 592 199 l 631 199 l 631 -153 q 667 -240 631 -204 q 754 -276 703 -276 l 903 -276 q 990 -240 954 -276 q 1025 -153 1025 -204 l 1025 310 l 707 310 l 707 464 l 1194 464 l 1194 622 l 924 622 l 924 1057 l 313 1057 l 313 899 l 758 899 l 758 622 l 56 622 l 56 464 l 543 464 l 543 310 l 225 310 l 225 158 l 428 158 l 428 92 l 225 92 l 225 -153 q 260 -240 225 -204 q 347 -276 296 -276 l 606 -276 m 861 -118 l 796 -118 l 796 151 l 861 151 l 861 -118 z "},"굻":{"ha":1250,"x_min":56,"x_max":1194,"o":"m 918 263 l 918 351 l 753 351 l 753 263 l 707 263 l 707 464 l 1194 464 l 1194 622 l 924 622 l 924 1057 l 313 1057 l 313 899 l 758 899 l 758 622 l 56 622 l 56 464 l 543 464 l 543 324 l 218 324 l 218 172 l 421 172 l 421 106 l 218 106 l 218 -139 q 253 -226 218 -190 q 340 -262 289 -262 l 599 -262 l 599 -111 l 382 -111 l 382 -43 l 585 -43 l 585 104 l 639 104 q 613 -15 613 49 q 630 -115 613 -68 q 678 -198 647 -162 q 749 -255 708 -233 q 835 -276 789 -276 q 922 -255 881 -276 q 992 -198 963 -233 q 1040 -115 1022 -162 q 1057 -15 1057 -68 q 1050 47 1057 17 q 1032 104 1043 78 l 1100 104 l 1100 263 l 918 263 m 892 -15 q 872 -92 892 -64 q 835 -121 853 -121 q 798 -92 818 -121 q 778 -15 778 -64 q 798 61 778 33 q 835 89 818 89 q 872 61 853 89 q 892 -15 892 33 z "},"굼":{"ha":1250,"x_min":56,"x_max":1194,"o":"m 924 -125 l 924 243 l 707 243 l 707 450 l 1194 450 l 1194 610 l 924 610 l 924 1057 l 313 1057 l 313 899 l 758 899 l 758 610 l 56 610 l 56 450 l 543 450 l 543 243 l 326 243 l 326 -125 q 336 -173 326 -150 q 363 -212 346 -196 q 401 -239 379 -229 q 449 -249 424 -249 l 801 -249 q 849 -239 826 -249 q 888 -212 871 -229 q 914 -173 904 -196 q 924 -125 924 -150 m 758 -90 l 492 -90 l 492 83 l 758 83 l 758 -90 z "},"굽":{"ha":1250,"x_min":56,"x_max":1194,"o":"m 707 213 l 707 450 l 1194 450 l 1194 608 l 924 608 l 924 1057 l 313 1057 l 313 899 l 758 899 l 758 608 l 56 608 l 56 450 l 543 450 l 543 213 l 707 213 m 924 -139 l 924 276 l 758 276 l 758 154 l 492 154 l 492 276 l 326 276 l 326 -139 q 336 -187 326 -164 q 363 -226 346 -210 q 401 -253 379 -243 q 449 -262 424 -262 l 801 -262 q 849 -253 826 -262 q 888 -226 871 -243 q 914 -187 904 -210 q 924 -139 924 -164 m 758 -104 l 492 -104 l 492 -4 l 758 -4 l 758 -104 z "},"굿":{"ha":1250,"x_min":56,"x_max":1194,"o":"m 1000 -167 l 707 179 l 707 450 l 1194 450 l 1194 608 l 924 608 l 924 1057 l 313 1057 l 313 899 l 758 899 l 758 608 l 56 608 l 56 450 l 543 450 l 543 179 l 250 -167 l 379 -268 l 625 26 l 871 -268 l 1000 -167 z "},"궁":{"ha":1250,"x_min":56,"x_max":1194,"o":"m 910 -14 q 894 69 910 29 q 851 143 878 110 q 787 201 824 176 q 707 236 750 225 l 707 450 l 1194 450 l 1194 608 l 924 608 l 924 1057 l 313 1057 l 313 899 l 758 899 l 758 608 l 56 608 l 56 450 l 543 450 l 543 236 q 463 201 500 225 q 399 145 426 178 q 356 72 372 113 q 340 -14 340 31 q 364 -117 340 -69 q 426 -201 388 -165 q 517 -256 465 -236 q 625 -276 568 -276 q 733 -256 681 -276 q 824 -201 785 -236 q 886 -117 863 -165 q 910 -14 910 -69 m 744 -14 q 710 -90 744 -60 q 625 -121 675 -121 q 540 -90 575 -121 q 506 -14 506 -60 q 540 61 506 31 q 625 92 575 92 q 710 61 675 92 q 744 -14 744 31 z "},"궂":{"ha":1250,"x_min":56,"x_max":1194,"o":"m 992 -156 l 756 83 l 924 83 l 924 243 l 707 243 l 707 450 l 1194 450 l 1194 608 l 924 608 l 924 1057 l 313 1057 l 313 899 l 758 899 l 758 608 l 56 608 l 56 450 l 543 450 l 543 243 l 326 243 l 326 83 l 494 83 l 258 -156 l 378 -268 l 625 -14 l 872 -268 l 992 -156 z "},"궈":{"ha":1250,"x_min":42,"x_max":1056,"o":"m 1056 71 l 1056 1085 l 892 1085 l 892 401 l 649 401 l 649 246 l 892 246 l 892 71 l 1056 71 m 529 97 l 529 468 l 813 468 l 813 626 l 746 626 l 746 1058 l 217 1058 l 217 900 l 581 900 l 581 626 l 42 626 l 42 468 l 365 468 l 365 97 l 529 97 z "},"궉":{"ha":1250,"x_min":42,"x_max":1056,"o":"m 529 240 l 529 492 l 813 492 l 813 650 l 746 650 l 746 1057 l 217 1057 l 217 899 l 581 899 l 581 650 l 42 650 l 42 492 l 365 492 l 365 240 l 529 240 m 1056 -249 l 1056 240 l 1056 1085 l 892 1085 l 892 438 l 649 438 l 649 281 l 892 281 l 892 203 l 446 203 l 446 43 l 892 43 l 892 -249 l 1056 -249 z "},"권":{"ha":1250,"x_min":42,"x_max":1069,"o":"m 1056 118 l 1056 1085 l 892 1085 l 892 410 l 649 410 l 649 254 l 892 254 l 892 118 l 1056 118 m 531 213 l 531 464 l 813 464 l 813 624 l 746 624 l 746 1057 l 217 1057 l 217 899 l 581 899 l 581 624 l 42 624 l 42 464 l 365 464 l 365 213 l 531 213 m 1069 -249 l 1069 -90 l 625 -90 l 625 175 l 460 175 l 460 -125 q 469 -173 460 -150 q 496 -212 479 -196 q 535 -239 513 -229 q 582 -249 557 -249 l 1069 -249 z "},"궐":{"ha":1250,"x_min":42,"x_max":1069,"o":"m 1069 -276 l 1069 -124 l 625 -124 l 625 -76 l 1056 -76 l 1056 269 l 1056 1085 l 892 1085 l 892 464 l 649 464 l 649 308 l 892 308 l 892 269 l 531 269 l 531 504 l 813 504 l 813 664 l 746 664 l 746 1057 l 217 1057 l 217 899 l 581 899 l 581 664 l 42 664 l 42 504 l 365 504 l 365 267 l 460 267 l 460 118 l 892 118 l 892 71 l 460 71 l 460 -153 q 469 -201 460 -178 q 496 -240 479 -224 q 535 -267 513 -257 q 582 -276 557 -276 l 1069 -276 z "},"궜":{"ha":1250,"x_min":42,"x_max":1104,"o":"m 531 240 l 531 492 l 814 492 l 814 650 l 746 650 l 746 1057 l 217 1057 l 217 899 l 582 899 l 582 650 l 42 650 l 42 492 l 365 492 l 365 240 l 531 240 m 1104 -217 l 925 118 l 1057 118 l 1057 1085 l 892 1085 l 892 436 l 649 436 l 649 281 l 892 281 l 892 179 l 860 239 l 692 -7 l 524 239 l 279 -217 l 425 -281 l 540 -61 l 690 -274 l 843 -61 l 958 -281 l 1104 -217 z "},"궝":{"ha":1250,"x_min":42,"x_max":1056,"o":"m 1056 -21 l 1056 1085 l 892 1085 l 892 450 l 649 450 l 649 294 l 892 294 l 892 213 q 781 235 842 235 q 675 215 725 235 q 588 160 625 194 q 528 80 550 126 q 506 -21 506 33 q 528 -120 506 -74 q 588 -201 550 -167 q 675 -256 625 -236 q 781 -276 725 -276 q 886 -256 836 -276 q 974 -201 936 -236 q 1033 -120 1011 -167 q 1056 -21 1056 -74 m 892 -21 q 859 -92 892 -62 q 781 -121 826 -121 q 702 -92 735 -121 q 669 -21 669 -62 q 702 49 669 21 q 781 78 735 78 q 859 49 826 78 q 892 -21 892 21 m 529 240 l 529 492 l 813 492 l 813 650 l 746 650 l 746 1057 l 217 1057 l 217 899 l 581 899 l 581 650 l 42 650 l 42 492 l 365 492 l 365 240 l 529 240 z "},"궤":{"ha":1250,"x_min":14,"x_max":1083,"o":"m 1083 71 l 1083 1085 l 918 1085 l 918 71 l 1083 71 m 867 232 l 918 1085 l 706 1085 l 706 388 l 486 388 l 486 232 l 867 232 m 435 97 l 435 468 l 651 468 l 651 626 l 597 626 l 597 1058 l 149 1058 l 149 900 l 432 900 l 432 626 l 14 626 l 14 468 l 271 468 l 271 97 l 435 97 z "},"궷":{"ha":1250,"x_min":14,"x_max":1133,"o":"m 1085 118 l 1085 1085 l 919 1085 l 919 118 l 1085 118 m 868 254 l 919 1085 l 706 1085 l 706 410 l 488 410 l 488 254 l 868 254 m 436 240 l 436 492 l 651 492 l 651 650 l 597 650 l 597 1057 l 149 1057 l 149 899 l 433 899 l 433 650 l 14 650 l 14 492 l 271 492 l 271 240 l 436 240 m 1133 -167 l 758 240 l 383 -167 l 513 -268 l 758 1 l 1004 -268 l 1133 -167 z "},"귀":{"ha":1250,"x_min":42,"x_max":1056,"o":"m 529 97 l 529 442 l 892 442 l 892 71 l 1056 71 l 1056 1085 l 892 1085 l 892 600 l 746 600 l 746 1058 l 217 1058 l 217 900 l 581 900 l 581 600 l 42 600 l 42 442 l 365 442 l 365 97 l 529 97 z "},"귁":{"ha":1250,"x_min":42,"x_max":1056,"o":"m 1056 -249 l 1056 203 l 1056 1085 l 892 1085 l 892 610 l 746 610 l 746 1057 l 217 1057 l 217 899 l 581 899 l 581 610 l 42 610 l 42 450 l 365 450 l 365 240 l 529 240 l 529 450 l 892 450 l 892 203 l 446 203 l 446 43 l 892 43 l 892 -249 l 1056 -249 z "},"귄":{"ha":1250,"x_min":42,"x_max":1069,"o":"m 531 213 l 531 424 l 892 424 l 892 118 l 1056 118 l 1056 1085 l 892 1085 l 892 582 l 746 582 l 746 1057 l 217 1057 l 217 899 l 581 899 l 581 582 l 42 582 l 42 424 l 365 424 l 365 213 l 531 213 m 1069 -249 l 1069 -90 l 625 -90 l 625 175 l 460 175 l 460 -125 q 469 -173 460 -150 q 496 -212 479 -196 q 535 -239 513 -229 q 582 -249 557 -249 l 1069 -249 z "},"귈":{"ha":1250,"x_min":42,"x_max":1069,"o":"m 531 269 l 531 478 l 892 478 l 892 269 l 531 269 m 1069 -276 l 1069 -124 l 625 -124 l 625 -76 l 1056 -76 l 1056 269 l 1056 1085 l 892 1085 l 892 636 l 746 636 l 746 1057 l 217 1057 l 217 899 l 581 899 l 581 636 l 42 636 l 42 478 l 365 478 l 365 267 l 460 267 l 460 118 l 892 118 l 892 71 l 460 71 l 460 -153 q 469 -201 460 -178 q 496 -240 479 -224 q 535 -267 513 -257 q 582 -276 557 -276 l 1069 -276 z "},"귐":{"ha":1250,"x_min":42,"x_max":1056,"o":"m 1056 -125 l 1056 229 l 1056 1085 l 892 1085 l 892 624 l 746 624 l 746 1057 l 217 1057 l 217 899 l 581 899 l 581 624 l 42 624 l 42 464 l 365 464 l 365 254 l 529 254 l 529 464 l 892 464 l 892 229 l 460 229 l 460 -125 q 469 -173 460 -150 q 496 -212 479 -196 q 535 -239 513 -229 q 582 -249 557 -249 l 933 -249 q 981 -239 958 -249 q 1019 -212 1003 -229 q 1046 -173 1036 -196 q 1056 -125 1056 -150 m 892 -90 l 624 -90 l 624 71 l 892 71 l 892 -90 z "},"귑":{"ha":1250,"x_min":42,"x_max":1056,"o":"m 1056 -139 l 1056 250 l 1056 1085 l 892 1085 l 892 636 l 746 636 l 746 1057 l 217 1057 l 217 899 l 581 899 l 581 636 l 42 636 l 42 478 l 365 478 l 365 267 l 529 267 l 529 478 l 892 478 l 892 140 l 624 140 l 624 250 l 460 250 l 460 -139 q 469 -187 460 -164 q 496 -226 479 -210 q 535 -253 513 -243 q 582 -262 557 -262 l 933 -262 q 981 -253 958 -262 q 1019 -226 1003 -243 q 1046 -187 1036 -210 q 1056 -139 1056 -164 m 892 -104 l 624 -104 l 624 -18 l 892 -18 l 892 -104 z "},"귓":{"ha":1250,"x_min":42,"x_max":1106,"o":"m 531 172 l 531 450 l 892 450 l 892 118 l 1057 118 l 1057 1085 l 892 1085 l 892 610 l 746 610 l 746 1057 l 217 1057 l 217 899 l 582 899 l 582 610 l 42 610 l 42 450 l 365 450 l 365 172 l 531 172 m 1106 -167 l 732 236 l 357 -167 l 486 -268 l 732 1 l 976 -268 l 1106 -167 z "},"규":{"ha":1250,"x_min":56,"x_max":1194,"o":"m 558 1 l 558 386 l 692 386 l 692 1 l 857 1 l 857 386 l 1194 386 l 1194 544 l 924 544 l 924 1057 l 313 1057 l 313 899 l 758 899 l 758 544 l 56 544 l 56 386 l 393 386 l 393 1 l 558 1 z "},"균":{"ha":1250,"x_min":56,"x_max":1194,"o":"m 938 -249 l 938 -90 l 492 -90 l 492 104 l 613 104 l 613 410 l 718 410 l 718 104 l 883 104 l 883 410 l 1194 410 l 1194 568 l 924 568 l 924 1057 l 313 1057 l 313 899 l 758 899 l 758 568 l 56 568 l 56 410 l 447 410 l 447 175 l 326 175 l 326 -125 q 336 -173 326 -150 q 363 -212 346 -196 q 401 -239 379 -229 q 449 -249 424 -249 l 938 -249 z "},"귤":{"ha":1250,"x_min":56,"x_max":1194,"o":"m 572 310 l 572 464 l 678 464 l 678 310 l 572 310 m 938 -276 l 938 -125 l 492 -125 l 492 -57 l 924 -57 l 924 310 l 843 310 l 843 464 l 1194 464 l 1194 622 l 924 622 l 924 1057 l 313 1057 l 313 899 l 758 899 l 758 622 l 56 622 l 56 464 l 407 464 l 407 310 l 326 310 l 326 158 l 758 158 l 758 92 l 326 92 l 326 -153 q 336 -201 326 -178 q 363 -240 346 -224 q 401 -267 379 -257 q 449 -276 424 -276 l 938 -276 z "},"그":{"ha":1250,"x_min":56,"x_max":1194,"o":"m 1194 217 l 1194 374 l 924 374 l 924 1057 l 313 1057 l 313 900 l 758 900 l 758 374 l 56 374 l 56 217 l 1194 217 z "},"극":{"ha":1250,"x_min":56,"x_max":1194,"o":"m 1194 410 l 1194 568 l 924 568 l 924 1057 l 313 1057 l 313 899 l 758 899 l 758 568 l 56 568 l 56 410 l 1194 410 m 924 -249 l 924 229 l 313 229 l 313 71 l 758 71 l 758 -249 l 924 -249 z "},"근":{"ha":1250,"x_min":56,"x_max":1194,"o":"m 1194 369 l 1194 528 l 924 528 l 924 1057 l 313 1057 l 313 899 l 758 899 l 758 528 l 56 528 l 56 369 l 1194 369 m 938 -249 l 938 -90 l 492 -90 l 492 189 l 326 189 l 326 -125 q 336 -173 326 -150 q 363 -212 346 -196 q 401 -239 379 -229 q 449 -249 424 -249 l 938 -249 z "},"귿":{"ha":1250,"x_min":56,"x_max":1194,"o":"m 1194 410 l 1194 568 l 924 568 l 924 1057 l 313 1057 l 313 899 l 758 899 l 758 568 l 56 568 l 56 410 l 1194 410 m 938 -249 l 938 -90 l 492 -90 l 492 97 l 924 97 l 924 256 l 326 256 l 326 -125 q 336 -173 326 -150 q 363 -212 346 -196 q 401 -239 379 -229 q 449 -249 424 -249 l 938 -249 z "},"글":{"ha":1250,"x_min":56,"x_max":1194,"o":"m 1194 436 l 1194 596 l 924 596 l 924 1057 l 313 1057 l 313 899 l 758 899 l 758 596 l 56 596 l 56 436 l 1194 436 m 938 -276 l 938 -125 l 492 -125 l 492 -50 l 924 -50 l 924 324 l 326 324 l 326 172 l 758 172 l 758 99 l 326 99 l 326 -153 q 336 -201 326 -178 q 363 -240 346 -224 q 401 -267 379 -257 q 449 -276 424 -276 l 938 -276 z "},"긁":{"ha":1250,"x_min":56,"x_max":1194,"o":"m 1194 436 l 1194 596 l 924 596 l 924 1057 l 313 1057 l 313 899 l 758 899 l 758 596 l 56 596 l 56 436 l 1194 436 m 660 -276 l 660 -125 l 417 -125 l 417 -50 l 646 -50 l 646 165 l 833 165 l 833 -276 l 999 -276 l 999 324 l 590 324 l 251 324 l 251 172 l 482 172 l 482 99 l 251 99 l 251 -153 q 288 -240 251 -204 q 375 -276 324 -276 l 660 -276 z "},"금":{"ha":1250,"x_min":56,"x_max":1194,"o":"m 1194 424 l 1194 582 l 924 582 l 924 1057 l 313 1057 l 313 899 l 758 899 l 758 582 l 56 582 l 56 424 l 1194 424 m 924 -125 l 924 256 l 326 256 l 326 -125 q 336 -173 326 -150 q 363 -212 346 -196 q 401 -239 379 -229 q 449 -249 424 -249 l 801 -249 q 849 -239 826 -249 q 888 -212 871 -229 q 914 -173 904 -196 q 924 -125 924 -150 m 758 -90 l 492 -90 l 492 97 l 758 97 l 758 -90 z "},"급":{"ha":1250,"x_min":56,"x_max":1194,"o":"m 1194 424 l 1194 582 l 924 582 l 924 1057 l 313 1057 l 313 899 l 758 899 l 758 582 l 56 582 l 56 424 l 1194 424 m 924 -139 l 924 276 l 758 276 l 758 154 l 492 154 l 492 276 l 326 276 l 326 -139 q 336 -187 326 -164 q 363 -226 346 -210 q 401 -253 379 -243 q 449 -262 424 -262 l 801 -262 q 849 -253 826 -262 q 888 -226 871 -243 q 914 -187 904 -210 q 924 -139 924 -164 m 758 -104 l 492 -104 l 492 -4 l 758 -4 l 758 -104 z "},"긋":{"ha":1250,"x_min":56,"x_max":1194,"o":"m 1194 396 l 1194 554 l 924 554 l 924 1057 l 313 1057 l 313 899 l 758 899 l 758 554 l 56 554 l 56 396 l 1194 396 m 1000 -167 l 625 278 l 250 -167 l 379 -268 l 625 26 l 871 -268 l 1000 -167 z "},"긍":{"ha":1250,"x_min":56,"x_max":1194,"o":"m 1194 396 l 1194 554 l 924 554 l 924 1057 l 313 1057 l 313 899 l 758 899 l 758 554 l 56 554 l 56 396 l 1194 396 m 910 -14 q 886 88 910 40 q 824 170 863 135 q 733 226 785 206 q 625 247 681 247 q 517 226 568 247 q 426 170 465 206 q 363 88 386 135 q 340 -14 340 40 q 364 -117 340 -69 q 426 -201 388 -165 q 517 -256 465 -236 q 625 -276 568 -276 q 733 -256 681 -276 q 824 -201 785 -236 q 886 -117 863 -165 q 910 -14 910 -69 m 744 -14 q 710 -90 744 -60 q 625 -121 675 -121 q 540 -90 575 -121 q 506 -14 506 -60 q 540 61 506 31 q 625 92 575 92 q 710 61 675 92 q 744 -14 744 31 z "},"긔":{"ha":1250,"x_min":42,"x_max":1056,"o":"m 892 279 l 892 71 l 1056 71 l 1056 1085 l 892 1085 l 892 438 l 746 438 l 746 1058 l 217 1058 l 217 900 l 581 900 l 581 438 l 42 438 l 42 279 l 892 279 z "},"기":{"ha":1250,"x_min":153,"x_max":1014,"o":"m 1014 71 l 1014 1085 l 850 1085 l 850 71 l 1014 71 m 715 975 l 603 1058 l 153 1058 l 153 900 l 469 900 l 163 457 l 294 368 l 715 975 z "},"긱":{"ha":1250,"x_min":153,"x_max":1014,"o":"m 713 956 l 610 1057 l 153 1057 l 153 899 l 458 899 l 165 546 l 290 444 l 713 956 m 1014 -249 l 1014 283 l 1014 1085 l 850 1085 l 850 283 l 407 283 l 407 125 l 850 125 l 850 -249 l 1014 -249 z "},"긴":{"ha":1250,"x_min":153,"x_max":1028,"o":"m 1014 200 l 1014 1085 l 850 1085 l 850 200 l 1014 200 m 713 956 l 610 1057 l 153 1057 l 153 899 l 458 899 l 165 546 l 290 444 l 713 956 m 1028 -249 l 1028 -90 l 585 -90 l 585 229 l 421 229 l 421 -125 q 431 -173 421 -150 q 457 -212 440 -196 q 496 -239 474 -229 q 543 -249 518 -249 l 1028 -249 z "},"긷":{"ha":1250,"x_min":153,"x_max":1028,"o":"m 713 956 l 610 1057 l 153 1057 l 153 899 l 458 899 l 165 546 l 290 444 l 713 956 m 1028 -249 l 1028 -90 l 585 -90 l 585 125 l 1014 125 l 1014 283 l 1014 1085 l 850 1085 l 850 283 l 421 283 l 421 -125 q 431 -173 421 -150 q 457 -212 440 -196 q 496 -239 474 -229 q 543 -249 518 -249 l 1028 -249 z "},"길":{"ha":1250,"x_min":153,"x_max":1028,"o":"m 713 956 l 610 1057 l 153 1057 l 153 899 l 458 899 l 165 546 l 290 444 l 713 956 m 1028 -276 l 1028 -124 l 585 -124 l 585 -62 l 1014 -62 l 1014 297 l 1014 1085 l 850 1085 l 850 297 l 421 297 l 421 144 l 850 144 l 850 85 l 421 85 l 421 -153 q 431 -201 421 -178 q 457 -240 440 -224 q 496 -267 474 -257 q 543 -276 518 -276 l 1028 -276 z "},"긺":{"ha":1250,"x_min":153,"x_max":1014,"o":"m 713 956 l 610 1057 l 153 1057 l 153 899 l 458 899 l 165 546 l 290 444 l 713 956 m 1014 -139 l 1014 297 l 1014 1085 l 850 1085 l 850 297 l 622 297 l 622 -139 q 632 -187 622 -164 q 658 -226 642 -210 q 697 -253 675 -243 q 744 -262 719 -262 l 892 -262 q 939 -253 917 -262 q 978 -226 961 -243 q 1004 -187 994 -210 q 1014 -139 1014 -164 m 850 -104 l 786 -104 l 786 138 l 850 138 l 850 -104 m 597 -262 l 597 -110 l 383 -110 l 383 -56 l 585 -56 l 585 297 l 219 297 l 219 144 l 421 144 l 421 92 l 219 92 l 219 -139 q 255 -226 219 -190 q 342 -262 290 -262 l 597 -262 z "},"김":{"ha":1250,"x_min":153,"x_max":1014,"o":"m 713 956 l 610 1057 l 153 1057 l 153 899 l 458 899 l 165 546 l 290 444 l 713 956 m 1014 -125 l 1014 283 l 1014 1085 l 850 1085 l 850 283 l 421 283 l 421 -125 q 431 -173 421 -150 q 457 -212 440 -196 q 496 -239 474 -229 q 543 -249 518 -249 l 892 -249 q 939 -239 917 -249 q 978 -212 961 -229 q 1004 -173 994 -196 q 1014 -125 1014 -150 m 850 -90 l 585 -90 l 585 125 l 850 125 l 850 -90 z "},"깁":{"ha":1250,"x_min":153,"x_max":1014,"o":"m 713 956 l 610 1057 l 153 1057 l 153 899 l 458 899 l 165 546 l 290 444 l 713 956 m 1014 -132 l 1014 283 l 1014 1085 l 850 1085 l 850 200 l 850 161 l 585 161 l 585 283 l 421 283 l 421 -132 q 431 -180 421 -157 q 457 -219 440 -203 q 496 -246 474 -236 q 543 -256 518 -256 l 892 -256 q 939 -246 917 -256 q 978 -219 961 -236 q 1004 -180 994 -203 q 1014 -132 1014 -157 m 850 -97 l 585 -97 l 585 3 l 850 3 l 850 -97 z "},"깃":{"ha":1250,"x_min":153,"x_max":1064,"o":"m 1015 199 l 1015 1085 l 851 1085 l 851 199 l 1015 199 m 713 956 l 610 1057 l 153 1057 l 153 899 l 458 899 l 165 546 l 290 444 l 713 956 m 1064 -167 l 692 278 l 319 -167 l 447 -268 l 692 26 l 935 -268 l 1064 -167 z "},"깅":{"ha":1250,"x_min":153,"x_max":1014,"o":"m 713 956 l 610 1057 l 153 1057 l 153 899 l 458 899 l 165 546 l 290 444 l 713 956 m 1014 -1 l 1014 1085 l 850 1085 l 850 247 q 732 272 797 272 q 624 251 675 272 q 535 192 574 229 q 473 106 496 156 q 450 -1 450 56 q 473 -108 450 -58 q 534 -196 496 -158 q 624 -255 572 -233 q 732 -276 675 -276 q 840 -255 789 -276 q 930 -196 892 -233 q 991 -108 968 -158 q 1014 -1 1014 -58 m 850 -1 q 815 -87 850 -54 q 732 -121 781 -121 q 649 -87 683 -121 q 614 -1 614 -54 q 649 84 614 51 q 732 117 683 117 q 815 84 781 117 q 850 -1 850 51 z "},"깆":{"ha":1250,"x_min":153,"x_max":1082,"o":"m 713 956 l 610 1057 l 153 1057 l 153 899 l 458 899 l 165 546 l 290 444 l 713 956 m 1082 -167 l 843 125 l 1015 125 l 1015 283 l 1015 1085 l 851 1085 l 851 283 l 422 283 l 422 125 l 594 125 l 356 -167 l 481 -268 l 719 24 l 957 -268 l 1082 -167 z "},"깊":{"ha":1250,"x_min":153,"x_max":1021,"o":"m 713 956 l 610 1057 l 153 1057 l 153 899 l 458 899 l 165 546 l 290 444 l 713 956 m 625 -90 l 625 125 l 757 125 l 757 -90 l 625 -90 m 1021 -249 l 1021 -90 l 921 -90 l 921 125 l 1014 125 l 1014 283 l 1014 1085 l 850 1085 l 850 283 l 368 283 l 368 125 l 461 125 l 461 -90 l 361 -90 l 361 -249 l 1021 -249 z "},"까":{"ha":1250,"x_min":128,"x_max":1208,"o":"m 1208 664 l 1208 822 l 1033 822 l 1033 1085 l 868 1085 l 868 71 l 1033 71 l 1033 664 l 1208 664 m 489 900 l 585 900 l 386 475 l 533 411 l 801 992 l 696 1058 l 354 1058 l 139 1058 l 139 900 l 314 900 l 128 500 l 275 436 l 489 900 z "},"깍":{"ha":1250,"x_min":125,"x_max":1208,"o":"m 486 899 l 575 899 l 382 539 l 526 468 l 807 993 l 693 1057 l 354 1057 l 139 1057 l 139 899 l 304 899 l 125 563 l 268 490 l 486 899 m 1033 -249 l 1033 283 l 1033 701 l 1208 701 l 1208 861 l 1033 861 l 1033 1085 l 868 1085 l 868 283 l 422 283 l 422 125 l 868 125 l 868 -249 l 1033 -249 z "},"깎":{"ha":1250,"x_min":125,"x_max":1208,"o":"m 486 899 l 575 899 l 382 539 l 526 468 l 807 993 l 693 1057 l 354 1057 l 139 1057 l 139 899 l 304 899 l 125 563 l 268 490 l 486 899 m 1033 -249 l 1033 283 l 1033 701 l 1208 701 l 1208 861 l 1033 861 l 1033 1085 l 868 1085 l 868 283 l 313 283 l 313 125 l 515 125 l 515 -249 l 681 -249 l 681 125 l 868 125 l 868 -249 l 1033 -249 z "},"깐":{"ha":1250,"x_min":125,"x_max":1208,"o":"m 1208 701 l 1208 861 l 1033 861 l 1033 1085 l 868 1085 l 868 200 l 1033 200 l 1033 701 l 1208 701 m 486 899 l 575 899 l 382 539 l 526 468 l 807 993 l 693 1057 l 354 1057 l 139 1057 l 139 899 l 304 899 l 125 563 l 268 490 l 486 899 m 1046 -249 l 1046 -90 l 600 -90 l 600 229 l 435 229 l 435 -125 q 471 -212 435 -176 q 558 -249 507 -249 l 1046 -249 z "},"깔":{"ha":1250,"x_min":125,"x_max":1208,"o":"m 486 899 l 575 899 l 382 539 l 526 468 l 807 993 l 693 1057 l 354 1057 l 139 1057 l 139 899 l 304 899 l 125 563 l 268 490 l 486 899 m 1046 -276 l 1046 -124 l 600 -124 l 600 -62 l 1033 -62 l 1033 297 l 1033 701 l 1208 701 l 1208 861 l 1033 861 l 1033 1085 l 868 1085 l 868 297 l 435 297 l 435 144 l 868 144 l 868 85 l 435 85 l 435 -153 q 471 -240 435 -204 q 558 -276 507 -276 l 1046 -276 z "},"깖":{"ha":1250,"x_min":125,"x_max":1208,"o":"m 486 899 l 575 899 l 382 539 l 526 468 l 807 993 l 693 1057 l 354 1057 l 139 1057 l 139 899 l 304 899 l 125 563 l 268 490 l 486 899 m 1033 -139 l 1033 297 l 1033 701 l 1208 701 l 1208 861 l 1033 861 l 1033 1085 l 868 1085 l 868 297 l 638 297 l 638 -139 q 674 -226 638 -190 q 761 -262 710 -262 l 910 -262 q 997 -226 961 -262 q 1033 -139 1033 -190 m 868 -104 l 803 -104 l 803 138 l 868 138 l 868 -104 m 614 -262 l 614 -110 l 397 -110 l 397 -56 l 600 -56 l 600 297 l 232 297 l 232 144 l 435 144 l 435 92 l 232 92 l 232 -139 q 268 -226 232 -190 q 356 -262 304 -262 l 614 -262 z "},"깜":{"ha":1250,"x_min":125,"x_max":1208,"o":"m 486 899 l 575 899 l 382 539 l 526 468 l 807 993 l 693 1057 l 354 1057 l 139 1057 l 139 899 l 304 899 l 125 563 l 268 490 l 486 899 m 1033 -125 l 1033 283 l 1033 701 l 1208 701 l 1208 861 l 1033 861 l 1033 1085 l 868 1085 l 868 283 l 435 283 l 435 -125 q 471 -212 435 -176 q 558 -249 507 -249 l 910 -249 q 997 -212 961 -249 q 1033 -125 1033 -176 m 868 -90 l 600 -90 l 600 125 l 868 125 l 868 -90 z "},"깝":{"ha":1250,"x_min":125,"x_max":1208,"o":"m 486 899 l 575 899 l 382 539 l 526 468 l 807 993 l 693 1057 l 354 1057 l 139 1057 l 139 899 l 304 899 l 125 563 l 268 490 l 486 899 m 1033 -132 l 1033 283 l 1033 701 l 1208 701 l 1208 861 l 1033 861 l 1033 1085 l 868 1085 l 868 200 l 868 161 l 600 161 l 600 283 l 435 283 l 435 -132 q 471 -219 435 -183 q 558 -256 507 -256 l 910 -256 q 997 -219 961 -256 q 1033 -132 1033 -183 m 868 -97 l 600 -97 l 600 3 l 868 3 l 868 -97 z "},"깟":{"ha":1250,"x_min":125,"x_max":1208,"o":"m 1208 701 l 1208 861 l 1033 861 l 1033 1085 l 868 1085 l 868 199 l 1033 199 l 1033 701 l 1208 701 m 486 899 l 575 899 l 382 539 l 526 468 l 807 993 l 693 1057 l 354 1057 l 139 1057 l 139 899 l 304 899 l 125 563 l 268 490 l 486 899 m 1081 -167 l 707 278 l 333 -167 l 463 -268 l 707 26 l 953 -268 l 1081 -167 z "},"깠":{"ha":1250,"x_min":125,"x_max":1208,"o":"m 486 899 l 575 899 l 382 539 l 526 468 l 807 993 l 693 1057 l 354 1057 l 139 1057 l 139 899 l 304 899 l 125 563 l 268 490 l 486 899 m 1081 -203 l 883 199 l 1033 199 l 1033 701 l 1208 701 l 1208 861 l 1033 861 l 1033 1085 l 868 1085 l 868 231 l 835 300 l 667 22 l 500 300 l 254 -203 l 400 -267 l 515 -31 l 667 -261 l 818 -31 l 933 -267 l 1081 -203 z "},"깡":{"ha":1250,"x_min":125,"x_max":1208,"o":"m 1208 701 l 1208 861 l 1033 861 l 1033 1085 l 868 1085 l 868 247 q 749 272 815 272 q 642 251 693 272 q 551 194 590 231 q 489 107 513 157 q 465 -1 465 57 q 488 -108 465 -58 q 551 -196 511 -158 q 641 -255 590 -233 q 749 -276 692 -276 q 858 -255 807 -276 q 949 -196 910 -233 q 1010 -108 988 -158 q 1033 -1 1033 -58 l 1033 701 l 1208 701 m 868 -1 q 833 -87 868 -54 q 749 -121 797 -121 q 665 -87 700 -121 q 631 -1 631 -54 q 665 84 631 51 q 749 117 700 117 q 833 84 797 117 q 868 -1 868 51 m 486 899 l 575 899 l 382 539 l 526 468 l 807 993 l 693 1057 l 354 1057 l 139 1057 l 139 899 l 304 899 l 125 563 l 268 490 l 486 899 z "},"깥":{"ha":1250,"x_min":125,"x_max":1208,"o":"m 486 899 l 575 899 l 382 539 l 526 468 l 807 993 l 693 1057 l 354 1057 l 139 1057 l 139 899 l 304 899 l 125 563 l 268 490 l 486 899 m 1033 -262 l 1033 -110 l 600 -110 l 600 -62 l 1019 -62 l 1019 85 l 600 85 l 600 132 l 1033 132 l 1033 283 l 1033 701 l 1208 701 l 1208 861 l 1033 861 l 1033 1085 l 868 1085 l 868 283 l 435 283 l 435 -139 q 471 -226 435 -190 q 558 -262 507 -262 l 1033 -262 z "},"깨":{"ha":1250,"x_min":61,"x_max":1069,"o":"m 1069 71 l 1069 1085 l 906 1085 l 906 835 l 831 835 l 831 1085 l 669 1085 l 669 71 l 831 71 l 831 678 l 906 678 l 906 71 l 1069 71 m 392 900 l 451 900 l 282 482 l 432 425 l 663 1003 l 553 1058 l 244 1058 l 83 1058 l 83 900 l 222 900 l 61 503 l 211 447 l 392 900 z "},"깩":{"ha":1250,"x_min":81,"x_max":1069,"o":"m 393 899 l 451 899 l 301 524 l 451 467 l 663 1003 l 553 1057 l 244 1057 l 83 1057 l 83 899 l 222 899 l 81 546 l 231 489 l 393 899 m 1069 -249 l 1069 283 l 1069 1085 l 906 1085 l 906 861 l 831 861 l 831 1085 l 669 1085 l 669 363 l 831 363 l 831 701 l 906 701 l 906 283 l 461 283 l 461 125 l 906 125 l 906 -249 l 1069 -249 z "},"깬":{"ha":1250,"x_min":81,"x_max":1083,"o":"m 1069 200 l 1069 1085 l 906 1085 l 906 861 l 832 861 l 832 1085 l 669 1085 l 669 200 l 832 200 l 832 701 l 906 701 l 906 200 l 1069 200 m 393 899 l 451 899 l 301 524 l 451 467 l 663 1003 l 553 1057 l 244 1057 l 83 1057 l 83 899 l 222 899 l 81 546 l 231 489 l 393 899 m 1083 -249 l 1083 -90 l 639 -90 l 639 229 l 475 229 l 475 -125 q 510 -212 475 -176 q 597 -249 546 -249 l 1083 -249 z "},"깰":{"ha":1250,"x_min":81,"x_max":1083,"o":"m 393 899 l 451 899 l 301 524 l 451 467 l 663 1003 l 553 1057 l 244 1057 l 83 1057 l 83 899 l 222 899 l 81 546 l 231 489 l 393 899 m 1083 -276 l 1083 -124 l 639 -124 l 639 -62 l 1069 -62 l 1069 297 l 1069 1085 l 906 1085 l 906 861 l 832 861 l 832 1085 l 669 1085 l 669 363 l 832 363 l 832 701 l 906 701 l 906 297 l 475 297 l 475 144 l 906 144 l 906 85 l 475 85 l 475 -153 q 510 -240 475 -204 q 597 -276 546 -276 l 1083 -276 z "},"깸":{"ha":1250,"x_min":81,"x_max":1069,"o":"m 393 899 l 451 899 l 301 524 l 451 467 l 663 1003 l 553 1057 l 244 1057 l 83 1057 l 83 899 l 222 899 l 81 546 l 231 489 l 393 899 m 1069 -125 l 1069 283 l 1069 1085 l 906 1085 l 906 861 l 831 861 l 831 1085 l 669 1085 l 669 363 l 831 363 l 831 701 l 906 701 l 906 283 l 474 283 l 474 -125 q 510 -212 474 -176 q 597 -249 546 -249 l 947 -249 q 994 -239 972 -249 q 1033 -212 1017 -229 q 1060 -173 1050 -196 q 1069 -125 1069 -150 m 906 -90 l 639 -90 l 639 125 l 906 125 l 906 -90 z "},"깹":{"ha":1250,"x_min":81,"x_max":1069,"o":"m 393 899 l 451 899 l 301 524 l 451 467 l 663 1003 l 553 1057 l 244 1057 l 83 1057 l 83 899 l 222 899 l 81 546 l 231 489 l 393 899 m 1069 -132 l 1069 283 l 1069 1085 l 906 1085 l 906 861 l 831 861 l 831 1085 l 669 1085 l 669 363 l 831 363 l 831 701 l 906 701 l 906 200 l 906 161 l 639 161 l 639 283 l 474 283 l 474 -132 q 510 -219 474 -183 q 597 -256 546 -256 l 947 -256 q 994 -246 972 -256 q 1033 -219 1017 -236 q 1060 -180 1050 -203 q 1069 -132 1069 -157 m 906 -97 l 639 -97 l 639 3 l 906 3 l 906 -97 z "},"깻":{"ha":1250,"x_min":81,"x_max":1119,"o":"m 1071 199 l 1071 1085 l 906 1085 l 906 861 l 832 861 l 832 1085 l 671 1085 l 671 363 l 832 363 l 832 701 l 906 701 l 906 199 l 1071 199 m 393 899 l 451 899 l 301 524 l 451 467 l 663 1003 l 553 1057 l 244 1057 l 83 1057 l 83 899 l 222 899 l 81 546 l 231 489 l 393 899 m 1119 -167 l 746 278 l 372 -167 l 501 -268 l 746 26 l 990 -268 l 1119 -167 z "},"깼":{"ha":1250,"x_min":81,"x_max":1118,"o":"m 393 899 l 451 899 l 301 524 l 451 467 l 663 1003 l 553 1057 l 244 1057 l 83 1057 l 83 899 l 222 899 l 81 546 l 231 489 l 393 899 m 1118 -203 l 921 199 l 1071 199 l 1071 1085 l 906 1085 l 906 861 l 832 861 l 832 1085 l 671 1085 l 671 363 l 832 363 l 832 701 l 906 701 l 906 231 l 872 300 l 706 22 l 539 300 l 294 -203 l 440 -267 l 554 -31 l 706 -261 l 857 -31 l 972 -267 l 1118 -203 z "},"깽":{"ha":1250,"x_min":81,"x_max":1069,"o":"m 1069 -1 l 1069 1085 l 906 1085 l 906 861 l 831 861 l 831 1085 l 669 1085 l 669 363 l 831 363 l 831 701 l 906 701 l 906 247 q 786 272 853 272 q 678 251 729 272 q 589 192 628 229 q 527 106 550 156 q 504 -1 504 56 q 527 -108 504 -58 q 588 -196 550 -158 q 678 -255 626 -233 q 786 -276 729 -276 q 896 -255 844 -276 q 985 -196 947 -233 q 1047 -108 1024 -158 q 1069 -1 1069 -58 m 906 -1 q 870 -87 906 -54 q 786 -121 835 -121 q 703 -87 739 -121 q 668 -1 668 -54 q 703 84 668 51 q 786 117 739 117 q 870 84 835 117 q 906 -1 906 51 m 393 899 l 451 899 l 301 524 l 451 467 l 663 1003 l 553 1057 l 244 1057 l 83 1057 l 83 899 l 222 899 l 81 546 l 231 489 l 393 899 z "},"꺄":{"ha":1250,"x_min":128,"x_max":1208,"o":"m 1208 550 l 1208 707 l 1033 707 l 1033 792 l 1208 792 l 1208 950 l 1033 950 l 1033 1085 l 868 1085 l 868 71 l 1033 71 l 1033 550 l 1208 550 m 489 900 l 585 900 l 386 475 l 533 411 l 801 992 l 696 1058 l 354 1058 l 139 1058 l 139 900 l 314 900 l 128 500 l 275 436 l 489 900 z "},"꺅":{"ha":1250,"x_min":125,"x_max":1208,"o":"m 486 899 l 575 899 l 382 539 l 526 468 l 807 993 l 693 1057 l 354 1057 l 139 1057 l 139 899 l 304 899 l 125 563 l 268 490 l 486 899 m 1033 -249 l 1033 283 l 1033 586 l 1208 586 l 1208 746 l 1033 746 l 1033 817 l 1208 817 l 1208 976 l 1033 976 l 1033 1085 l 868 1085 l 868 283 l 422 283 l 422 125 l 868 125 l 868 -249 l 1033 -249 z "},"꺌":{"ha":1250,"x_min":125,"x_max":1208,"o":"m 486 899 l 575 899 l 382 539 l 526 468 l 807 993 l 693 1057 l 354 1057 l 139 1057 l 139 899 l 304 899 l 125 563 l 268 490 l 486 899 m 1046 -276 l 1046 -124 l 600 -124 l 600 -62 l 1033 -62 l 1033 297 l 1033 586 l 1208 586 l 1208 744 l 1033 744 l 1033 817 l 1208 817 l 1208 976 l 1033 976 l 1033 1085 l 868 1085 l 868 297 l 435 297 l 435 144 l 868 144 l 868 85 l 435 85 l 435 -153 q 471 -240 435 -204 q 558 -276 507 -276 l 1046 -276 z "},"꺼":{"ha":1250,"x_min":128,"x_max":1056,"o":"m 488 900 l 582 900 l 386 475 l 532 411 l 704 788 l 704 636 l 892 636 l 892 71 l 1056 71 l 1056 1085 l 892 1085 l 892 793 l 707 793 l 799 992 l 693 1058 l 354 1058 l 139 1058 l 139 900 l 314 900 l 128 500 l 274 436 l 488 900 z "},"꺽":{"ha":1250,"x_min":125,"x_max":1056,"o":"m 1056 -249 l 1056 283 l 1056 1085 l 892 1085 l 892 833 l 718 833 l 804 993 l 690 1057 l 354 1057 l 139 1057 l 139 899 l 304 899 l 125 563 l 267 490 l 485 899 l 572 899 l 381 539 l 524 468 l 704 807 l 704 674 l 892 674 l 892 283 l 449 283 l 449 125 l 892 125 l 892 -249 l 1056 -249 z "},"꺾":{"ha":1250,"x_min":125,"x_max":1056,"o":"m 1056 -249 l 1056 283 l 1056 1085 l 892 1085 l 892 833 l 718 833 l 804 993 l 690 1057 l 354 1057 l 139 1057 l 139 899 l 304 899 l 125 563 l 267 490 l 485 899 l 572 899 l 381 539 l 524 468 l 704 807 l 704 674 l 892 674 l 892 283 l 340 283 l 340 125 l 542 125 l 542 -249 l 706 -249 l 706 125 l 892 125 l 892 -249 l 1056 -249 z "},"껀":{"ha":1250,"x_min":125,"x_max":1069,"o":"m 485 899 l 572 899 l 381 539 l 524 468 l 704 807 l 704 674 l 892 674 l 892 200 l 1056 200 l 1056 1085 l 892 1085 l 892 833 l 718 833 l 804 993 l 690 1057 l 354 1057 l 139 1057 l 139 899 l 304 899 l 125 563 l 267 490 l 485 899 m 1069 -249 l 1069 -90 l 625 -90 l 625 229 l 461 229 l 461 -125 q 471 -173 461 -150 q 497 -212 481 -196 q 536 -239 514 -229 q 583 -249 558 -249 l 1069 -249 z "},"껄":{"ha":1250,"x_min":125,"x_max":1069,"o":"m 1069 -276 l 1069 -124 l 625 -124 l 625 -62 l 1056 -62 l 1056 1085 l 892 1085 l 892 833 l 718 833 l 804 993 l 690 1057 l 354 1057 l 139 1057 l 139 899 l 304 899 l 125 563 l 267 490 l 485 899 l 572 899 l 381 539 l 524 468 l 704 807 l 704 674 l 892 674 l 892 297 l 461 297 l 461 144 l 892 144 l 892 85 l 461 85 l 461 -153 q 471 -201 461 -178 q 497 -240 481 -224 q 536 -267 514 -257 q 583 -276 558 -276 l 1069 -276 z "},"껌":{"ha":1250,"x_min":125,"x_max":1056,"o":"m 1056 -125 l 1056 283 l 1056 1085 l 892 1085 l 892 833 l 718 833 l 804 993 l 690 1057 l 354 1057 l 139 1057 l 139 899 l 304 899 l 125 563 l 267 490 l 485 899 l 572 899 l 381 539 l 524 468 l 704 807 l 704 674 l 892 674 l 892 283 l 461 283 l 461 -125 q 471 -173 461 -150 q 497 -212 481 -196 q 536 -239 514 -229 q 583 -249 558 -249 l 933 -249 q 981 -239 958 -249 q 1019 -212 1003 -229 q 1046 -173 1036 -196 q 1056 -125 1056 -150 m 892 -90 l 625 -90 l 625 125 l 892 125 l 892 -90 z "},"껍":{"ha":1250,"x_min":125,"x_max":1056,"o":"m 1056 -132 l 1056 283 l 1056 1085 l 892 1085 l 892 833 l 718 833 l 804 993 l 690 1057 l 354 1057 l 139 1057 l 139 899 l 304 899 l 125 563 l 267 490 l 485 899 l 572 899 l 381 539 l 524 468 l 704 807 l 704 674 l 892 674 l 892 200 l 892 161 l 625 161 l 625 283 l 461 283 l 461 -132 q 471 -180 461 -157 q 497 -219 481 -203 q 536 -246 514 -236 q 583 -256 558 -256 l 933 -256 q 981 -246 958 -256 q 1019 -219 1003 -236 q 1046 -180 1036 -203 q 1056 -132 1056 -157 m 892 -97 l 625 -97 l 625 3 l 892 3 l 892 -97 z "},"껏":{"ha":1250,"x_min":125,"x_max":1106,"o":"m 485 899 l 572 899 l 381 539 l 524 468 l 704 807 l 704 674 l 892 674 l 892 200 l 1056 200 l 1056 1085 l 892 1085 l 892 833 l 718 833 l 804 993 l 690 1057 l 354 1057 l 139 1057 l 139 899 l 304 899 l 125 563 l 267 490 l 485 899 m 1106 -167 l 732 278 l 360 -167 l 489 -268 l 732 26 l 976 -268 l 1106 -167 z "},"껐":{"ha":1250,"x_min":125,"x_max":1104,"o":"m 1104 -203 l 908 200 l 1056 200 l 1056 1085 l 892 1085 l 892 833 l 718 833 l 804 993 l 690 1057 l 354 1057 l 139 1057 l 139 899 l 304 899 l 125 563 l 267 490 l 485 899 l 572 899 l 381 539 l 524 468 l 704 807 l 704 674 l 892 674 l 892 233 l 860 300 l 692 22 l 526 300 l 282 -203 l 428 -267 l 542 -31 l 692 -261 l 843 -31 l 958 -267 l 1104 -203 z "},"껑":{"ha":1250,"x_min":125,"x_max":1056,"o":"m 485 899 l 572 899 l 381 539 l 524 468 l 704 807 l 704 674 l 892 674 l 892 247 q 774 272 839 272 q 666 251 717 272 q 576 192 615 229 q 515 106 538 156 q 492 -1 492 56 q 515 -108 492 -58 q 576 -196 538 -158 q 665 -255 614 -233 q 774 -276 717 -276 q 882 -255 831 -276 q 972 -196 933 -233 q 1033 -108 1010 -158 q 1056 -1 1056 -58 l 1056 1085 l 892 1085 l 892 833 l 718 833 l 804 993 l 690 1057 l 354 1057 l 139 1057 l 139 899 l 304 899 l 125 563 l 267 490 l 485 899 m 892 -1 q 857 -87 892 -54 q 774 -121 822 -121 q 690 -87 725 -121 q 656 -1 656 -54 q 690 84 656 51 q 774 117 725 117 q 857 84 822 117 q 892 -1 892 51 z "},"께":{"ha":1250,"x_min":61,"x_max":1069,"o":"m 1069 71 l 1069 1085 l 906 1085 l 906 71 l 1069 71 m 392 900 l 451 900 l 282 482 l 432 425 l 533 678 l 693 678 l 693 71 l 854 71 l 854 1085 l 693 1085 l 693 835 l 596 835 l 663 1003 l 553 1058 l 244 1058 l 83 1058 l 83 900 l 222 900 l 61 503 l 211 447 l 392 900 z "},"껙":{"ha":1250,"x_min":81,"x_max":1069,"o":"m 393 899 l 451 899 l 301 524 l 451 467 l 539 688 l 693 688 l 693 363 l 854 363 l 854 1085 l 693 1085 l 693 847 l 601 847 l 663 1003 l 553 1057 l 244 1057 l 83 1057 l 83 899 l 222 899 l 81 546 l 231 489 l 393 899 m 1069 -249 l 1069 283 l 1069 1085 l 906 1085 l 906 283 l 461 283 l 461 125 l 906 125 l 906 -249 l 1069 -249 z "},"껜":{"ha":1250,"x_min":81,"x_max":1083,"o":"m 1069 200 l 1069 1085 l 906 1085 l 906 200 l 1069 200 m 393 899 l 451 899 l 301 524 l 451 467 l 539 688 l 693 688 l 693 200 l 854 200 l 854 1085 l 693 1085 l 693 847 l 601 847 l 663 1003 l 553 1057 l 244 1057 l 83 1057 l 83 899 l 222 899 l 81 546 l 231 489 l 393 899 m 1083 -249 l 1083 -90 l 639 -90 l 639 229 l 475 229 l 475 -125 q 510 -212 475 -176 q 597 -249 546 -249 l 1083 -249 z "},"껨":{"ha":1250,"x_min":81,"x_max":1069,"o":"m 393 899 l 451 899 l 301 524 l 451 467 l 539 688 l 693 688 l 693 363 l 854 363 l 854 1085 l 693 1085 l 693 847 l 601 847 l 663 1003 l 553 1057 l 244 1057 l 83 1057 l 83 899 l 222 899 l 81 546 l 231 489 l 393 899 m 1069 -125 l 1069 283 l 1069 1085 l 906 1085 l 906 283 l 474 283 l 474 -125 q 510 -212 474 -176 q 597 -249 546 -249 l 947 -249 q 994 -239 972 -249 q 1033 -212 1017 -229 q 1060 -173 1050 -196 q 1069 -125 1069 -150 m 906 -90 l 639 -90 l 639 125 l 906 125 l 906 -90 z "},"껫":{"ha":1250,"x_min":81,"x_max":1119,"o":"m 1071 199 l 1071 1085 l 906 1085 l 906 199 l 1071 199 m 393 899 l 451 899 l 301 524 l 451 467 l 539 688 l 693 688 l 693 363 l 854 363 l 854 1085 l 693 1085 l 693 847 l 601 847 l 663 1003 l 553 1057 l 244 1057 l 83 1057 l 83 899 l 222 899 l 81 546 l 231 489 l 393 899 m 1119 -167 l 746 278 l 372 -167 l 501 -268 l 746 26 l 990 -268 l 1119 -167 z "},"껭":{"ha":1250,"x_min":81,"x_max":1069,"o":"m 1069 -1 l 1069 1085 l 906 1085 l 906 247 q 786 272 853 272 q 678 251 729 272 q 589 192 628 229 q 527 106 550 156 q 504 -1 504 56 q 527 -108 504 -58 q 588 -196 550 -158 q 678 -255 626 -233 q 786 -276 729 -276 q 896 -255 844 -276 q 985 -196 947 -233 q 1047 -108 1024 -158 q 1069 -1 1069 -58 m 906 -1 q 870 -87 906 -54 q 786 -121 835 -121 q 703 -87 739 -121 q 668 -1 668 -54 q 703 84 668 51 q 786 117 739 117 q 870 84 835 117 q 906 -1 906 51 m 393 899 l 451 899 l 301 524 l 451 467 l 539 688 l 693 688 l 693 363 l 854 363 l 854 1085 l 693 1085 l 693 847 l 601 847 l 663 1003 l 553 1057 l 244 1057 l 83 1057 l 83 899 l 222 899 l 81 546 l 231 489 l 393 899 z "},"껴":{"ha":1250,"x_min":128,"x_max":1056,"o":"m 488 900 l 582 900 l 386 475 l 532 411 l 718 817 l 718 722 l 892 722 l 892 651 l 718 651 l 718 493 l 892 493 l 892 71 l 1056 71 l 1056 1085 l 892 1085 l 892 881 l 747 881 l 799 992 l 693 1058 l 354 1058 l 139 1058 l 139 900 l 314 900 l 128 500 l 274 436 l 488 900 z "},"껸":{"ha":1250,"x_min":125,"x_max":1069,"o":"m 485 899 l 572 899 l 381 539 l 524 468 l 718 833 l 718 761 l 892 761 l 892 690 l 718 690 l 718 531 l 892 531 l 892 200 l 1056 200 l 1056 1085 l 892 1085 l 892 921 l 765 921 l 804 993 l 690 1057 l 354 1057 l 139 1057 l 139 899 l 304 899 l 125 563 l 267 490 l 485 899 m 1069 -249 l 1069 -90 l 625 -90 l 625 229 l 461 229 l 461 -125 q 471 -173 461 -150 q 497 -212 481 -196 q 536 -239 514 -229 q 583 -249 558 -249 l 1069 -249 z "},"껼":{"ha":1250,"x_min":125,"x_max":1069,"o":"m 1069 -276 l 1069 -124 l 625 -124 l 625 -62 l 1056 -62 l 1056 297 l 1056 1085 l 892 1085 l 892 921 l 765 921 l 804 993 l 690 1057 l 354 1057 l 139 1057 l 139 899 l 304 899 l 125 563 l 267 490 l 485 899 l 572 899 l 381 539 l 524 468 l 718 833 l 718 761 l 892 761 l 892 689 l 718 689 l 718 531 l 892 531 l 892 297 l 461 297 l 461 144 l 892 144 l 892 85 l 461 85 l 461 -153 q 471 -201 461 -178 q 497 -240 481 -224 q 536 -267 514 -257 q 583 -276 558 -276 l 1069 -276 z "},"꼇":{"ha":1250,"x_min":125,"x_max":1106,"o":"m 485 899 l 572 899 l 381 539 l 524 468 l 718 833 l 718 761 l 892 761 l 892 689 l 718 689 l 718 531 l 892 531 l 892 199 l 1056 199 l 1056 1085 l 892 1085 l 892 921 l 765 921 l 804 993 l 690 1057 l 354 1057 l 139 1057 l 139 899 l 304 899 l 125 563 l 267 490 l 485 899 m 1106 -167 l 732 278 l 360 -167 l 489 -268 l 732 26 l 976 -268 l 1106 -167 z "},"꼈":{"ha":1250,"x_min":125,"x_max":1104,"o":"m 1104 -203 l 908 199 l 1056 199 l 1056 1085 l 892 1085 l 892 921 l 765 921 l 804 993 l 690 1057 l 354 1057 l 139 1057 l 139 899 l 304 899 l 125 563 l 267 490 l 485 899 l 572 899 l 381 539 l 524 468 l 718 833 l 718 761 l 892 761 l 892 689 l 718 689 l 718 531 l 892 531 l 892 232 l 860 300 l 692 22 l 526 300 l 282 -203 l 428 -267 l 542 -31 l 692 -261 l 843 -31 l 958 -267 l 1104 -203 z "},"꼍":{"ha":1250,"x_min":125,"x_max":1056,"o":"m 1056 -262 l 1056 -110 l 625 -110 l 625 -62 l 1042 -62 l 1042 85 l 625 85 l 625 132 l 1056 132 l 1056 1085 l 892 1085 l 892 921 l 765 921 l 804 993 l 690 1057 l 354 1057 l 139 1057 l 139 899 l 304 899 l 125 563 l 267 490 l 485 899 l 572 899 l 381 539 l 524 468 l 718 833 l 718 761 l 892 761 l 892 689 l 718 689 l 718 531 l 892 531 l 892 283 l 461 283 l 461 -139 q 471 -187 461 -164 q 497 -226 481 -210 q 536 -253 514 -243 q 583 -262 558 -262 l 1056 -262 z "},"꼐":{"ha":1250,"x_min":61,"x_max":1069,"o":"m 1069 71 l 1069 1085 l 906 1085 l 906 71 l 1069 71 m 392 900 l 451 900 l 282 482 l 432 425 l 557 736 l 693 736 l 693 665 l 556 665 l 556 507 l 693 507 l 693 71 l 854 71 l 854 1085 l 693 1085 l 693 894 l 619 894 l 663 1003 l 553 1058 l 244 1058 l 83 1058 l 83 900 l 222 900 l 61 503 l 211 447 l 392 900 z "},"꼬":{"ha":1250,"x_min":56,"x_max":1194,"o":"m 1194 217 l 1194 374 l 728 374 l 728 682 l 613 682 l 613 900 l 800 900 l 800 558 l 964 558 l 964 1057 l 244 1057 l 244 900 l 447 900 l 447 558 l 563 558 l 563 374 l 56 374 l 56 217 l 1194 217 z "},"꼭":{"ha":1250,"x_min":56,"x_max":1194,"o":"m 1194 356 l 1194 514 l 728 514 l 728 718 l 626 718 l 626 899 l 786 899 l 786 593 l 951 593 l 951 1057 l 258 1057 l 258 899 l 461 899 l 461 593 l 563 593 l 563 514 l 56 514 l 56 356 l 1194 356 m 924 -249 l 924 215 l 313 215 l 313 57 l 758 57 l 758 -249 l 924 -249 z "},"꼰":{"ha":1250,"x_min":56,"x_max":1194,"o":"m 1194 328 l 1194 488 l 728 488 l 728 718 l 626 718 l 626 899 l 786 899 l 786 593 l 951 593 l 951 1057 l 258 1057 l 258 899 l 461 899 l 461 593 l 563 593 l 563 488 l 56 488 l 56 328 l 1194 328 m 938 -249 l 938 -90 l 492 -90 l 492 175 l 326 175 l 326 -125 q 336 -173 326 -150 q 363 -212 346 -196 q 401 -239 379 -229 q 449 -249 424 -249 l 938 -249 z "},"꼲":{"ha":1250,"x_min":56,"x_max":1194,"o":"m 1194 356 l 1194 514 l 728 514 l 728 718 l 626 718 l 626 899 l 786 899 l 786 593 l 951 593 l 951 1057 l 258 1057 l 258 899 l 461 899 l 461 593 l 563 593 l 563 514 l 56 514 l 56 356 l 1194 356 m 613 -249 l 613 -108 q 693 -218 636 -175 q 821 -261 750 -261 q 906 -242 865 -261 q 976 -192 946 -224 q 1025 -119 1007 -161 q 1043 -32 1043 -78 q 1040 6 1043 -12 q 1031 43 1038 25 l 1086 43 l 1086 201 l 904 201 l 904 310 l 739 310 l 739 201 l 557 201 l 557 43 l 613 43 q 603 6 607 25 q 600 -32 600 -12 q 607 -90 600 -56 l 424 -90 l 424 215 l 258 215 l 258 -125 q 268 -173 258 -150 q 294 -212 278 -196 q 333 -239 311 -229 q 381 -249 356 -249 l 613 -249 m 878 -32 q 859 -85 878 -64 q 821 -106 840 -106 q 784 -85 803 -106 q 765 -32 765 -64 q 784 21 765 0 q 821 42 803 42 q 859 21 840 42 q 878 -32 878 0 z "},"꼴":{"ha":1250,"x_min":56,"x_max":1194,"o":"m 1194 382 l 1194 542 l 728 542 l 728 744 l 626 744 l 626 899 l 786 899 l 786 619 l 951 619 l 951 1057 l 258 1057 l 258 899 l 461 899 l 461 619 l 563 619 l 563 542 l 56 542 l 56 382 l 1194 382 m 938 -276 l 938 -125 l 492 -125 l 492 -64 l 924 -64 l 924 297 l 326 297 l 326 144 l 758 144 l 758 85 l 326 85 l 326 -153 q 336 -201 326 -178 q 363 -240 346 -224 q 401 -267 379 -257 q 449 -276 424 -276 l 938 -276 z "},"꼼":{"ha":1250,"x_min":56,"x_max":1194,"o":"m 1194 356 l 1194 514 l 728 514 l 728 718 l 626 718 l 626 899 l 786 899 l 786 593 l 951 593 l 951 1057 l 258 1057 l 258 899 l 461 899 l 461 593 l 563 593 l 563 514 l 56 514 l 56 356 l 1194 356 m 924 -125 l 924 243 l 326 243 l 326 -125 q 336 -173 326 -150 q 363 -212 346 -196 q 401 -239 379 -229 q 449 -249 424 -249 l 801 -249 q 849 -239 826 -249 q 888 -212 871 -229 q 914 -173 904 -196 q 924 -125 924 -150 m 758 -90 l 492 -90 l 492 83 l 758 83 l 758 -90 z "},"꼽":{"ha":1250,"x_min":56,"x_max":1194,"o":"m 1194 356 l 1194 514 l 728 514 l 728 718 l 626 718 l 626 899 l 786 899 l 786 593 l 951 593 l 951 1057 l 258 1057 l 258 899 l 461 899 l 461 593 l 563 593 l 563 514 l 56 514 l 56 356 l 1194 356 m 924 -139 l 924 276 l 758 276 l 758 154 l 492 154 l 492 276 l 326 276 l 326 -139 q 336 -187 326 -164 q 363 -226 346 -210 q 401 -253 379 -243 q 449 -262 424 -262 l 801 -262 q 849 -253 826 -262 q 888 -226 871 -243 q 914 -187 904 -210 q 924 -139 924 -164 m 758 -104 l 492 -104 l 492 -4 l 758 -4 l 758 -104 z "},"꼿":{"ha":1250,"x_min":56,"x_max":1194,"o":"m 1194 356 l 1194 514 l 728 514 l 728 718 l 626 718 l 626 899 l 786 899 l 786 593 l 951 593 l 951 1057 l 258 1057 l 258 899 l 461 899 l 461 593 l 563 593 l 563 514 l 56 514 l 56 356 l 1194 356 m 1000 -167 l 625 278 l 250 -167 l 379 -268 l 625 26 l 871 -268 l 1000 -167 z "},"꽁":{"ha":1250,"x_min":56,"x_max":1194,"o":"m 1194 356 l 1194 514 l 728 514 l 728 718 l 626 718 l 626 899 l 786 899 l 786 593 l 951 593 l 951 1057 l 258 1057 l 258 899 l 461 899 l 461 593 l 563 593 l 563 514 l 56 514 l 56 356 l 1194 356 m 910 -14 q 886 88 910 40 q 824 170 863 135 q 733 226 785 206 q 625 247 681 247 q 517 226 568 247 q 426 170 465 206 q 363 88 386 135 q 340 -14 340 40 q 364 -117 340 -69 q 426 -201 388 -165 q 517 -256 465 -236 q 625 -276 568 -276 q 733 -256 681 -276 q 824 -201 785 -236 q 886 -117 863 -165 q 910 -14 910 -69 m 744 -14 q 710 -90 744 -60 q 625 -121 675 -121 q 540 -90 575 -121 q 506 -14 506 -60 q 540 61 506 31 q 625 92 575 92 q 710 61 675 92 q 744 -14 744 31 z "},"꽂":{"ha":1250,"x_min":56,"x_max":1194,"o":"m 1194 356 l 1194 514 l 728 514 l 728 718 l 626 718 l 626 899 l 786 899 l 786 593 l 951 593 l 951 1057 l 258 1057 l 258 899 l 461 899 l 461 593 l 563 593 l 563 514 l 56 514 l 56 356 l 1194 356 m 992 -156 l 756 83 l 924 83 l 924 243 l 326 243 l 326 83 l 494 83 l 258 -156 l 378 -268 l 625 -14 l 872 -268 l 992 -156 z "},"꽃":{"ha":1250,"x_min":56,"x_max":1194,"o":"m 1194 356 l 1194 514 l 728 514 l 728 718 l 626 718 l 626 899 l 786 899 l 786 593 l 951 593 l 951 1057 l 258 1057 l 258 899 l 461 899 l 461 593 l 563 593 l 563 514 l 56 514 l 56 356 l 1194 356 m 707 215 l 707 311 l 543 311 l 543 215 l 326 215 l 326 57 l 486 57 l 258 -156 l 378 -268 l 625 -36 l 872 -268 l 992 -156 l 764 57 l 924 57 l 924 215 l 707 215 z "},"꽈":{"ha":1250,"x_min":28,"x_max":1222,"o":"m 881 267 l 881 71 l 1046 71 l 1046 664 l 1222 664 l 1222 822 l 1046 822 l 1046 1085 l 881 1085 l 881 424 l 579 424 l 579 721 l 490 721 l 490 900 l 610 900 l 610 569 l 775 569 l 775 1058 l 176 1058 l 176 900 l 326 900 l 326 569 l 414 569 l 414 424 l 28 424 l 28 267 l 881 267 z "},"꽉":{"ha":1250,"x_min":28,"x_max":1222,"o":"m 1046 -249 l 1046 215 l 1046 701 l 1222 701 l 1222 861 l 1046 861 l 1046 1085 l 881 1085 l 881 514 l 579 514 l 579 746 l 490 746 l 490 899 l 610 899 l 610 593 l 775 593 l 775 1057 l 176 1057 l 176 899 l 326 899 l 326 593 l 414 593 l 414 514 l 28 514 l 28 356 l 881 356 l 881 215 l 435 215 l 435 57 l 881 57 l 881 -249 l 1046 -249 z "},"꽐":{"ha":1250,"x_min":28,"x_max":1222,"o":"m 1060 -276 l 1060 -124 l 613 -124 l 613 -76 l 1046 -76 l 1046 269 l 1046 701 l 1222 701 l 1222 861 l 1046 861 l 1046 1085 l 881 1085 l 881 514 l 579 514 l 579 744 l 490 744 l 490 899 l 610 899 l 610 593 l 775 593 l 775 1057 l 176 1057 l 176 899 l 326 899 l 326 593 l 414 593 l 414 514 l 28 514 l 28 356 l 881 356 l 881 269 l 447 269 l 447 118 l 881 118 l 881 71 l 447 71 l 447 -153 q 483 -240 447 -204 q 571 -276 519 -276 l 1060 -276 z "},"꽜":{"ha":1250,"x_min":28,"x_max":1222,"o":"m 1093 -217 l 904 158 l 1046 158 l 1046 701 l 1222 701 l 1222 861 l 1046 861 l 1046 1085 l 881 1085 l 881 514 l 579 514 l 579 744 l 490 744 l 490 899 l 610 899 l 610 593 l 775 593 l 775 1057 l 176 1057 l 176 899 l 326 899 l 326 593 l 414 593 l 414 514 l 28 514 l 28 356 l 881 356 l 881 204 l 847 271 l 679 7 l 513 271 l 267 -217 l 413 -281 l 529 -50 l 679 -275 l 831 -50 l 947 -281 l 1093 -217 z "},"꽝":{"ha":1250,"x_min":28,"x_max":1222,"o":"m 881 356 l 881 224 q 824 242 854 235 q 761 249 793 249 q 654 228 706 249 q 564 172 603 207 q 501 88 525 136 q 478 -14 478 40 q 501 -117 478 -69 q 563 -201 524 -165 q 653 -256 603 -236 q 761 -276 704 -276 q 871 -256 819 -276 q 961 -199 922 -235 q 1023 -116 1000 -164 q 1046 -14 1046 -68 l 1046 701 l 1222 701 l 1222 861 l 1046 861 l 1046 1085 l 881 1085 l 881 514 l 579 514 l 579 744 l 490 744 l 490 899 l 610 899 l 610 593 l 775 593 l 775 1057 l 176 1057 l 176 899 l 326 899 l 326 593 l 414 593 l 414 514 l 28 514 l 28 356 l 881 356 m 881 -14 q 847 -90 881 -60 q 761 -121 813 -121 q 677 -90 711 -121 q 643 -14 643 -60 q 677 61 643 31 q 761 92 711 92 q 847 61 813 92 q 881 -14 881 31 z "},"꽤":{"ha":1250,"x_min":14,"x_max":1083,"o":"m 767 267 l 844 267 l 844 664 l 918 664 l 918 71 l 1083 71 l 1083 1085 l 918 1085 l 918 822 l 844 822 l 844 1085 l 682 1085 l 682 424 l 440 424 l 440 721 l 381 721 l 381 900 l 474 900 l 474 569 l 638 569 l 638 1058 l 94 1058 l 94 900 l 217 900 l 217 569 l 290 569 l 290 424 l 14 424 l 14 267 l 682 267 l 767 267 z "},"꽥":{"ha":1250,"x_min":14,"x_max":1083,"o":"m 1083 -249 l 1083 215 l 1083 1085 l 918 1085 l 918 861 l 844 861 l 844 1085 l 682 1085 l 682 514 l 440 514 l 440 746 l 381 746 l 381 899 l 474 899 l 474 593 l 638 593 l 638 1057 l 94 1057 l 94 899 l 217 899 l 217 593 l 290 593 l 290 514 l 14 514 l 14 356 l 767 356 l 844 356 l 844 701 l 918 701 l 918 215 l 474 215 l 474 57 l 918 57 l 918 -249 l 1083 -249 z "},"꽹":{"ha":1250,"x_min":14,"x_max":1083,"o":"m 767 356 l 844 356 l 844 701 l 918 701 l 918 224 q 862 242 892 235 q 800 249 832 249 q 693 228 744 249 q 603 172 642 207 q 540 88 564 136 q 517 -14 517 40 q 540 -117 517 -69 q 602 -201 563 -165 q 692 -256 642 -236 q 800 -276 743 -276 q 908 -256 857 -276 q 999 -199 960 -235 q 1060 -116 1038 -164 q 1083 -14 1083 -68 l 1083 1085 l 918 1085 l 918 861 l 844 861 l 844 1085 l 682 1085 l 682 514 l 440 514 l 440 746 l 381 746 l 381 899 l 474 899 l 474 593 l 638 593 l 638 1057 l 94 1057 l 94 899 l 217 899 l 217 593 l 290 593 l 290 514 l 14 514 l 14 356 l 682 356 l 767 356 m 918 -14 q 884 -90 918 -60 q 800 -121 850 -121 q 715 -90 750 -121 q 681 -14 681 -60 q 715 61 681 31 q 800 92 750 92 q 884 61 850 92 q 918 -14 918 31 z "},"꾀":{"ha":1250,"x_min":42,"x_max":1056,"o":"m 892 267 l 892 71 l 1056 71 l 1056 1085 l 892 1085 l 892 424 l 590 424 l 590 721 l 503 721 l 503 900 l 621 900 l 621 569 l 786 569 l 786 1058 l 190 1058 l 190 900 l 339 900 l 339 569 l 425 569 l 425 424 l 42 424 l 42 267 l 892 267 z "},"꾄":{"ha":1250,"x_min":42,"x_max":1069,"o":"m 892 328 l 892 158 l 1056 158 l 1056 1085 l 892 1085 l 892 488 l 590 488 l 590 746 l 503 746 l 503 899 l 622 899 l 622 593 l 786 593 l 786 1057 l 190 1057 l 190 899 l 339 899 l 339 593 l 425 593 l 425 488 l 42 488 l 42 328 l 892 328 m 1069 -249 l 1069 -90 l 625 -90 l 625 175 l 460 175 l 460 -125 q 469 -173 460 -150 q 496 -212 479 -196 q 535 -239 513 -229 q 582 -249 557 -249 l 1069 -249 z "},"꾈":{"ha":1250,"x_min":42,"x_max":1069,"o":"m 1069 -276 l 1069 -124 l 625 -124 l 625 -76 l 1056 -76 l 1056 269 l 1056 1085 l 892 1085 l 892 514 l 590 514 l 590 744 l 503 744 l 503 899 l 622 899 l 622 593 l 786 593 l 786 1057 l 190 1057 l 190 899 l 339 899 l 339 593 l 425 593 l 425 514 l 42 514 l 42 356 l 892 356 l 892 269 l 460 269 l 460 118 l 892 118 l 892 71 l 460 71 l 460 -153 q 469 -201 460 -178 q 496 -240 479 -224 q 535 -267 513 -257 q 582 -276 557 -276 l 1069 -276 z "},"꾐":{"ha":1250,"x_min":42,"x_max":1056,"o":"m 1056 -125 l 1056 243 l 1056 1085 l 892 1085 l 892 514 l 590 514 l 590 746 l 503 746 l 503 899 l 621 899 l 621 593 l 786 593 l 786 1057 l 190 1057 l 190 899 l 339 899 l 339 593 l 425 593 l 425 514 l 42 514 l 42 356 l 892 356 l 892 243 l 460 243 l 460 -125 q 469 -173 460 -150 q 496 -212 479 -196 q 535 -239 513 -229 q 582 -249 557 -249 l 933 -249 q 981 -239 958 -249 q 1019 -212 1003 -229 q 1046 -173 1036 -196 q 1056 -125 1056 -150 m 892 -90 l 624 -90 l 624 85 l 892 85 l 892 -90 z "},"꾑":{"ha":1250,"x_min":42,"x_max":1056,"o":"m 1056 -139 l 1056 250 l 1056 1085 l 892 1085 l 892 514 l 590 514 l 590 746 l 503 746 l 503 899 l 621 899 l 621 593 l 786 593 l 786 1057 l 190 1057 l 190 899 l 339 899 l 339 593 l 425 593 l 425 514 l 42 514 l 42 356 l 892 356 l 892 158 l 892 140 l 624 140 l 624 250 l 460 250 l 460 -139 q 469 -187 460 -164 q 496 -226 479 -210 q 535 -253 513 -243 q 582 -262 557 -262 l 933 -262 q 981 -253 958 -262 q 1019 -226 1003 -243 q 1046 -187 1036 -210 q 1056 -139 1056 -164 m 892 -104 l 624 -104 l 624 -18 l 892 -18 l 892 -104 z "},"꾕":{"ha":1250,"x_min":42,"x_max":1056,"o":"m 892 356 l 892 224 q 835 242 865 235 q 772 249 804 249 q 665 228 717 249 q 575 172 614 207 q 513 88 536 136 q 489 -14 489 40 q 512 -117 489 -69 q 574 -201 535 -165 q 665 -256 614 -236 q 772 -276 715 -276 q 881 -256 829 -276 q 971 -199 932 -235 q 1033 -116 1010 -164 q 1056 -14 1056 -68 l 1056 1085 l 892 1085 l 892 514 l 590 514 l 590 744 l 503 744 l 503 899 l 621 899 l 621 593 l 786 593 l 786 1057 l 190 1057 l 190 899 l 339 899 l 339 593 l 425 593 l 425 514 l 42 514 l 42 356 l 892 356 m 892 -14 q 857 -90 892 -60 q 772 -121 822 -121 q 688 -90 722 -121 q 654 -14 654 -60 q 688 61 654 31 q 772 92 722 92 q 857 61 822 92 q 892 -14 892 31 z "},"꾜":{"ha":1250,"x_min":56,"x_max":1194,"o":"m 572 374 l 572 558 l 613 558 l 613 900 l 800 900 l 800 682 l 678 682 l 678 374 l 572 374 m 1194 217 l 1194 374 l 843 374 l 843 558 l 964 558 l 964 1057 l 244 1057 l 244 900 l 447 900 l 447 682 l 407 682 l 407 374 l 56 374 l 56 217 l 1194 217 z "},"꾸":{"ha":1250,"x_min":56,"x_max":1194,"o":"m 964 554 l 964 1057 l 244 1057 l 244 899 l 447 899 l 447 554 l 613 554 l 613 899 l 800 899 l 800 554 l 964 554 m 707 1 l 707 318 l 1194 318 l 1194 476 l 56 476 l 56 318 l 543 318 l 543 1 l 707 1 z "},"꾹":{"ha":1250,"x_min":56,"x_max":1194,"o":"m 951 565 l 951 1057 l 258 1057 l 258 899 l 461 899 l 461 565 l 626 565 l 626 899 l 786 899 l 786 565 l 951 565 m 924 -249 l 924 215 l 707 215 l 707 342 l 1194 342 l 1194 500 l 56 500 l 56 342 l 543 342 l 543 215 l 313 215 l 313 57 l 758 57 l 758 -249 l 924 -249 z "},"꾼":{"ha":1250,"x_min":56,"x_max":1194,"o":"m 951 565 l 951 1057 l 258 1057 l 258 899 l 461 899 l 461 565 l 626 565 l 626 899 l 786 899 l 786 565 l 951 565 m 749 78 l 749 328 l 1194 328 l 1194 488 l 56 488 l 56 328 l 583 328 l 583 78 l 749 78 m 938 -249 l 938 -90 l 492 -90 l 492 175 l 326 175 l 326 -125 q 336 -173 326 -150 q 363 -212 346 -196 q 401 -239 379 -229 q 449 -249 424 -249 l 938 -249 z "},"꿀":{"ha":1250,"x_min":56,"x_max":1194,"o":"m 951 619 l 951 1057 l 258 1057 l 258 899 l 461 899 l 461 619 l 626 619 l 626 899 l 786 899 l 786 619 l 951 619 m 938 -276 l 938 -125 l 492 -125 l 492 -64 l 924 -64 l 924 297 l 707 297 l 707 410 l 1194 410 l 1194 568 l 56 568 l 56 410 l 543 410 l 543 297 l 326 297 l 326 144 l 758 144 l 758 85 l 326 85 l 326 -153 q 336 -201 326 -178 q 363 -240 346 -224 q 401 -267 379 -257 q 449 -276 424 -276 l 938 -276 z "},"꿇":{"ha":1250,"x_min":56,"x_max":1194,"o":"m 951 619 l 951 1057 l 258 1057 l 258 899 l 461 899 l 461 619 l 626 619 l 626 899 l 786 899 l 786 619 l 951 619 m 599 -262 l 599 -111 l 382 -111 l 382 -50 l 585 -50 l 585 76 l 631 76 q 613 -22 613 29 q 628 -119 613 -74 q 670 -200 643 -165 q 736 -256 697 -235 q 821 -276 775 -276 q 909 -256 867 -276 q 984 -201 951 -236 q 1037 -120 1017 -167 q 1057 -22 1057 -74 q 1039 76 1057 29 l 1100 76 l 1100 236 l 918 236 l 918 324 l 753 324 l 753 236 l 707 236 l 707 410 l 1194 410 l 1194 568 l 56 568 l 56 410 l 543 410 l 543 310 l 218 310 l 218 158 l 421 158 l 421 99 l 218 99 l 218 -139 q 253 -226 218 -190 q 340 -262 289 -262 l 599 -262 m 892 -22 q 872 -94 892 -68 q 835 -121 853 -121 q 797 -94 817 -121 q 778 -22 778 -68 q 797 49 778 22 q 835 75 817 75 q 872 49 853 75 q 892 -22 892 22 z "},"꿈":{"ha":1250,"x_min":56,"x_max":1194,"o":"m 951 593 l 951 1057 l 258 1057 l 258 899 l 461 899 l 461 593 l 626 593 l 626 899 l 786 899 l 786 593 l 951 593 m 924 -125 l 924 243 l 707 243 l 707 382 l 1194 382 l 1194 542 l 56 542 l 56 382 l 543 382 l 543 243 l 326 243 l 326 -125 q 336 -173 326 -150 q 363 -212 346 -196 q 401 -239 379 -229 q 449 -249 424 -249 l 801 -249 q 849 -239 826 -249 q 888 -212 871 -229 q 914 -173 904 -196 q 924 -125 924 -150 m 758 -90 l 492 -90 l 492 83 l 758 83 l 758 -90 z "},"꿉":{"ha":1250,"x_min":56,"x_max":1194,"o":"m 951 593 l 951 1057 l 258 1057 l 258 899 l 461 899 l 461 593 l 626 593 l 626 899 l 786 899 l 786 593 l 951 593 m 707 199 l 707 382 l 1194 382 l 1194 542 l 56 542 l 56 382 l 543 382 l 543 199 l 707 199 m 924 -139 l 924 276 l 758 276 l 758 154 l 492 154 l 492 276 l 326 276 l 326 -139 q 336 -187 326 -164 q 363 -226 346 -210 q 401 -253 379 -243 q 449 -262 424 -262 l 801 -262 q 849 -253 826 -262 q 888 -226 871 -243 q 914 -187 904 -210 q 924 -139 924 -164 m 758 -104 l 492 -104 l 492 -4 l 758 -4 l 758 -104 z "},"꿋":{"ha":1250,"x_min":56,"x_max":1194,"o":"m 951 593 l 951 1057 l 258 1057 l 258 899 l 461 899 l 461 593 l 626 593 l 626 899 l 786 899 l 786 593 l 951 593 m 1000 -167 l 707 179 l 707 382 l 1194 382 l 1194 542 l 56 542 l 56 382 l 543 382 l 543 179 l 250 -167 l 379 -268 l 625 26 l 871 -268 l 1000 -167 z "},"꿍":{"ha":1250,"x_min":56,"x_max":1194,"o":"m 951 593 l 951 1057 l 258 1057 l 258 899 l 461 899 l 461 593 l 626 593 l 626 899 l 786 899 l 786 593 l 951 593 m 910 -14 q 894 69 910 29 q 851 143 878 110 q 787 201 824 176 q 707 236 750 225 l 707 382 l 1194 382 l 1194 542 l 56 542 l 56 382 l 543 382 l 543 236 q 463 201 500 225 q 399 145 426 178 q 356 72 372 113 q 340 -14 340 31 q 364 -117 340 -69 q 426 -201 388 -165 q 517 -256 465 -236 q 625 -276 568 -276 q 733 -256 681 -276 q 824 -201 785 -236 q 886 -117 863 -165 q 910 -14 910 -69 m 744 -14 q 710 -90 744 -60 q 625 -121 675 -121 q 540 -90 575 -121 q 506 -14 506 -60 q 540 61 506 31 q 625 92 575 92 q 710 61 675 92 q 744 -14 744 31 z "},"꿎":{"ha":1250,"x_min":56,"x_max":1194,"o":"m 951 593 l 951 1057 l 258 1057 l 258 899 l 461 899 l 461 593 l 626 593 l 626 899 l 786 899 l 786 593 l 951 593 m 707 268 l 707 382 l 1194 382 l 1194 542 l 56 542 l 56 382 l 543 382 l 543 268 l 707 268 m 992 -156 l 756 83 l 924 83 l 924 243 l 326 243 l 326 83 l 494 83 l 258 -156 l 378 -268 l 625 -14 l 872 -268 l 992 -156 z "},"꿔":{"ha":1250,"x_min":42,"x_max":1056,"o":"m 1056 71 l 1056 1085 l 892 1085 l 892 374 l 649 374 l 649 219 l 892 219 l 892 71 l 1056 71 m 786 597 l 786 1058 l 190 1058 l 190 900 l 339 900 l 339 597 l 503 597 l 503 900 l 621 900 l 621 597 l 786 597 m 529 97 l 529 401 l 813 401 l 813 558 l 42 558 l 42 401 l 365 401 l 365 97 l 529 97 z "},"꿜":{"ha":1250,"x_min":42,"x_max":1069,"o":"m 786 621 l 786 1057 l 190 1057 l 190 899 l 339 899 l 339 621 l 503 621 l 503 899 l 622 899 l 622 621 l 786 621 m 1069 -276 l 1069 -124 l 625 -124 l 625 -90 l 1056 -90 l 1056 243 l 1056 1085 l 892 1085 l 892 403 l 649 403 l 649 260 l 892 260 l 892 243 l 531 243 l 531 424 l 813 424 l 813 582 l 42 582 l 42 424 l 365 424 l 365 240 l 460 240 l 460 90 l 892 90 l 892 58 l 460 58 l 460 -153 q 469 -201 460 -178 q 496 -240 479 -224 q 535 -267 513 -257 q 582 -276 557 -276 l 1069 -276 z "},"꿨":{"ha":1250,"x_min":42,"x_max":1104,"o":"m 786 621 l 786 1057 l 190 1057 l 190 899 l 339 899 l 339 621 l 503 621 l 503 899 l 622 899 l 622 621 l 786 621 m 531 240 l 531 424 l 814 424 l 814 582 l 42 582 l 42 424 l 365 424 l 365 240 l 531 240 m 1104 -217 l 925 118 l 1057 118 l 1057 1085 l 892 1085 l 892 403 l 649 403 l 649 260 l 892 260 l 892 179 l 860 239 l 692 -7 l 524 239 l 279 -217 l 425 -281 l 540 -61 l 690 -274 l 843 -61 l 958 -281 l 1104 -217 z "},"꿩":{"ha":1250,"x_min":42,"x_max":1056,"o":"m 786 621 l 786 1057 l 190 1057 l 190 899 l 339 899 l 339 621 l 503 621 l 503 899 l 621 899 l 621 621 l 786 621 m 1056 -21 l 1056 1085 l 892 1085 l 892 396 l 649 396 l 649 253 l 892 253 l 892 213 q 781 235 842 235 q 675 215 725 235 q 588 160 625 194 q 528 80 550 126 q 506 -21 506 33 q 528 -120 506 -74 q 588 -201 550 -167 q 675 -256 625 -236 q 781 -276 725 -276 q 886 -256 836 -276 q 974 -201 936 -236 q 1033 -120 1011 -167 q 1056 -21 1056 -74 m 892 -21 q 859 -92 892 -62 q 781 -121 826 -121 q 702 -92 735 -121 q 669 -21 669 -62 q 702 49 669 21 q 781 78 735 78 q 859 49 826 78 q 892 -21 892 21 m 529 240 l 529 424 l 813 424 l 813 582 l 42 582 l 42 424 l 365 424 l 365 240 l 529 240 z "},"꿰":{"ha":1250,"x_min":14,"x_max":1083,"o":"m 1083 71 l 1083 1085 l 918 1085 l 918 71 l 1083 71 m 867 206 l 867 1085 l 706 1085 l 706 360 l 486 360 l 486 206 l 867 206 m 638 597 l 638 1058 l 122 1058 l 122 900 l 243 900 l 243 597 l 408 597 l 408 900 l 474 900 l 474 597 l 638 597 m 435 97 l 435 401 l 651 401 l 651 558 l 14 558 l 14 401 l 271 401 l 271 97 l 435 97 z "},"꿱":{"ha":1250,"x_min":14,"x_max":1083,"o":"m 867 254 l 867 1085 l 706 1085 l 706 396 l 486 396 l 486 254 l 867 254 m 638 621 l 638 1057 l 122 1057 l 122 899 l 243 899 l 243 621 l 408 621 l 408 899 l 474 899 l 474 621 l 638 621 m 1083 -249 l 1083 203 l 1083 1085 l 918 1085 l 918 203 l 474 203 l 474 43 l 918 43 l 918 -249 l 1083 -249 m 435 240 l 435 424 l 651 424 l 651 582 l 14 582 l 14 424 l 271 424 l 271 240 l 435 240 z "},"꿴":{"ha":1250,"x_min":14,"x_max":1097,"o":"m 1083 118 l 1083 1085 l 919 1085 l 919 118 l 1083 118 m 868 226 l 868 1085 l 706 1085 l 706 369 l 486 369 l 486 226 l 868 226 m 638 593 l 638 1057 l 122 1057 l 122 899 l 243 899 l 243 593 l 408 593 l 408 899 l 474 899 l 474 593 l 638 593 m 1097 -249 l 1097 -90 l 651 -90 l 651 175 l 486 175 l 486 -125 q 522 -212 486 -176 q 610 -249 558 -249 l 1097 -249 m 435 213 l 435 396 l 651 396 l 651 556 l 14 556 l 14 396 l 271 396 l 271 213 l 435 213 z "},"꿸":{"ha":1250,"x_min":14,"x_max":1097,"o":"m 868 267 l 868 1085 l 706 1085 l 706 410 l 486 410 l 486 267 l 868 267 m 638 621 l 638 1057 l 122 1057 l 122 899 l 243 899 l 243 621 l 408 621 l 408 899 l 474 899 l 474 621 l 638 621 m 1097 -276 l 1097 -124 l 651 -124 l 651 -90 l 1083 -90 l 1083 243 l 1083 1085 l 919 1085 l 919 243 l 486 243 l 486 90 l 919 90 l 919 58 l 486 58 l 486 -153 q 522 -240 486 -204 q 610 -276 558 -276 l 1097 -276 m 435 240 l 435 424 l 651 424 l 651 582 l 14 582 l 14 424 l 271 424 l 271 240 l 435 240 z "},"뀀":{"ha":1250,"x_min":14,"x_max":1083,"o":"m 867 254 l 867 1085 l 706 1085 l 706 396 l 486 396 l 486 254 l 867 254 m 638 621 l 638 1057 l 122 1057 l 122 899 l 243 899 l 243 621 l 408 621 l 408 899 l 474 899 l 474 621 l 638 621 m 1083 -125 l 1083 215 l 1083 1085 l 918 1085 l 918 215 l 486 215 l 486 -125 q 522 -212 486 -176 q 610 -249 558 -249 l 961 -249 q 1008 -239 986 -249 q 1047 -212 1031 -229 q 1074 -173 1064 -196 q 1083 -125 1083 -150 m 918 -90 l 651 -90 l 651 57 l 918 57 l 918 -90 m 435 240 l 435 424 l 651 424 l 651 582 l 14 582 l 14 424 l 271 424 l 271 240 l 435 240 z "},"뀁":{"ha":1250,"x_min":14,"x_max":1083,"o":"m 867 254 l 867 1085 l 706 1085 l 706 396 l 486 396 l 486 254 l 867 254 m 638 621 l 638 1057 l 122 1057 l 122 899 l 243 899 l 243 621 l 408 621 l 408 899 l 474 899 l 474 621 l 638 621 m 1083 -139 l 1083 222 l 1083 1085 l 918 1085 l 918 128 l 651 128 l 651 222 l 486 222 l 486 -139 q 522 -226 486 -190 q 610 -262 558 -262 l 961 -262 q 1008 -253 986 -262 q 1047 -226 1031 -243 q 1074 -187 1064 -210 q 1083 -139 1083 -164 m 918 -104 l 651 -104 l 651 -32 l 918 -32 l 918 -104 m 435 240 l 435 424 l 651 424 l 651 582 l 14 582 l 14 424 l 271 424 l 271 240 l 435 240 z "},"뀄":{"ha":1250,"x_min":14,"x_max":1132,"o":"m 868 253 l 868 1085 l 706 1085 l 706 396 l 488 396 l 488 253 l 868 253 m 639 621 l 639 1057 l 122 1057 l 122 899 l 243 899 l 243 621 l 408 621 l 408 899 l 474 899 l 474 621 l 639 621 m 436 240 l 436 424 l 651 424 l 651 582 l 14 582 l 14 424 l 271 424 l 271 240 l 436 240 m 1132 -217 l 953 118 l 1085 118 l 1085 1085 l 919 1085 l 919 179 l 888 239 l 718 -7 l 550 239 l 306 -217 l 451 -281 l 567 -61 l 718 -274 l 871 -61 l 986 -281 l 1132 -217 z "},"뀌":{"ha":1250,"x_min":42,"x_max":1056,"o":"m 786 597 l 786 1058 l 190 1058 l 190 900 l 339 900 l 339 597 l 503 597 l 503 900 l 621 900 l 621 597 l 786 597 m 529 97 l 529 374 l 892 374 l 892 71 l 1056 71 l 1056 1085 l 892 1085 l 892 532 l 42 532 l 42 374 l 365 374 l 365 97 l 529 97 z "},"뀐":{"ha":1250,"x_min":42,"x_max":1069,"o":"m 786 593 l 786 1057 l 190 1057 l 190 899 l 339 899 l 339 593 l 503 593 l 503 899 l 622 899 l 622 593 l 786 593 m 531 213 l 531 369 l 892 369 l 892 118 l 1056 118 l 1056 1085 l 892 1085 l 892 528 l 42 528 l 42 369 l 365 369 l 365 213 l 531 213 m 1069 -249 l 1069 -90 l 625 -90 l 625 175 l 460 175 l 460 -125 q 469 -173 460 -150 q 496 -212 479 -196 q 535 -239 513 -229 q 582 -249 557 -249 l 1069 -249 z "},"뀔":{"ha":1250,"x_min":42,"x_max":1069,"o":"m 786 593 l 786 1057 l 190 1057 l 190 899 l 339 899 l 339 593 l 503 593 l 503 899 l 622 899 l 622 593 l 786 593 m 531 243 l 531 396 l 892 396 l 892 243 l 531 243 m 1069 -276 l 1069 -124 l 625 -124 l 625 -90 l 1056 -90 l 1056 243 l 1056 1085 l 892 1085 l 892 556 l 42 556 l 42 396 l 365 396 l 365 240 l 460 240 l 460 90 l 892 90 l 892 58 l 460 58 l 460 -153 q 469 -201 460 -178 q 496 -240 479 -224 q 535 -267 513 -257 q 582 -276 557 -276 l 1069 -276 z "},"뀜":{"ha":1250,"x_min":42,"x_max":1056,"o":"m 786 593 l 786 1057 l 190 1057 l 190 899 l 339 899 l 339 593 l 503 593 l 503 899 l 621 899 l 621 593 l 786 593 m 1056 -125 l 1056 215 l 1056 1085 l 892 1085 l 892 556 l 42 556 l 42 396 l 365 396 l 365 240 l 529 240 l 529 396 l 892 396 l 892 215 l 460 215 l 460 -125 q 469 -173 460 -150 q 496 -212 479 -196 q 535 -239 513 -229 q 582 -249 557 -249 l 933 -249 q 981 -239 958 -249 q 1019 -212 1003 -229 q 1046 -173 1036 -196 q 1056 -125 1056 -150 m 892 -90 l 624 -90 l 624 57 l 892 57 l 892 -90 z "},"뀝":{"ha":1250,"x_min":42,"x_max":1056,"o":"m 786 593 l 786 1057 l 190 1057 l 190 899 l 339 899 l 339 593 l 503 593 l 503 899 l 621 899 l 621 593 l 786 593 m 1056 -139 l 1056 222 l 1056 1085 l 892 1085 l 892 556 l 42 556 l 42 396 l 365 396 l 365 240 l 529 240 l 529 396 l 892 396 l 892 128 l 624 128 l 624 222 l 460 222 l 460 -139 q 469 -187 460 -164 q 496 -226 479 -210 q 535 -253 513 -243 q 582 -262 557 -262 l 933 -262 q 981 -253 958 -262 q 1019 -226 1003 -243 q 1046 -187 1036 -210 q 1056 -139 1056 -164 m 892 -104 l 624 -104 l 624 -32 l 892 -32 l 892 -104 z "},"뀨":{"ha":1250,"x_min":56,"x_max":1194,"o":"m 964 554 l 964 1057 l 244 1057 l 244 899 l 447 899 l 447 554 l 613 554 l 613 899 l 800 899 l 800 554 l 964 554 m 558 1 l 558 318 l 692 318 l 692 1 l 857 1 l 857 318 l 1194 318 l 1194 476 l 56 476 l 56 318 l 393 318 l 393 1 l 558 1 z "},"끄":{"ha":1250,"x_min":56,"x_max":1194,"o":"m 964 504 l 964 1057 l 244 1057 l 244 900 l 447 900 l 447 504 l 613 504 l 613 900 l 800 900 l 800 504 l 964 504 m 1194 217 l 1194 374 l 56 374 l 56 217 l 1194 217 z "},"끅":{"ha":1250,"x_min":56,"x_max":1194,"o":"m 951 593 l 951 1057 l 258 1057 l 258 899 l 461 899 l 461 593 l 626 593 l 626 899 l 786 899 l 786 593 l 951 593 m 1194 356 l 1194 514 l 56 514 l 56 356 l 1194 356 m 924 -249 l 924 215 l 313 215 l 313 57 l 758 57 l 758 -249 l 924 -249 z "},"끈":{"ha":1250,"x_min":56,"x_max":1194,"o":"m 951 579 l 951 1057 l 258 1057 l 258 899 l 461 899 l 461 579 l 626 579 l 626 899 l 786 899 l 786 579 l 951 579 m 1194 328 l 1194 488 l 56 488 l 56 328 l 1194 328 m 938 -249 l 938 -90 l 492 -90 l 492 175 l 326 175 l 326 -125 q 336 -173 326 -150 q 363 -212 346 -196 q 401 -239 379 -229 q 449 -249 424 -249 l 938 -249 z "},"끊":{"ha":1250,"x_min":56,"x_max":1194,"o":"m 951 593 l 951 1057 l 258 1057 l 258 899 l 461 899 l 461 593 l 626 593 l 626 899 l 786 899 l 786 593 l 951 593 m 1194 356 l 1194 514 l 56 514 l 56 356 l 1194 356 m 613 -249 l 613 -108 q 693 -218 636 -175 q 821 -261 750 -261 q 906 -242 865 -261 q 976 -192 946 -224 q 1025 -119 1007 -161 q 1043 -32 1043 -78 q 1040 6 1043 -12 q 1031 43 1038 25 l 1086 43 l 1086 201 l 904 201 l 904 310 l 739 310 l 739 201 l 557 201 l 557 43 l 613 43 q 603 6 607 25 q 600 -32 600 -12 q 607 -90 600 -56 l 424 -90 l 424 215 l 258 215 l 258 -125 q 268 -173 258 -150 q 294 -212 278 -196 q 333 -239 311 -229 q 381 -249 356 -249 l 613 -249 m 878 -32 q 859 -85 878 -64 q 821 -106 840 -106 q 784 -85 803 -106 q 765 -32 765 -64 q 784 21 765 0 q 821 42 803 42 q 859 21 840 42 q 878 -32 878 0 z "},"끌":{"ha":1250,"x_min":56,"x_max":1194,"o":"m 951 619 l 951 1057 l 258 1057 l 258 899 l 461 899 l 461 619 l 626 619 l 626 899 l 786 899 l 786 619 l 951 619 m 1194 382 l 1194 542 l 56 542 l 56 382 l 1194 382 m 938 -276 l 938 -125 l 492 -125 l 492 -64 l 924 -64 l 924 297 l 326 297 l 326 144 l 758 144 l 758 85 l 326 85 l 326 -153 q 336 -201 326 -178 q 363 -240 346 -224 q 401 -267 379 -257 q 449 -276 424 -276 l 938 -276 z "},"끎":{"ha":1250,"x_min":56,"x_max":1194,"o":"m 951 619 l 951 1057 l 258 1057 l 258 899 l 461 899 l 461 619 l 626 619 l 626 899 l 786 899 l 786 619 l 951 619 m 1194 382 l 1194 542 l 56 542 l 56 382 l 1194 382 m 1025 -153 l 1025 297 l 631 297 l 631 -153 q 667 -240 631 -204 q 754 -276 703 -276 l 903 -276 q 990 -240 954 -276 q 1025 -153 1025 -204 m 861 -118 l 796 -118 l 796 138 l 861 138 l 861 -118 m 606 -276 l 606 -125 l 389 -125 l 389 -64 l 592 -64 l 592 297 l 225 297 l 225 144 l 428 144 l 428 85 l 225 85 l 225 -153 q 260 -240 225 -204 q 347 -276 296 -276 l 606 -276 z "},"끓":{"ha":1250,"x_min":56,"x_max":1194,"o":"m 951 619 l 951 1057 l 258 1057 l 258 899 l 461 899 l 461 619 l 626 619 l 626 899 l 786 899 l 786 619 l 951 619 m 1194 382 l 1194 542 l 56 542 l 56 382 l 1194 382 m 599 -262 l 599 -111 l 382 -111 l 382 -64 l 585 -64 l 585 76 l 631 76 q 613 -22 613 29 q 630 -119 613 -74 q 678 -200 647 -165 q 749 -256 708 -235 q 835 -276 789 -276 q 921 -256 881 -276 q 992 -200 961 -235 q 1040 -119 1022 -165 q 1057 -22 1057 -74 q 1039 76 1057 29 l 1100 76 l 1100 236 l 918 236 l 918 324 l 753 324 l 753 236 l 585 236 l 585 297 l 218 297 l 218 144 l 421 144 l 421 85 l 218 85 l 218 -139 q 253 -226 218 -190 q 340 -262 289 -262 l 599 -262 m 892 -22 q 872 -94 892 -68 q 835 -121 853 -121 q 797 -94 817 -121 q 778 -22 778 -68 q 797 49 778 22 q 835 75 817 75 q 872 49 853 75 q 892 -22 892 22 z "},"끔":{"ha":1250,"x_min":56,"x_max":1194,"o":"m 951 593 l 951 1057 l 258 1057 l 258 899 l 461 899 l 461 593 l 626 593 l 626 899 l 786 899 l 786 593 l 951 593 m 1194 356 l 1194 514 l 56 514 l 56 356 l 1194 356 m 924 -125 l 924 243 l 326 243 l 326 -125 q 336 -173 326 -150 q 363 -212 346 -196 q 401 -239 379 -229 q 449 -249 424 -249 l 801 -249 q 849 -239 826 -249 q 888 -212 871 -229 q 914 -173 904 -196 q 924 -125 924 -150 m 758 -90 l 492 -90 l 492 83 l 758 83 l 758 -90 z "},"끕":{"ha":1250,"x_min":56,"x_max":1194,"o":"m 951 593 l 951 1057 l 258 1057 l 258 899 l 461 899 l 461 593 l 626 593 l 626 899 l 786 899 l 786 593 l 951 593 m 1194 356 l 1194 514 l 56 514 l 56 356 l 1194 356 m 924 -139 l 924 276 l 758 276 l 758 154 l 492 154 l 492 276 l 326 276 l 326 -139 q 336 -187 326 -164 q 363 -226 346 -210 q 401 -253 379 -243 q 449 -262 424 -262 l 801 -262 q 849 -253 826 -262 q 888 -226 871 -243 q 914 -187 904 -210 q 924 -139 924 -164 m 758 -104 l 492 -104 l 492 -4 l 758 -4 l 758 -104 z "},"끗":{"ha":1250,"x_min":56,"x_max":1194,"o":"m 951 593 l 951 1057 l 258 1057 l 258 899 l 461 899 l 461 593 l 626 593 l 626 899 l 786 899 l 786 593 l 951 593 m 1194 356 l 1194 514 l 56 514 l 56 356 l 1194 356 m 1000 -167 l 625 278 l 250 -167 l 379 -268 l 625 26 l 871 -268 l 1000 -167 z "},"끙":{"ha":1250,"x_min":56,"x_max":1194,"o":"m 951 593 l 951 1057 l 258 1057 l 258 899 l 461 899 l 461 593 l 626 593 l 626 899 l 786 899 l 786 593 l 951 593 m 1194 356 l 1194 514 l 56 514 l 56 356 l 1194 356 m 910 -14 q 886 88 910 40 q 824 170 863 135 q 733 226 785 206 q 625 247 681 247 q 517 226 568 247 q 426 170 465 206 q 363 88 386 135 q 340 -14 340 40 q 364 -117 340 -69 q 426 -201 388 -165 q 517 -256 465 -236 q 625 -276 568 -276 q 733 -256 681 -276 q 824 -201 785 -236 q 886 -117 863 -165 q 910 -14 910 -69 m 744 -14 q 710 -90 744 -60 q 625 -121 675 -121 q 540 -90 575 -121 q 506 -14 506 -60 q 540 61 506 31 q 625 92 575 92 q 710 61 675 92 q 744 -14 744 31 z "},"끝":{"ha":1250,"x_min":56,"x_max":1194,"o":"m 951 593 l 951 1057 l 258 1057 l 258 899 l 461 899 l 461 593 l 626 593 l 626 899 l 786 899 l 786 593 l 951 593 m 1194 356 l 1194 514 l 56 514 l 56 356 l 1194 356 m 924 -276 l 924 -125 l 492 -125 l 492 -76 l 910 -76 l 910 71 l 492 71 l 492 118 l 924 118 l 924 269 l 326 269 l 326 -153 q 336 -201 326 -178 q 363 -240 346 -224 q 401 -267 379 -257 q 449 -276 424 -276 l 924 -276 z "},"끼":{"ha":1250,"x_min":142,"x_max":1056,"o":"m 1056 71 l 1056 1085 l 892 1085 l 892 71 l 1056 71 m 501 900 l 596 900 l 399 475 l 546 411 l 813 992 l 706 1058 l 368 1058 l 153 1058 l 153 900 l 328 900 l 142 500 l 288 436 l 501 900 z "},"끽":{"ha":1250,"x_min":139,"x_max":1056,"o":"m 499 899 l 586 899 l 394 539 l 538 468 l 817 993 l 704 1057 l 368 1057 l 153 1057 l 153 899 l 318 899 l 139 563 l 281 490 l 499 899 m 1056 -249 l 1056 283 l 1056 1085 l 892 1085 l 892 283 l 449 283 l 449 125 l 892 125 l 892 -249 l 1056 -249 z "},"낀":{"ha":1250,"x_min":139,"x_max":1069,"o":"m 1056 200 l 1056 1085 l 892 1085 l 892 200 l 1056 200 m 499 899 l 586 899 l 394 539 l 538 468 l 817 993 l 704 1057 l 368 1057 l 153 1057 l 153 899 l 318 899 l 139 563 l 281 490 l 499 899 m 1069 -249 l 1069 -90 l 625 -90 l 625 229 l 461 229 l 461 -125 q 471 -173 461 -150 q 497 -212 481 -196 q 536 -239 514 -229 q 583 -249 558 -249 l 1069 -249 z "},"낄":{"ha":1250,"x_min":139,"x_max":1069,"o":"m 499 899 l 586 899 l 394 539 l 538 468 l 817 993 l 704 1057 l 368 1057 l 153 1057 l 153 899 l 318 899 l 139 563 l 281 490 l 499 899 m 1069 -276 l 1069 -124 l 625 -124 l 625 -62 l 1056 -62 l 1056 297 l 1056 1085 l 892 1085 l 892 297 l 461 297 l 461 144 l 892 144 l 892 85 l 461 85 l 461 -153 q 471 -201 461 -178 q 497 -240 481 -224 q 536 -267 514 -257 q 583 -276 558 -276 l 1069 -276 z "},"낌":{"ha":1250,"x_min":139,"x_max":1056,"o":"m 499 899 l 586 899 l 394 539 l 538 468 l 817 993 l 704 1057 l 368 1057 l 153 1057 l 153 899 l 318 899 l 139 563 l 281 490 l 499 899 m 1056 -125 l 1056 283 l 1056 1085 l 892 1085 l 892 283 l 461 283 l 461 -125 q 471 -173 461 -150 q 497 -212 481 -196 q 536 -239 514 -229 q 583 -249 558 -249 l 933 -249 q 981 -239 958 -249 q 1019 -212 1003 -229 q 1046 -173 1036 -196 q 1056 -125 1056 -150 m 892 -90 l 625 -90 l 625 125 l 892 125 l 892 -90 z "},"낍":{"ha":1250,"x_min":139,"x_max":1056,"o":"m 499 899 l 586 899 l 394 539 l 538 468 l 817 993 l 704 1057 l 368 1057 l 153 1057 l 153 899 l 318 899 l 139 563 l 281 490 l 499 899 m 1056 -132 l 1056 283 l 1056 1085 l 892 1085 l 892 200 l 892 161 l 625 161 l 625 283 l 461 283 l 461 -132 q 471 -180 461 -157 q 497 -219 481 -203 q 536 -246 514 -236 q 583 -256 558 -256 l 933 -256 q 981 -246 958 -256 q 1019 -219 1003 -236 q 1046 -180 1036 -203 q 1056 -132 1056 -157 m 892 -97 l 625 -97 l 625 3 l 892 3 l 892 -97 z "},"낏":{"ha":1250,"x_min":139,"x_max":1106,"o":"m 1057 199 l 1057 1085 l 893 1085 l 893 199 l 1057 199 m 499 899 l 586 899 l 394 539 l 538 468 l 817 993 l 704 1057 l 368 1057 l 153 1057 l 153 899 l 318 899 l 139 563 l 281 490 l 499 899 m 1106 -167 l 732 278 l 360 -167 l 489 -268 l 732 26 l 976 -268 l 1106 -167 z "},"낑":{"ha":1250,"x_min":139,"x_max":1056,"o":"m 1056 -1 l 1056 1085 l 892 1085 l 892 247 q 774 272 839 272 q 666 251 717 272 q 576 192 615 229 q 515 106 538 156 q 492 -1 492 56 q 515 -108 492 -58 q 576 -196 538 -158 q 665 -255 614 -233 q 774 -276 717 -276 q 882 -255 831 -276 q 972 -196 933 -233 q 1033 -108 1010 -158 q 1056 -1 1056 -58 m 892 -1 q 857 -87 892 -54 q 774 -121 822 -121 q 690 -87 725 -121 q 656 -1 656 -54 q 690 84 656 51 q 774 117 725 117 q 857 84 822 117 q 892 -1 892 51 m 499 899 l 586 899 l 394 539 l 538 468 l 817 993 l 704 1057 l 368 1057 l 153 1057 l 153 899 l 318 899 l 139 563 l 281 490 l 499 899 z "},"나":{"ha":1250,"x_min":153,"x_max":1181,"o":"m 1181 664 l 1181 822 l 1006 822 l 1006 1085 l 840 1085 l 840 71 l 1006 71 l 1006 664 l 1181 664 m 668 449 l 668 606 l 317 606 l 317 1058 l 153 1058 l 153 571 q 163 524 153 546 q 189 485 172 501 q 228 458 206 468 q 275 449 250 449 l 668 449 z "},"낙":{"ha":1250,"x_min":153,"x_max":1181,"o":"m 668 499 l 668 657 l 317 657 l 317 1057 l 153 1057 l 153 622 q 163 574 153 597 q 189 535 172 551 q 228 508 206 518 q 275 499 250 499 l 668 499 m 1006 -249 l 1006 283 l 1006 701 l 1181 701 l 1181 861 l 1006 861 l 1006 1085 l 840 1085 l 840 283 l 396 283 l 396 125 l 840 125 l 840 -249 l 1006 -249 z "},"낚":{"ha":1250,"x_min":153,"x_max":1181,"o":"m 668 499 l 668 657 l 317 657 l 317 1057 l 153 1057 l 153 622 q 163 574 153 597 q 189 535 172 551 q 228 508 206 518 q 275 499 250 499 l 668 499 m 1006 -249 l 1006 283 l 1006 701 l 1181 701 l 1181 861 l 1006 861 l 1006 1085 l 840 1085 l 840 283 l 288 283 l 288 125 l 489 125 l 489 -249 l 654 -249 l 654 125 l 840 125 l 840 -249 l 1006 -249 z "},"난":{"ha":1250,"x_min":153,"x_max":1181,"o":"m 1181 701 l 1181 861 l 1006 861 l 1006 1085 l 840 1085 l 840 200 l 1006 200 l 1006 701 l 1181 701 m 668 499 l 668 657 l 317 657 l 317 1057 l 153 1057 l 153 622 q 163 574 153 597 q 189 535 172 551 q 228 508 206 518 q 275 499 250 499 l 668 499 m 1018 -249 l 1018 -90 l 574 -90 l 574 229 l 410 229 l 410 -125 q 445 -212 410 -176 q 532 -249 481 -249 l 1018 -249 z "},"낟":{"ha":1250,"x_min":153,"x_max":1181,"o":"m 668 499 l 668 657 l 317 657 l 317 1057 l 153 1057 l 153 622 q 163 574 153 597 q 189 535 172 551 q 228 508 206 518 q 275 499 250 499 l 668 499 m 1018 -249 l 1018 -90 l 574 -90 l 574 125 l 1006 125 l 1006 283 l 1006 701 l 1181 701 l 1181 861 l 1006 861 l 1006 1085 l 840 1085 l 840 283 l 410 283 l 410 -125 q 445 -212 410 -176 q 532 -249 481 -249 l 1018 -249 z "},"날":{"ha":1250,"x_min":153,"x_max":1181,"o":"m 668 497 l 668 657 l 317 657 l 317 1057 l 153 1057 l 153 621 q 163 574 153 596 q 189 534 172 551 q 228 507 206 517 q 275 497 250 497 l 668 497 m 1018 -276 l 1018 -124 l 574 -124 l 574 -62 l 1006 -62 l 1006 297 l 1006 701 l 1181 701 l 1181 861 l 1006 861 l 1006 1085 l 840 1085 l 840 297 l 410 297 l 410 144 l 840 144 l 840 85 l 410 85 l 410 -153 q 445 -240 410 -204 q 532 -276 481 -276 l 1018 -276 z "},"낡":{"ha":1250,"x_min":153,"x_max":1181,"o":"m 668 499 l 668 657 l 317 657 l 317 1057 l 153 1057 l 153 622 q 163 574 153 597 q 189 535 172 551 q 228 508 206 518 q 275 499 250 499 l 668 499 m 667 -262 l 667 -110 l 425 -110 l 425 -56 l 654 -56 l 654 138 l 840 138 l 840 -262 l 1006 -262 l 1006 297 l 1006 701 l 1181 701 l 1181 861 l 1006 861 l 1006 1085 l 840 1085 l 840 297 l 597 297 l 260 297 l 260 144 l 489 144 l 489 92 l 260 92 l 260 -139 q 269 -187 260 -164 q 296 -226 279 -210 q 335 -253 313 -243 q 382 -262 357 -262 l 667 -262 z "},"낢":{"ha":1250,"x_min":153,"x_max":1181,"o":"m 668 499 l 668 657 l 317 657 l 317 1057 l 153 1057 l 153 622 q 163 574 153 597 q 189 535 172 551 q 228 508 206 518 q 275 499 250 499 l 668 499 m 1006 -139 l 1006 297 l 1006 701 l 1181 701 l 1181 861 l 1006 861 l 1006 1085 l 840 1085 l 840 297 l 611 297 l 611 -139 q 647 -226 611 -190 q 735 -262 683 -262 l 882 -262 q 969 -226 933 -262 q 1006 -139 1006 -190 m 840 -104 l 776 -104 l 776 138 l 840 138 l 840 -104 m 586 -262 l 586 -110 l 371 -110 l 371 -56 l 574 -56 l 574 297 l 207 297 l 207 144 l 408 144 l 408 92 l 207 92 l 207 -139 q 242 -226 207 -190 q 329 -262 278 -262 l 586 -262 z "},"남":{"ha":1250,"x_min":153,"x_max":1181,"o":"m 668 499 l 668 657 l 317 657 l 317 1057 l 153 1057 l 153 622 q 163 574 153 597 q 189 535 172 551 q 228 508 206 518 q 275 499 250 499 l 668 499 m 1006 -125 l 1006 283 l 1006 701 l 1181 701 l 1181 861 l 1006 861 l 1006 1085 l 840 1085 l 840 283 l 410 283 l 410 -125 q 445 -212 410 -176 q 532 -249 481 -249 l 882 -249 q 969 -212 933 -249 q 1006 -125 1006 -176 m 840 -90 l 574 -90 l 574 125 l 840 125 l 840 -90 z "},"납":{"ha":1250,"x_min":153,"x_max":1181,"o":"m 668 499 l 668 657 l 317 657 l 317 1057 l 153 1057 l 153 622 q 163 574 153 597 q 189 535 172 551 q 228 508 206 518 q 275 499 250 499 l 668 499 m 1006 -132 l 1006 283 l 1006 701 l 1181 701 l 1181 861 l 1006 861 l 1006 1085 l 840 1085 l 840 200 l 840 161 l 574 161 l 574 283 l 410 283 l 410 -132 q 445 -219 410 -183 q 532 -256 481 -256 l 882 -256 q 969 -219 933 -256 q 1006 -132 1006 -183 m 840 -97 l 574 -97 l 574 3 l 840 3 l 840 -97 z "},"낫":{"ha":1250,"x_min":153,"x_max":1181,"o":"m 1181 701 l 1181 861 l 1006 861 l 1006 1085 l 840 1085 l 840 199 l 1006 199 l 1006 701 l 1181 701 m 668 499 l 668 657 l 317 657 l 317 1057 l 153 1057 l 153 622 q 163 574 153 597 q 189 535 172 551 q 228 508 206 518 q 275 499 250 499 l 668 499 m 1053 -167 l 681 278 l 307 -167 l 436 -268 l 681 26 l 925 -268 l 1053 -167 z "},"났":{"ha":1250,"x_min":153,"x_max":1181,"o":"m 668 499 l 668 657 l 317 657 l 317 1057 l 153 1057 l 153 622 q 163 574 153 597 q 189 535 172 551 q 228 508 206 518 q 275 499 250 499 l 668 499 m 1053 -203 l 856 199 l 1006 199 l 1006 701 l 1181 701 l 1181 861 l 1006 861 l 1006 1085 l 840 1085 l 840 231 l 807 300 l 640 22 l 474 300 l 228 -203 l 375 -267 l 489 -31 l 640 -261 l 792 -31 l 907 -267 l 1053 -203 z "},"낭":{"ha":1250,"x_min":153,"x_max":1181,"o":"m 1181 701 l 1181 861 l 1006 861 l 1006 1085 l 840 1085 l 840 247 q 722 272 788 272 q 614 251 665 272 q 524 192 563 229 q 462 106 485 156 q 439 -1 439 56 q 462 -108 439 -58 q 523 -196 485 -158 q 613 -255 561 -233 q 722 -276 664 -276 q 831 -255 779 -276 q 921 -196 882 -233 q 983 -108 960 -158 q 1006 -1 1006 -58 l 1006 701 l 1181 701 m 840 -1 q 806 -87 840 -54 q 722 -121 771 -121 q 638 -87 674 -121 q 603 -1 603 -54 q 638 84 603 51 q 722 117 674 117 q 806 84 771 117 q 840 -1 840 51 m 668 497 l 668 657 l 317 657 l 317 1057 l 153 1057 l 153 621 q 163 574 153 596 q 189 534 172 551 q 228 507 206 517 q 275 497 250 497 l 668 497 z "},"낮":{"ha":1250,"x_min":153,"x_max":1181,"o":"m 668 499 l 668 657 l 317 657 l 317 1057 l 153 1057 l 153 622 q 163 574 153 597 q 189 535 172 551 q 228 508 206 518 q 275 499 250 499 l 668 499 m 1072 -167 l 832 125 l 1006 125 l 1006 283 l 1006 701 l 1181 701 l 1181 861 l 1006 861 l 1006 1085 l 840 1085 l 840 283 l 410 283 l 410 125 l 582 125 l 342 -167 l 468 -268 l 707 24 l 946 -268 l 1072 -167 z "},"낯":{"ha":1250,"x_min":153,"x_max":1181,"o":"m 668 499 l 668 657 l 317 657 l 317 1057 l 153 1057 l 153 622 q 163 574 153 597 q 189 535 172 551 q 228 508 206 518 q 275 499 250 499 l 668 499 m 1072 -156 l 835 97 l 1006 97 l 1006 257 l 1006 701 l 1181 701 l 1181 861 l 1006 861 l 1006 1085 l 840 1085 l 840 257 l 789 257 l 789 365 l 625 365 l 625 257 l 410 257 l 410 97 l 581 97 l 342 -156 l 461 -269 l 707 0 l 953 -269 l 1072 -156 z "},"낱":{"ha":1250,"x_min":153,"x_max":1181,"o":"m 668 499 l 668 657 l 317 657 l 317 1057 l 153 1057 l 153 622 q 163 574 153 597 q 189 535 172 551 q 228 508 206 518 q 275 499 250 499 l 668 499 m 1006 -262 l 1006 -110 l 574 -110 l 574 -62 l 992 -62 l 992 85 l 574 85 l 574 132 l 1006 132 l 1006 283 l 1006 701 l 1181 701 l 1181 861 l 1006 861 l 1006 1085 l 840 1085 l 840 283 l 410 283 l 410 -139 q 445 -226 410 -190 q 532 -262 481 -262 l 1006 -262 z "},"낳":{"ha":1250,"x_min":153,"x_max":1181,"o":"m 668 497 l 668 657 l 317 657 l 317 1057 l 153 1057 l 153 621 q 163 574 153 596 q 189 534 172 551 q 228 507 206 517 q 275 497 250 497 l 668 497 m 926 -18 q 899 97 926 44 l 1006 97 l 1006 256 l 1006 701 l 1181 701 l 1181 861 l 1006 861 l 1006 1085 l 840 1085 l 840 256 l 742 256 l 742 365 l 578 365 l 578 256 l 315 256 l 315 97 l 421 97 q 393 -18 393 44 q 415 -119 393 -72 q 473 -201 436 -165 q 558 -256 510 -236 q 660 -276 607 -276 q 763 -256 714 -276 q 847 -199 811 -235 q 905 -117 883 -164 q 926 -18 926 -71 m 763 -18 q 733 -92 763 -62 q 660 -121 703 -121 q 587 -92 617 -121 q 557 -18 557 -62 q 587 55 557 26 q 660 83 617 83 q 733 55 703 83 q 763 -18 763 26 z "},"내":{"ha":1250,"x_min":153,"x_max":1069,"o":"m 1069 71 l 1069 1085 l 906 1085 l 906 835 l 832 835 l 832 1085 l 671 1085 l 671 71 l 832 71 l 832 678 l 906 678 l 906 71 l 1069 71 m 586 449 l 586 606 l 317 606 l 317 1058 l 153 1058 l 153 571 q 163 524 153 546 q 189 485 172 501 q 228 458 206 468 q 275 449 250 449 l 586 449 z "},"낵":{"ha":1250,"x_min":153,"x_max":1069,"o":"m 586 499 l 586 657 l 317 657 l 317 1057 l 153 1057 l 153 622 q 163 574 153 597 q 189 535 172 551 q 228 508 206 518 q 275 499 250 499 l 586 499 m 1069 -249 l 1069 283 l 1069 1085 l 906 1085 l 906 861 l 832 861 l 832 1085 l 671 1085 l 671 363 l 832 363 l 832 701 l 906 701 l 906 283 l 463 283 l 463 125 l 906 125 l 906 -249 l 1069 -249 z "},"낸":{"ha":1250,"x_min":153,"x_max":1083,"o":"m 1069 200 l 1069 1085 l 906 1085 l 906 861 l 832 861 l 832 1085 l 671 1085 l 671 200 l 832 200 l 832 701 l 906 701 l 906 200 l 1069 200 m 586 499 l 586 657 l 317 657 l 317 1057 l 153 1057 l 153 622 q 163 574 153 597 q 189 535 172 551 q 228 508 206 518 q 275 499 250 499 l 586 499 m 1083 -249 l 1083 -90 l 639 -90 l 639 229 l 475 229 l 475 -125 q 485 -173 475 -150 q 511 -212 494 -196 q 550 -239 528 -229 q 597 -249 572 -249 l 1083 -249 z "},"낼":{"ha":1250,"x_min":153,"x_max":1083,"o":"m 586 497 l 586 657 l 317 657 l 317 1057 l 153 1057 l 153 621 q 163 574 153 596 q 189 534 172 551 q 228 507 206 517 q 275 497 250 497 l 586 497 m 1083 -276 l 1083 -124 l 639 -124 l 639 -62 l 1069 -62 l 1069 297 l 1069 1085 l 906 1085 l 906 861 l 832 861 l 832 1085 l 671 1085 l 671 363 l 832 363 l 832 701 l 906 701 l 906 297 l 475 297 l 475 144 l 906 144 l 906 85 l 475 85 l 475 -153 q 485 -201 475 -178 q 511 -240 494 -224 q 550 -267 528 -257 q 597 -276 572 -276 l 1083 -276 z "},"냄":{"ha":1250,"x_min":153,"x_max":1069,"o":"m 586 499 l 586 657 l 317 657 l 317 1057 l 153 1057 l 153 622 q 163 574 153 597 q 189 535 172 551 q 228 508 206 518 q 275 499 250 499 l 586 499 m 1069 -125 l 1069 283 l 1069 1085 l 906 1085 l 906 861 l 832 861 l 832 1085 l 671 1085 l 671 363 l 832 363 l 832 701 l 906 701 l 906 283 l 475 283 l 475 -125 q 485 -173 475 -150 q 511 -212 494 -196 q 550 -239 528 -229 q 597 -249 572 -249 l 947 -249 q 994 -239 972 -249 q 1033 -212 1017 -229 q 1060 -173 1050 -196 q 1069 -125 1069 -150 m 906 -90 l 639 -90 l 639 125 l 906 125 l 906 -90 z "},"냅":{"ha":1250,"x_min":153,"x_max":1069,"o":"m 586 499 l 586 657 l 317 657 l 317 1057 l 153 1057 l 153 622 q 163 574 153 597 q 189 535 172 551 q 228 508 206 518 q 275 499 250 499 l 586 499 m 1069 -132 l 1069 283 l 1069 1085 l 906 1085 l 906 861 l 832 861 l 832 1085 l 671 1085 l 671 363 l 832 363 l 832 701 l 906 701 l 906 200 l 906 161 l 639 161 l 639 283 l 475 283 l 475 -132 q 485 -180 475 -157 q 511 -219 494 -203 q 550 -246 528 -236 q 597 -256 572 -256 l 947 -256 q 994 -246 972 -256 q 1033 -219 1017 -236 q 1060 -180 1050 -203 q 1069 -132 1069 -157 m 906 -97 l 639 -97 l 639 3 l 906 3 l 906 -97 z "},"냇":{"ha":1250,"x_min":153,"x_max":1119,"o":"m 1071 199 l 1071 1085 l 907 1085 l 907 861 l 832 861 l 832 1085 l 671 1085 l 671 363 l 832 363 l 832 701 l 907 701 l 907 199 l 1071 199 m 586 499 l 586 657 l 317 657 l 317 1057 l 153 1057 l 153 622 q 163 574 153 597 q 189 535 172 551 q 228 508 206 518 q 275 499 250 499 l 586 499 m 1119 -167 l 746 278 l 374 -167 l 503 -268 l 746 26 l 990 -268 l 1119 -167 z "},"냈":{"ha":1250,"x_min":153,"x_max":1118,"o":"m 586 499 l 586 657 l 317 657 l 317 1057 l 153 1057 l 153 622 q 163 574 153 597 q 189 535 172 551 q 228 508 206 518 q 275 499 250 499 l 586 499 m 1118 -203 l 922 199 l 1071 199 l 1071 1085 l 907 1085 l 907 861 l 832 861 l 832 1085 l 671 1085 l 671 363 l 832 363 l 832 701 l 907 701 l 907 231 l 874 300 l 706 22 l 540 300 l 296 -203 l 442 -267 l 556 -31 l 706 -261 l 857 -31 l 972 -267 l 1118 -203 z "},"냉":{"ha":1250,"x_min":153,"x_max":1069,"o":"m 1069 -1 l 1069 1085 l 906 1085 l 906 861 l 832 861 l 832 1085 l 671 1085 l 671 363 l 832 363 l 832 701 l 906 701 l 906 247 q 788 272 853 272 q 680 251 731 272 q 590 192 629 229 q 528 106 551 156 q 506 -1 506 56 q 528 -108 506 -58 q 590 -196 551 -158 q 679 -255 628 -233 q 788 -276 731 -276 q 896 -255 844 -276 q 985 -196 947 -233 q 1047 -108 1024 -158 q 1069 -1 1069 -58 m 906 -1 q 871 -87 906 -54 q 788 -121 836 -121 q 704 -87 739 -121 q 669 -1 669 -54 q 704 84 669 51 q 788 117 739 117 q 871 84 836 117 q 906 -1 906 51 m 586 497 l 586 657 l 317 657 l 317 1057 l 153 1057 l 153 621 q 163 574 153 596 q 189 534 172 551 q 228 507 206 517 q 275 497 250 497 l 586 497 z "},"냐":{"ha":1250,"x_min":153,"x_max":1181,"o":"m 1181 550 l 1181 707 l 1006 707 l 1006 792 l 1181 792 l 1181 950 l 1006 950 l 1006 1085 l 840 1085 l 840 71 l 1006 71 l 1006 550 l 1181 550 m 668 449 l 668 606 l 317 606 l 317 1058 l 153 1058 l 153 571 q 163 524 153 546 q 189 485 172 501 q 228 458 206 468 q 275 449 250 449 l 668 449 z "},"냑":{"ha":1250,"x_min":153,"x_max":1181,"o":"m 668 499 l 668 657 l 317 657 l 317 1057 l 153 1057 l 153 622 q 163 574 153 597 q 189 535 172 551 q 228 508 206 518 q 275 499 250 499 l 668 499 m 1006 -249 l 1006 283 l 1006 586 l 1181 586 l 1181 746 l 1006 746 l 1006 817 l 1181 817 l 1181 976 l 1006 976 l 1006 1085 l 840 1085 l 840 283 l 396 283 l 396 125 l 840 125 l 840 -249 l 1006 -249 z "},"냔":{"ha":1250,"x_min":153,"x_max":1181,"o":"m 1181 586 l 1181 746 l 1006 746 l 1006 817 l 1181 817 l 1181 976 l 1006 976 l 1006 1085 l 840 1085 l 840 200 l 1006 200 l 1006 586 l 1181 586 m 668 499 l 668 657 l 317 657 l 317 1057 l 153 1057 l 153 622 q 163 574 153 597 q 189 535 172 551 q 228 508 206 518 q 275 499 250 499 l 668 499 m 1018 -249 l 1018 -90 l 574 -90 l 574 229 l 410 229 l 410 -125 q 445 -212 410 -176 q 532 -249 481 -249 l 1018 -249 z "},"냘":{"ha":1250,"x_min":153,"x_max":1181,"o":"m 668 497 l 668 657 l 317 657 l 317 1057 l 153 1057 l 153 621 q 163 574 153 596 q 189 534 172 551 q 228 507 206 517 q 275 497 250 497 l 668 497 m 1018 -276 l 1018 -124 l 574 -124 l 574 -62 l 1006 -62 l 1006 297 l 1006 586 l 1181 586 l 1181 744 l 1006 744 l 1006 817 l 1181 817 l 1181 976 l 1006 976 l 1006 1085 l 840 1085 l 840 297 l 410 297 l 410 144 l 840 144 l 840 85 l 410 85 l 410 -153 q 445 -240 410 -204 q 532 -276 481 -276 l 1018 -276 z "},"냠":{"ha":1250,"x_min":153,"x_max":1181,"o":"m 668 499 l 668 657 l 317 657 l 317 1057 l 153 1057 l 153 622 q 163 574 153 597 q 189 535 172 551 q 228 508 206 518 q 275 499 250 499 l 668 499 m 1006 -125 l 1006 283 l 1006 586 l 1181 586 l 1181 746 l 1006 746 l 1006 817 l 1181 817 l 1181 976 l 1006 976 l 1006 1085 l 840 1085 l 840 283 l 410 283 l 410 -125 q 445 -212 410 -176 q 532 -249 481 -249 l 882 -249 q 969 -212 933 -249 q 1006 -125 1006 -176 m 840 -90 l 574 -90 l 574 125 l 840 125 l 840 -90 z "},"냥":{"ha":1250,"x_min":153,"x_max":1181,"o":"m 1181 586 l 1181 744 l 1006 744 l 1006 817 l 1181 817 l 1181 976 l 1006 976 l 1006 1085 l 840 1085 l 840 247 q 722 272 788 272 q 614 251 665 272 q 524 192 563 229 q 462 106 485 156 q 439 -1 439 56 q 462 -108 439 -58 q 523 -196 485 -158 q 613 -255 561 -233 q 722 -276 664 -276 q 831 -255 779 -276 q 921 -196 882 -233 q 983 -108 960 -158 q 1006 -1 1006 -58 l 1006 586 l 1181 586 m 840 -1 q 806 -87 840 -54 q 722 -121 771 -121 q 638 -87 674 -121 q 603 -1 603 -54 q 638 84 603 51 q 722 117 674 117 q 806 84 771 117 q 840 -1 840 51 m 668 497 l 668 657 l 317 657 l 317 1057 l 153 1057 l 153 621 q 163 574 153 596 q 189 534 172 551 q 228 507 206 517 q 275 497 250 497 l 668 497 z "},"너":{"ha":1250,"x_min":181,"x_max":1028,"o":"m 1028 71 l 1028 1085 l 864 1085 l 864 889 l 596 889 l 596 732 l 864 732 l 864 71 l 1028 71 m 693 449 l 693 606 l 344 606 l 344 1058 l 181 1058 l 181 571 q 216 485 181 521 q 303 449 251 449 l 693 449 z "},"넉":{"ha":1250,"x_min":181,"x_max":1028,"o":"m 693 499 l 693 657 l 344 657 l 344 1057 l 181 1057 l 181 622 q 216 535 181 571 q 303 499 251 499 l 693 499 m 1028 -249 l 1028 283 l 1028 1085 l 864 1085 l 864 915 l 596 915 l 596 756 l 864 756 l 864 283 l 422 283 l 422 125 l 864 125 l 864 -249 l 1028 -249 z "},"넋":{"ha":1250,"x_min":181,"x_max":1101,"o":"m 694 499 l 694 657 l 344 657 l 344 1057 l 181 1057 l 181 622 q 190 574 181 597 q 217 535 200 551 q 256 508 233 518 q 303 499 278 499 l 694 499 m 639 -249 l 639 -194 l 756 -268 l 861 -93 l 967 -268 l 1101 -182 l 871 199 l 1031 199 l 1031 1085 l 867 1085 l 867 915 l 597 915 l 597 756 l 867 756 l 867 207 l 861 215 l 639 -150 l 639 283 l 274 283 l 274 125 l 475 125 l 475 -249 l 639 -249 z "},"넌":{"ha":1250,"x_min":181,"x_max":1042,"o":"m 1028 200 l 1028 1085 l 865 1085 l 865 915 l 596 915 l 596 756 l 865 756 l 865 200 l 1028 200 m 693 499 l 693 657 l 344 657 l 344 1057 l 181 1057 l 181 622 q 190 574 181 597 q 217 535 200 551 q 256 508 233 518 q 303 499 278 499 l 693 499 m 1042 -249 l 1042 -90 l 599 -90 l 599 229 l 435 229 l 435 -125 q 444 -173 435 -150 q 471 -212 454 -196 q 510 -239 488 -229 q 557 -249 532 -249 l 1042 -249 z "},"널":{"ha":1250,"x_min":181,"x_max":1042,"o":"m 693 497 l 693 657 l 344 657 l 344 1057 l 181 1057 l 181 621 q 190 574 181 596 q 217 534 200 551 q 256 507 233 517 q 303 497 278 497 l 693 497 m 1042 -276 l 1042 -124 l 599 -124 l 599 -62 l 1028 -62 l 1028 297 l 1028 1085 l 865 1085 l 865 915 l 596 915 l 596 756 l 865 756 l 865 297 l 435 297 l 435 144 l 865 144 l 865 85 l 435 85 l 435 -153 q 444 -201 435 -178 q 471 -240 454 -224 q 510 -267 488 -257 q 557 -276 532 -276 l 1042 -276 z "},"넒":{"ha":1250,"x_min":181,"x_max":1028,"o":"m 693 499 l 693 657 l 344 657 l 344 1057 l 181 1057 l 181 622 q 216 535 181 571 q 303 499 251 499 l 693 499 m 1028 -139 l 1028 297 l 1028 1085 l 864 1085 l 864 915 l 596 915 l 596 756 l 864 756 l 864 297 l 636 297 l 636 -139 q 646 -187 636 -164 q 672 -226 656 -210 q 711 -253 689 -243 q 758 -262 733 -262 l 906 -262 q 992 -226 957 -262 q 1028 -139 1028 -190 m 864 -104 l 800 -104 l 800 138 l 864 138 l 864 -104 m 611 -262 l 611 -110 l 397 -110 l 397 -56 l 599 -56 l 599 297 l 233 297 l 233 144 l 435 144 l 435 92 l 233 92 l 233 -139 q 243 -187 233 -164 q 269 -226 253 -210 q 308 -253 286 -243 q 356 -262 331 -262 l 611 -262 z "},"넓":{"ha":1250,"x_min":181,"x_max":1028,"o":"m 693 499 l 693 657 l 344 657 l 344 1057 l 181 1057 l 181 622 q 216 535 181 571 q 303 499 251 499 l 693 499 m 1028 -139 l 1028 297 l 1028 1085 l 864 1085 l 864 915 l 596 915 l 596 756 l 864 756 l 864 199 l 864 161 l 800 161 l 800 297 l 636 297 l 636 -139 q 646 -187 636 -164 q 672 -226 656 -210 q 711 -253 689 -243 q 758 -262 733 -262 l 906 -262 q 992 -226 957 -262 q 1028 -139 1028 -190 m 864 -104 l 800 -104 l 800 3 l 864 3 l 864 -104 m 611 -262 l 611 -110 l 397 -110 l 397 -56 l 599 -56 l 599 297 l 233 297 l 233 144 l 435 144 l 435 92 l 233 92 l 233 -139 q 243 -187 233 -164 q 269 -226 253 -210 q 308 -253 286 -243 q 356 -262 331 -262 l 611 -262 z "},"넘":{"ha":1250,"x_min":181,"x_max":1028,"o":"m 693 499 l 693 657 l 344 657 l 344 1057 l 181 1057 l 181 622 q 216 535 181 571 q 303 499 251 499 l 693 499 m 1028 -125 l 1028 283 l 1028 1085 l 864 1085 l 864 915 l 596 915 l 596 756 l 864 756 l 864 283 l 435 283 l 435 -125 q 444 -173 435 -150 q 471 -212 454 -196 q 510 -239 488 -229 q 557 -249 532 -249 l 906 -249 q 992 -212 957 -249 q 1028 -125 1028 -176 m 864 -90 l 599 -90 l 599 125 l 864 125 l 864 -90 z "},"넙":{"ha":1250,"x_min":181,"x_max":1028,"o":"m 693 499 l 693 657 l 344 657 l 344 1057 l 181 1057 l 181 622 q 216 535 181 571 q 303 499 251 499 l 693 499 m 1028 -132 l 1028 283 l 1028 1085 l 864 1085 l 864 915 l 596 915 l 596 756 l 864 756 l 864 200 l 864 161 l 599 161 l 599 283 l 435 283 l 435 -132 q 444 -180 435 -157 q 471 -219 454 -203 q 510 -246 488 -236 q 557 -256 532 -256 l 906 -256 q 992 -219 957 -256 q 1028 -132 1028 -183 m 864 -97 l 599 -97 l 599 3 l 864 3 l 864 -97 z "},"넛":{"ha":1250,"x_min":181,"x_max":1078,"o":"m 1029 199 l 1029 1085 l 865 1085 l 865 915 l 597 915 l 597 756 l 865 756 l 865 199 l 1029 199 m 693 499 l 693 657 l 344 657 l 344 1057 l 181 1057 l 181 622 q 190 574 181 597 q 217 535 200 551 q 256 508 233 518 q 303 499 278 499 l 693 499 m 1078 -167 l 706 278 l 333 -167 l 463 -268 l 706 26 l 949 -268 l 1078 -167 z "},"넜":{"ha":1250,"x_min":181,"x_max":1076,"o":"m 693 499 l 693 657 l 344 657 l 344 1057 l 181 1057 l 181 622 q 190 574 181 597 q 217 535 200 551 q 256 508 233 518 q 303 499 278 499 l 693 499 m 1076 -203 l 881 199 l 1029 199 l 1029 1085 l 865 1085 l 865 915 l 597 915 l 597 756 l 865 756 l 865 231 l 832 300 l 665 22 l 500 300 l 256 -203 l 401 -267 l 515 -31 l 665 -261 l 817 -31 l 931 -267 l 1076 -203 z "},"넝":{"ha":1250,"x_min":181,"x_max":1028,"o":"m 693 497 l 693 657 l 344 657 l 344 1057 l 181 1057 l 181 621 q 190 574 181 596 q 217 534 200 551 q 256 507 233 517 q 303 497 278 497 l 693 497 m 1028 -1 l 1028 1085 l 864 1085 l 864 915 l 596 915 l 596 756 l 864 756 l 864 247 q 746 272 811 272 q 640 251 690 272 q 550 192 589 229 q 488 106 511 156 q 465 -1 465 56 q 488 -108 465 -58 q 549 -196 511 -158 q 638 -255 588 -233 q 746 -276 689 -276 q 854 -255 803 -276 q 944 -196 906 -233 q 1005 -108 982 -158 q 1028 -1 1028 -58 m 864 -1 q 829 -87 864 -54 q 746 -121 794 -121 q 663 -87 699 -121 q 628 -1 628 -54 q 663 84 628 51 q 746 117 699 117 q 829 84 794 117 q 864 -1 864 51 z "},"넣":{"ha":1250,"x_min":181,"x_max":1028,"o":"m 693 497 l 693 657 l 344 657 l 344 1057 l 181 1057 l 181 621 q 190 574 181 596 q 217 534 200 551 q 256 507 233 517 q 303 497 278 497 l 693 497 m 950 -18 q 922 97 950 44 l 1028 97 l 1028 256 l 1028 1085 l 864 1085 l 864 915 l 596 915 l 596 756 l 864 756 l 864 256 l 767 256 l 767 365 l 603 365 l 603 256 l 342 256 l 342 97 l 447 97 q 419 -18 419 44 q 441 -119 419 -72 q 499 -201 463 -165 q 583 -256 535 -236 q 685 -276 632 -276 q 785 -256 738 -276 q 870 -199 833 -235 q 928 -117 907 -164 q 950 -18 950 -71 m 786 -18 q 757 -92 786 -62 q 685 -121 728 -121 q 613 -92 642 -121 q 583 -18 583 -62 q 613 55 583 26 q 685 83 642 83 q 757 55 728 83 q 786 -18 786 26 z "},"네":{"ha":1250,"x_min":153,"x_max":1069,"o":"m 1069 71 l 1069 1085 l 906 1085 l 906 71 l 1069 71 m 854 71 l 854 1085 l 693 1085 l 693 889 l 489 889 l 489 732 l 693 732 l 693 71 l 854 71 m 586 449 l 586 606 l 317 606 l 317 1058 l 153 1058 l 153 571 q 163 524 153 546 q 189 485 172 501 q 228 458 206 468 q 275 449 250 449 l 586 449 z "},"넥":{"ha":1250,"x_min":153,"x_max":1069,"o":"m 854 363 l 854 1085 l 693 1085 l 693 915 l 489 915 l 489 756 l 693 756 l 693 363 l 854 363 m 586 499 l 586 657 l 317 657 l 317 1057 l 153 1057 l 153 622 q 163 574 153 597 q 189 535 172 551 q 228 508 206 518 q 275 499 250 499 l 586 499 m 1069 -249 l 1069 283 l 1069 1085 l 906 1085 l 906 283 l 463 283 l 463 125 l 906 125 l 906 -249 l 1069 -249 z "},"넨":{"ha":1250,"x_min":153,"x_max":1083,"o":"m 1069 200 l 1069 1085 l 906 1085 l 906 200 l 1069 200 m 854 200 l 854 1085 l 693 1085 l 693 915 l 489 915 l 489 756 l 693 756 l 693 200 l 854 200 m 586 499 l 586 657 l 317 657 l 317 1057 l 153 1057 l 153 622 q 163 574 153 597 q 189 535 172 551 q 228 508 206 518 q 275 499 250 499 l 586 499 m 1083 -249 l 1083 -90 l 639 -90 l 639 229 l 475 229 l 475 -125 q 485 -173 475 -150 q 511 -212 494 -196 q 550 -239 528 -229 q 597 -249 572 -249 l 1083 -249 z "},"넬":{"ha":1250,"x_min":153,"x_max":1083,"o":"m 854 363 l 854 1085 l 693 1085 l 693 915 l 489 915 l 489 756 l 693 756 l 693 363 l 854 363 m 586 497 l 586 657 l 317 657 l 317 1057 l 153 1057 l 153 621 q 163 574 153 596 q 189 534 172 551 q 228 507 206 517 q 275 497 250 497 l 586 497 m 1083 -276 l 1083 -124 l 639 -124 l 639 -62 l 1069 -62 l 1069 297 l 1069 1085 l 906 1085 l 906 297 l 475 297 l 475 144 l 906 144 l 906 85 l 475 85 l 475 -153 q 485 -201 475 -178 q 511 -240 494 -224 q 550 -267 528 -257 q 597 -276 572 -276 l 1083 -276 z "},"넴":{"ha":1250,"x_min":153,"x_max":1069,"o":"m 854 363 l 854 1085 l 693 1085 l 693 915 l 489 915 l 489 756 l 693 756 l 693 363 l 854 363 m 586 499 l 586 657 l 317 657 l 317 1057 l 153 1057 l 153 622 q 163 574 153 597 q 189 535 172 551 q 228 508 206 518 q 275 499 250 499 l 586 499 m 1069 -125 l 1069 283 l 1069 1085 l 906 1085 l 906 283 l 475 283 l 475 -125 q 485 -173 475 -150 q 511 -212 494 -196 q 550 -239 528 -229 q 597 -249 572 -249 l 947 -249 q 994 -239 972 -249 q 1033 -212 1017 -229 q 1060 -173 1050 -196 q 1069 -125 1069 -150 m 906 -90 l 639 -90 l 639 125 l 906 125 l 906 -90 z "},"넵":{"ha":1250,"x_min":153,"x_max":1069,"o":"m 854 363 l 854 1085 l 693 1085 l 693 915 l 489 915 l 489 756 l 693 756 l 693 363 l 854 363 m 586 499 l 586 657 l 317 657 l 317 1057 l 153 1057 l 153 622 q 163 574 153 597 q 189 535 172 551 q 228 508 206 518 q 275 499 250 499 l 586 499 m 1069 -132 l 1069 283 l 1069 1085 l 906 1085 l 906 200 l 906 161 l 639 161 l 639 283 l 475 283 l 475 -132 q 485 -180 475 -157 q 511 -219 494 -203 q 550 -246 528 -236 q 597 -256 572 -256 l 947 -256 q 994 -246 972 -256 q 1033 -219 1017 -236 q 1060 -180 1050 -203 q 1069 -132 1069 -157 m 906 -97 l 639 -97 l 639 3 l 906 3 l 906 -97 z "},"넷":{"ha":1250,"x_min":153,"x_max":1119,"o":"m 1071 199 l 1071 1085 l 907 1085 l 907 199 l 1071 199 m 856 363 l 907 1085 l 694 1085 l 694 915 l 489 915 l 489 756 l 694 756 l 694 363 l 856 363 m 586 499 l 586 657 l 317 657 l 317 1057 l 153 1057 l 153 622 q 163 574 153 597 q 189 535 172 551 q 228 508 206 518 q 275 499 250 499 l 586 499 m 1119 -167 l 746 278 l 374 -167 l 503 -268 l 746 26 l 990 -268 l 1119 -167 z "},"넸":{"ha":1250,"x_min":153,"x_max":1118,"o":"m 856 363 l 856 1085 l 694 1085 l 694 915 l 489 915 l 489 756 l 694 756 l 694 363 l 856 363 m 586 499 l 586 657 l 317 657 l 317 1057 l 153 1057 l 153 622 q 163 574 153 597 q 189 535 172 551 q 228 508 206 518 q 275 499 250 499 l 586 499 m 1118 -203 l 922 199 l 1071 199 l 1071 1085 l 907 1085 l 907 231 l 874 300 l 706 22 l 540 300 l 296 -203 l 442 -267 l 556 -31 l 706 -261 l 857 -31 l 972 -267 l 1118 -203 z "},"넹":{"ha":1250,"x_min":153,"x_max":1069,"o":"m 854 363 l 854 1085 l 693 1085 l 693 915 l 489 915 l 489 756 l 693 756 l 693 363 l 854 363 m 1069 -1 l 1069 1085 l 906 1085 l 906 247 q 788 272 853 272 q 680 251 731 272 q 590 192 629 229 q 528 106 551 156 q 506 -1 506 56 q 528 -108 506 -58 q 590 -196 551 -158 q 679 -255 628 -233 q 788 -276 731 -276 q 896 -255 844 -276 q 985 -196 947 -233 q 1047 -108 1024 -158 q 1069 -1 1069 -58 m 906 -1 q 871 -87 906 -54 q 788 -121 836 -121 q 704 -87 739 -121 q 669 -1 669 -54 q 704 84 669 51 q 788 117 739 117 q 871 84 836 117 q 906 -1 906 51 m 586 497 l 586 657 l 317 657 l 317 1057 l 153 1057 l 153 621 q 163 574 153 596 q 189 534 172 551 q 228 507 206 517 q 275 497 250 497 l 586 497 z "},"녀":{"ha":1250,"x_min":181,"x_max":1028,"o":"m 1028 71 l 1028 1085 l 864 1085 l 864 976 l 596 976 l 596 819 l 864 819 l 864 761 l 596 761 l 596 603 l 864 603 l 864 71 l 1028 71 m 693 435 l 693 593 l 344 593 l 344 1058 l 181 1058 l 181 557 q 216 471 181 507 q 303 435 251 435 l 693 435 z "},"녁":{"ha":1250,"x_min":181,"x_max":1028,"o":"m 1028 -249 l 1028 283 l 1028 1085 l 864 1085 l 864 990 l 596 990 l 596 831 l 864 831 l 864 772 l 596 772 l 596 643 l 344 643 l 344 1057 l 181 1057 l 181 608 q 216 521 181 557 q 303 485 251 485 l 693 485 l 693 614 l 864 614 l 864 283 l 422 283 l 422 125 l 864 125 l 864 -249 l 1028 -249 z "},"년":{"ha":1250,"x_min":181,"x_max":1042,"o":"m 693 485 l 693 614 l 865 614 l 865 200 l 1028 200 l 1028 1085 l 865 1085 l 865 990 l 596 990 l 596 831 l 865 831 l 865 772 l 596 772 l 596 643 l 344 643 l 344 1057 l 181 1057 l 181 608 q 190 560 181 583 q 217 521 200 538 q 256 494 233 504 q 303 485 278 485 l 693 485 m 1042 -249 l 1042 -90 l 599 -90 l 599 229 l 435 229 l 435 -125 q 444 -173 435 -150 q 471 -212 454 -196 q 510 -239 488 -229 q 557 -249 532 -249 l 1042 -249 z "},"녈":{"ha":1250,"x_min":181,"x_max":1042,"o":"m 1042 -276 l 1042 -124 l 599 -124 l 599 -62 l 1028 -62 l 1028 297 l 1028 1085 l 865 1085 l 865 990 l 596 990 l 596 831 l 865 831 l 865 772 l 596 772 l 596 643 l 344 643 l 344 1057 l 181 1057 l 181 608 q 190 560 181 583 q 217 521 200 538 q 256 494 233 504 q 303 485 278 485 l 693 485 l 693 614 l 865 614 l 865 297 l 435 297 l 435 144 l 865 144 l 865 85 l 435 85 l 435 -153 q 444 -201 435 -178 q 471 -240 454 -224 q 510 -267 488 -257 q 557 -276 532 -276 l 1042 -276 z "},"념":{"ha":1250,"x_min":181,"x_max":1028,"o":"m 1028 -125 l 1028 283 l 1028 1085 l 864 1085 l 864 990 l 596 990 l 596 831 l 864 831 l 864 772 l 596 772 l 596 643 l 344 643 l 344 1057 l 181 1057 l 181 608 q 216 521 181 557 q 303 485 251 485 l 693 485 l 693 614 l 864 614 l 864 283 l 435 283 l 435 -125 q 444 -173 435 -150 q 471 -212 454 -196 q 510 -239 488 -229 q 557 -249 532 -249 l 906 -249 q 992 -212 957 -249 q 1028 -125 1028 -176 m 864 -90 l 599 -90 l 599 125 l 864 125 l 864 -90 z "},"녑":{"ha":1250,"x_min":181,"x_max":1028,"o":"m 1028 -132 l 1028 283 l 1028 1085 l 864 1085 l 864 990 l 596 990 l 596 831 l 864 831 l 864 772 l 596 772 l 596 643 l 344 643 l 344 1057 l 181 1057 l 181 608 q 216 521 181 557 q 303 485 251 485 l 693 485 l 693 614 l 864 614 l 864 200 l 864 161 l 599 161 l 599 283 l 435 283 l 435 -132 q 444 -180 435 -157 q 471 -219 454 -203 q 510 -246 488 -236 q 557 -256 532 -256 l 906 -256 q 992 -219 957 -256 q 1028 -132 1028 -183 m 864 -97 l 599 -97 l 599 3 l 864 3 l 864 -97 z "},"녔":{"ha":1250,"x_min":181,"x_max":1076,"o":"m 1076 -203 l 881 199 l 1029 199 l 1029 1085 l 865 1085 l 865 990 l 597 990 l 597 831 l 865 831 l 865 772 l 597 772 l 597 643 l 344 643 l 344 1057 l 181 1057 l 181 608 q 190 560 181 583 q 217 521 200 538 q 256 494 233 504 q 303 485 278 485 l 693 485 l 693 614 l 865 614 l 865 231 l 832 300 l 665 22 l 500 300 l 256 -203 l 401 -267 l 515 -31 l 665 -261 l 817 -31 l 931 -267 l 1076 -203 z "},"녕":{"ha":1250,"x_min":181,"x_max":1028,"o":"m 1028 -1 l 1028 1085 l 864 1085 l 864 990 l 596 990 l 596 831 l 864 831 l 864 772 l 596 772 l 596 643 l 344 643 l 344 1057 l 181 1057 l 181 608 q 216 521 181 557 q 303 485 251 485 l 693 485 l 693 614 l 864 614 l 864 247 q 746 272 811 272 q 640 251 690 272 q 550 192 589 229 q 488 106 511 156 q 465 -1 465 56 q 488 -108 465 -58 q 549 -196 511 -158 q 638 -255 588 -233 q 746 -276 689 -276 q 854 -255 803 -276 q 944 -196 906 -233 q 1005 -108 982 -158 q 1028 -1 1028 -58 m 864 -1 q 829 -87 864 -54 q 746 -121 794 -121 q 663 -87 699 -121 q 628 -1 628 -54 q 663 84 628 51 q 746 117 699 117 q 829 84 794 117 q 864 -1 864 51 z "},"녘":{"ha":1250,"x_min":181,"x_max":1028,"o":"m 864 -106 l 864 -249 l 1028 -249 l 1028 283 l 1028 1085 l 864 1085 l 864 990 l 596 990 l 596 831 l 864 831 l 864 772 l 596 772 l 596 643 l 344 643 l 344 1057 l 181 1057 l 181 608 q 216 521 181 557 q 303 485 251 485 l 693 485 l 693 614 l 864 614 l 864 283 l 422 283 l 422 125 l 864 125 l 864 53 l 435 53 l 435 -106 l 864 -106 z "},"녜":{"ha":1250,"x_min":153,"x_max":1069,"o":"m 1069 71 l 1069 1085 l 906 1085 l 906 71 l 1069 71 m 854 71 l 854 1085 l 693 1085 l 693 976 l 503 976 l 503 819 l 693 819 l 693 761 l 503 761 l 503 603 l 693 603 l 693 71 l 854 71 m 586 435 l 586 593 l 317 593 l 317 1058 l 153 1058 l 153 557 q 163 510 153 532 q 189 471 172 488 q 228 444 206 454 q 275 435 250 435 l 586 435 z "},"녠":{"ha":1250,"x_min":153,"x_max":1083,"o":"m 1069 200 l 1069 1085 l 906 1085 l 906 200 l 1069 200 m 586 485 l 586 614 l 693 614 l 693 200 l 854 200 l 854 1085 l 693 1085 l 693 990 l 503 990 l 503 831 l 693 831 l 693 772 l 503 772 l 503 643 l 317 643 l 317 1057 l 153 1057 l 153 608 q 163 560 153 583 q 189 521 172 538 q 228 494 206 504 q 275 485 250 485 l 586 485 m 1083 -249 l 1083 -90 l 639 -90 l 639 229 l 475 229 l 475 -125 q 485 -173 475 -150 q 511 -212 494 -196 q 550 -239 528 -229 q 597 -249 572 -249 l 1083 -249 z "},"노":{"ha":1250,"x_min":56,"x_max":1194,"o":"m 1194 217 l 1194 374 l 707 374 l 707 544 l 938 544 l 938 701 l 492 701 l 492 1057 l 326 1057 l 326 667 q 336 619 326 642 q 363 581 346 597 q 401 554 379 564 q 449 544 424 544 l 543 544 l 543 374 l 56 374 l 56 217 l 1194 217 z "},"녹":{"ha":1250,"x_min":56,"x_max":1194,"o":"m 1194 315 l 1194 474 l 707 474 l 707 579 l 938 579 l 938 738 l 492 738 l 492 1057 l 326 1057 l 326 703 q 336 655 326 678 q 363 615 346 632 q 401 589 379 599 q 449 579 424 579 l 543 579 l 543 474 l 56 474 l 56 315 l 1194 315 m 924 -249 l 924 215 l 313 215 l 313 57 l 758 57 l 758 -249 l 924 -249 z "},"논":{"ha":1250,"x_min":56,"x_max":1194,"o":"m 1194 288 l 1194 446 l 707 446 l 707 579 l 938 579 l 938 738 l 492 738 l 492 1057 l 326 1057 l 326 703 q 336 655 326 678 q 363 615 346 632 q 401 589 379 599 q 449 579 424 579 l 543 579 l 543 446 l 56 446 l 56 288 l 1194 288 m 938 -249 l 938 -90 l 492 -90 l 492 175 l 326 175 l 326 -125 q 336 -173 326 -150 q 363 -212 346 -196 q 401 -239 379 -229 q 449 -249 424 -249 l 938 -249 z "},"놀":{"ha":1250,"x_min":56,"x_max":1194,"o":"m 1194 342 l 1194 500 l 707 500 l 707 593 l 938 593 l 938 751 l 492 751 l 492 1057 l 326 1057 l 326 717 q 336 669 326 692 q 363 629 346 646 q 401 603 379 613 q 449 593 424 593 l 543 593 l 543 500 l 56 500 l 56 342 l 1194 342 m 938 -276 l 938 -125 l 492 -125 l 492 -69 l 924 -69 l 924 283 l 326 283 l 326 131 l 758 131 l 758 78 l 326 78 l 326 -153 q 336 -201 326 -178 q 363 -240 346 -224 q 401 -267 379 -257 q 449 -276 424 -276 l 938 -276 z "},"놂":{"ha":1250,"x_min":56,"x_max":1194,"o":"m 1194 342 l 1194 500 l 707 500 l 707 593 l 938 593 l 938 751 l 492 751 l 492 1057 l 326 1057 l 326 717 q 336 669 326 692 q 363 629 346 646 q 401 603 379 613 q 449 593 424 593 l 543 593 l 543 500 l 56 500 l 56 342 l 1194 342 m 1025 -153 l 1025 283 l 631 283 l 631 -153 q 667 -240 631 -204 q 754 -276 703 -276 l 903 -276 q 990 -240 954 -276 q 1025 -153 1025 -204 m 861 -118 l 796 -118 l 796 124 l 861 124 l 861 -118 m 606 -276 l 606 -125 l 389 -125 l 389 -69 l 592 -69 l 592 283 l 225 283 l 225 131 l 428 131 l 428 78 l 225 78 l 225 -153 q 260 -240 225 -204 q 347 -276 296 -276 l 606 -276 z "},"놈":{"ha":1250,"x_min":56,"x_max":1194,"o":"m 1194 328 l 1194 488 l 707 488 l 707 579 l 938 579 l 938 738 l 492 738 l 492 1057 l 326 1057 l 326 703 q 336 655 326 678 q 363 615 346 632 q 401 589 379 599 q 449 579 424 579 l 543 579 l 543 488 l 56 488 l 56 328 l 1194 328 m 924 -125 l 924 243 l 326 243 l 326 -125 q 336 -173 326 -150 q 363 -212 346 -196 q 401 -239 379 -229 q 449 -249 424 -249 l 801 -249 q 849 -239 826 -249 q 888 -212 871 -229 q 914 -173 904 -196 q 924 -125 924 -150 m 758 -90 l 492 -90 l 492 83 l 758 83 l 758 -90 z "},"놉":{"ha":1250,"x_min":56,"x_max":1194,"o":"m 1194 314 l 1194 474 l 707 474 l 707 579 l 938 579 l 938 738 l 492 738 l 492 1057 l 326 1057 l 326 703 q 336 655 326 678 q 363 615 346 632 q 401 589 379 599 q 449 579 424 579 l 543 579 l 543 474 l 56 474 l 56 314 l 1194 314 m 924 -139 l 924 249 l 758 249 l 758 140 l 492 140 l 492 249 l 326 249 l 326 -139 q 336 -187 326 -164 q 363 -226 346 -210 q 401 -253 379 -243 q 449 -262 424 -262 l 801 -262 q 849 -253 826 -262 q 888 -226 871 -243 q 914 -187 904 -210 q 924 -139 924 -164 m 758 -104 l 492 -104 l 492 -18 l 758 -18 l 758 -104 z "},"놋":{"ha":1250,"x_min":56,"x_max":1194,"o":"m 1194 314 l 1194 474 l 707 474 l 707 579 l 938 579 l 938 738 l 492 738 l 492 1057 l 326 1057 l 326 703 q 336 655 326 678 q 363 615 346 632 q 401 589 379 599 q 449 579 424 579 l 543 579 l 543 474 l 56 474 l 56 314 l 1194 314 m 1000 -167 l 625 278 l 250 -167 l 379 -268 l 625 26 l 871 -268 l 1000 -167 z "},"농":{"ha":1250,"x_min":56,"x_max":1194,"o":"m 1194 314 l 1194 474 l 707 474 l 707 579 l 938 579 l 938 738 l 492 738 l 492 1057 l 326 1057 l 326 703 q 336 655 326 678 q 363 615 346 632 q 401 589 379 599 q 449 579 424 579 l 543 579 l 543 474 l 56 474 l 56 314 l 1194 314 m 910 -14 q 886 88 910 40 q 824 170 863 135 q 733 226 785 206 q 625 247 681 247 q 517 226 568 247 q 426 170 465 206 q 363 88 386 135 q 340 -14 340 40 q 364 -117 340 -69 q 426 -201 388 -165 q 517 -256 465 -236 q 625 -276 568 -276 q 733 -256 681 -276 q 824 -201 785 -236 q 886 -117 863 -165 q 910 -14 910 -69 m 744 -14 q 710 -90 744 -60 q 625 -121 675 -121 q 540 -90 575 -121 q 506 -14 506 -60 q 540 61 506 31 q 625 92 575 92 q 710 61 675 92 q 744 -14 744 31 z "},"높":{"ha":1250,"x_min":56,"x_max":1194,"o":"m 1194 314 l 1194 474 l 707 474 l 707 579 l 938 579 l 938 738 l 492 738 l 492 1057 l 326 1057 l 326 703 q 336 655 326 678 q 363 615 346 632 q 401 589 379 599 q 449 579 424 579 l 543 579 l 543 474 l 56 474 l 56 314 l 1194 314 m 558 -104 l 558 83 l 692 83 l 692 -104 l 558 -104 m 958 -262 l 958 -104 l 857 -104 l 857 83 l 951 83 l 951 243 l 299 243 l 299 83 l 393 83 l 393 -104 l 292 -104 l 292 -262 l 958 -262 z "},"놓":{"ha":1250,"x_min":56,"x_max":1194,"o":"m 1194 328 l 1194 486 l 707 486 l 707 579 l 938 579 l 938 738 l 492 738 l 492 1057 l 326 1057 l 326 703 q 336 655 326 678 q 363 615 346 632 q 401 589 379 599 q 449 579 424 579 l 543 579 l 543 486 l 56 486 l 56 328 l 1194 328 m 888 -40 q 871 43 888 3 l 971 43 l 971 201 l 707 201 l 707 297 l 543 297 l 543 201 l 279 201 l 279 43 l 379 43 q 363 -40 363 3 q 384 -133 363 -90 q 442 -208 406 -176 q 526 -258 479 -240 q 625 -276 574 -276 q 724 -258 676 -276 q 808 -207 772 -239 q 866 -132 844 -175 q 888 -40 888 -89 m 722 -40 q 695 -97 722 -72 q 625 -121 668 -121 q 555 -97 582 -121 q 528 -40 528 -72 q 555 17 528 -7 q 625 40 582 40 q 695 17 668 40 q 722 -40 722 -7 z "},"놔":{"ha":1250,"x_min":14,"x_max":1208,"o":"m 867 267 l 867 71 l 1032 71 l 1032 664 l 1208 664 l 1208 822 l 1032 822 l 1032 1085 l 867 1085 l 867 424 l 538 424 l 538 569 l 721 569 l 721 728 l 356 728 l 356 1058 l 190 1058 l 190 693 q 200 645 190 668 q 226 606 210 622 q 265 579 243 589 q 313 569 288 569 l 372 569 l 372 424 l 14 424 l 14 267 l 867 267 z "},"놘":{"ha":1250,"x_min":14,"x_max":1208,"o":"m 867 301 l 867 158 l 1032 158 l 1032 701 l 1208 701 l 1208 861 l 1032 861 l 1032 1085 l 867 1085 l 867 460 l 538 460 l 538 593 l 721 593 l 721 751 l 356 751 l 356 1057 l 190 1057 l 190 717 q 200 669 190 692 q 226 629 210 646 q 265 603 243 613 q 313 593 288 593 l 372 593 l 372 460 l 14 460 l 14 301 l 867 301 m 1046 -249 l 1046 -90 l 599 -90 l 599 175 l 433 175 l 433 -125 q 469 -212 433 -176 q 557 -249 506 -249 l 1046 -249 z "},"놜":{"ha":1250,"x_min":14,"x_max":1208,"o":"m 1046 -276 l 1046 -124 l 599 -124 l 599 -76 l 1032 -76 l 1032 269 l 1032 701 l 1208 701 l 1208 861 l 1032 861 l 1032 1085 l 867 1085 l 867 488 l 538 488 l 538 593 l 721 593 l 721 751 l 356 751 l 356 1057 l 190 1057 l 190 717 q 200 669 190 692 q 226 629 210 646 q 265 603 243 613 q 313 593 288 593 l 372 593 l 372 488 l 14 488 l 14 328 l 867 328 l 867 269 l 433 269 l 433 118 l 867 118 l 867 71 l 433 71 l 433 -153 q 469 -240 433 -204 q 557 -276 506 -276 l 1046 -276 z "},"놨":{"ha":1250,"x_min":14,"x_max":1208,"o":"m 1079 -217 l 890 158 l 1032 158 l 1032 701 l 1208 701 l 1208 861 l 1032 861 l 1032 1085 l 867 1085 l 867 488 l 538 488 l 538 593 l 721 593 l 721 751 l 356 751 l 356 1057 l 190 1057 l 190 717 q 200 669 190 692 q 226 629 210 646 q 265 603 243 613 q 313 593 288 593 l 372 593 l 372 488 l 14 488 l 14 328 l 867 328 l 867 204 l 833 271 l 665 7 l 499 271 l 253 -217 l 399 -281 l 515 -50 l 665 -275 l 817 -50 l 933 -281 l 1079 -217 z "},"뇌":{"ha":1250,"x_min":42,"x_max":1056,"o":"m 892 267 l 892 71 l 1056 71 l 1056 1085 l 892 1085 l 892 424 l 564 424 l 564 569 l 746 569 l 746 728 l 382 728 l 382 1058 l 217 1058 l 217 693 q 253 606 217 642 q 340 569 289 569 l 399 569 l 399 424 l 42 424 l 42 267 l 892 267 z "},"뇐":{"ha":1250,"x_min":42,"x_max":1069,"o":"m 892 301 l 892 158 l 1056 158 l 1056 1085 l 892 1085 l 892 460 l 564 460 l 564 593 l 746 593 l 746 751 l 382 751 l 382 1057 l 217 1057 l 217 717 q 253 629 217 665 q 340 593 289 593 l 399 593 l 399 460 l 42 460 l 42 301 l 892 301 m 1069 -249 l 1069 -90 l 625 -90 l 625 175 l 460 175 l 460 -125 q 469 -173 460 -150 q 496 -212 479 -196 q 535 -239 513 -229 q 582 -249 557 -249 l 1069 -249 z "},"뇔":{"ha":1250,"x_min":42,"x_max":1069,"o":"m 1069 -276 l 1069 -124 l 625 -124 l 625 -76 l 1056 -76 l 1056 269 l 1056 1085 l 892 1085 l 892 488 l 564 488 l 564 593 l 746 593 l 746 751 l 382 751 l 382 1057 l 217 1057 l 217 717 q 253 629 217 665 q 340 593 289 593 l 399 593 l 399 488 l 42 488 l 42 328 l 892 328 l 892 269 l 460 269 l 460 118 l 892 118 l 892 71 l 460 71 l 460 -153 q 469 -201 460 -178 q 496 -240 479 -224 q 535 -267 513 -257 q 582 -276 557 -276 l 1069 -276 z "},"뇜":{"ha":1250,"x_min":42,"x_max":1056,"o":"m 1056 -125 l 1056 243 l 1056 1085 l 892 1085 l 892 488 l 564 488 l 564 593 l 746 593 l 746 751 l 382 751 l 382 1057 l 217 1057 l 217 717 q 253 629 217 665 q 340 593 289 593 l 399 593 l 399 488 l 42 488 l 42 328 l 892 328 l 892 243 l 460 243 l 460 -125 q 469 -173 460 -150 q 496 -212 479 -196 q 535 -239 513 -229 q 582 -249 557 -249 l 933 -249 q 981 -239 958 -249 q 1019 -212 1003 -229 q 1046 -173 1036 -196 q 1056 -125 1056 -150 m 892 -90 l 624 -90 l 624 85 l 892 85 l 892 -90 z "},"뇝":{"ha":1250,"x_min":42,"x_max":1056,"o":"m 1056 -139 l 1056 250 l 1056 1085 l 892 1085 l 892 488 l 564 488 l 564 593 l 746 593 l 746 751 l 382 751 l 382 1057 l 217 1057 l 217 717 q 253 629 217 665 q 340 593 289 593 l 399 593 l 399 488 l 42 488 l 42 328 l 892 328 l 892 158 l 892 140 l 624 140 l 624 250 l 460 250 l 460 -139 q 469 -187 460 -164 q 496 -226 479 -210 q 535 -253 513 -243 q 582 -262 557 -262 l 933 -262 q 981 -253 958 -262 q 1019 -226 1003 -243 q 1046 -187 1036 -210 q 1056 -139 1056 -164 m 892 -104 l 624 -104 l 624 -18 l 892 -18 l 892 -104 z "},"뇟":{"ha":1250,"x_min":42,"x_max":1106,"o":"m 892 328 l 892 158 l 1057 158 l 1057 1085 l 892 1085 l 892 488 l 564 488 l 564 593 l 746 593 l 746 751 l 382 751 l 382 1057 l 217 1057 l 217 717 q 253 629 217 665 q 340 593 289 593 l 400 593 l 400 488 l 42 488 l 42 328 l 892 328 m 1106 -167 l 732 278 l 358 -167 l 486 -268 l 732 26 l 976 -268 l 1106 -167 z "},"뇨":{"ha":1250,"x_min":56,"x_max":1194,"o":"m 572 374 l 572 544 l 678 544 l 678 374 l 572 374 m 1194 217 l 1194 374 l 843 374 l 843 544 l 938 544 l 938 701 l 492 701 l 492 1057 l 326 1057 l 326 667 q 349 597 326 628 q 407 553 372 565 l 407 374 l 56 374 l 56 217 l 1194 217 z "},"뇩":{"ha":1250,"x_min":56,"x_max":1194,"o":"m 572 579 l 678 579 l 678 474 l 572 474 l 572 579 m 407 474 l 56 474 l 56 315 l 1194 315 l 1194 474 l 843 474 l 843 579 l 938 579 l 938 738 l 492 738 l 492 1057 l 326 1057 l 326 703 q 349 632 326 664 q 407 586 372 600 l 407 474 m 924 -249 l 924 215 l 313 215 l 313 57 l 758 57 l 758 -249 l 924 -249 z "},"뇬":{"ha":1250,"x_min":56,"x_max":1194,"o":"m 572 446 l 572 579 l 678 579 l 678 446 l 572 446 m 1194 288 l 1194 446 l 843 446 l 843 579 l 938 579 l 938 738 l 492 738 l 492 1057 l 326 1057 l 326 703 q 349 632 326 664 q 407 586 372 600 l 407 446 l 56 446 l 56 288 l 1194 288 m 938 -249 l 938 -90 l 492 -90 l 492 175 l 326 175 l 326 -125 q 336 -173 326 -150 q 363 -212 346 -196 q 401 -239 379 -229 q 449 -249 424 -249 l 938 -249 z "},"뇰":{"ha":1250,"x_min":56,"x_max":1194,"o":"m 572 593 l 678 593 l 678 500 l 572 500 l 572 593 m 407 500 l 56 500 l 56 342 l 1194 342 l 1194 500 l 843 500 l 843 593 l 938 593 l 938 751 l 492 751 l 492 1057 l 326 1057 l 326 717 q 349 644 326 676 q 407 600 372 613 l 407 500 m 938 -276 l 938 -125 l 492 -125 l 492 -69 l 924 -69 l 924 283 l 326 283 l 326 131 l 758 131 l 758 78 l 326 78 l 326 -153 q 336 -201 326 -178 q 363 -240 346 -224 q 401 -267 379 -257 q 449 -276 424 -276 l 938 -276 z "},"뇹":{"ha":1250,"x_min":56,"x_max":1194,"o":"m 572 579 l 678 579 l 678 474 l 572 474 l 572 579 m 407 474 l 56 474 l 56 314 l 1194 314 l 1194 474 l 843 474 l 843 579 l 938 579 l 938 738 l 492 738 l 492 1057 l 326 1057 l 326 703 q 349 632 326 664 q 407 586 372 600 l 407 474 m 924 -139 l 924 249 l 758 249 l 758 140 l 492 140 l 492 249 l 326 249 l 326 -139 q 336 -187 326 -164 q 363 -226 346 -210 q 401 -253 379 -243 q 449 -262 424 -262 l 801 -262 q 849 -253 826 -262 q 888 -226 871 -243 q 914 -187 904 -210 q 924 -139 924 -164 m 758 -104 l 492 -104 l 492 -18 l 758 -18 l 758 -104 z "},"뇻":{"ha":1250,"x_min":56,"x_max":1194,"o":"m 572 579 l 678 579 l 678 474 l 572 474 l 572 579 m 407 474 l 56 474 l 56 314 l 1194 314 l 1194 474 l 843 474 l 843 579 l 938 579 l 938 738 l 492 738 l 492 1057 l 326 1057 l 326 703 q 349 632 326 664 q 407 586 372 600 l 407 474 m 1000 -167 l 625 278 l 250 -167 l 379 -268 l 625 26 l 871 -268 l 1000 -167 z "},"뇽":{"ha":1250,"x_min":56,"x_max":1194,"o":"m 572 579 l 678 579 l 678 474 l 572 474 l 572 579 m 407 474 l 56 474 l 56 314 l 1194 314 l 1194 474 l 843 474 l 843 579 l 938 579 l 938 738 l 492 738 l 492 1057 l 326 1057 l 326 703 q 349 632 326 664 q 407 586 372 600 l 407 474 m 910 -14 q 886 88 910 40 q 824 170 863 135 q 733 226 785 206 q 625 247 681 247 q 517 226 568 247 q 426 170 465 206 q 363 88 386 135 q 340 -14 340 40 q 364 -117 340 -69 q 426 -201 388 -165 q 517 -256 465 -236 q 625 -276 568 -276 q 733 -256 681 -276 q 824 -201 785 -236 q 886 -117 863 -165 q 910 -14 910 -69 m 744 -14 q 710 -90 744 -60 q 625 -121 675 -121 q 540 -90 575 -121 q 506 -14 506 -60 q 540 61 506 31 q 625 92 575 92 q 710 61 675 92 q 744 -14 744 31 z "},"누":{"ha":1250,"x_min":56,"x_max":1194,"o":"m 938 554 l 938 713 l 492 713 l 492 1057 l 326 1057 l 326 678 q 336 630 326 653 q 363 590 346 607 q 401 564 379 574 q 449 554 424 554 l 938 554 m 707 1 l 707 278 l 1194 278 l 1194 436 l 56 436 l 56 278 l 543 278 l 543 1 l 707 1 z "},"눅":{"ha":1250,"x_min":56,"x_max":1194,"o":"m 938 579 l 938 738 l 492 738 l 492 1057 l 326 1057 l 326 703 q 336 655 326 678 q 363 615 346 632 q 401 589 379 599 q 449 579 424 579 l 938 579 m 924 -249 l 924 215 l 707 215 l 707 342 l 1194 342 l 1194 500 l 56 500 l 56 342 l 543 342 l 543 215 l 313 215 l 313 57 l 758 57 l 758 -249 l 924 -249 z "},"눈":{"ha":1250,"x_min":56,"x_max":1194,"o":"m 938 579 l 938 738 l 492 738 l 492 1057 l 326 1057 l 326 703 q 336 655 326 678 q 363 615 346 632 q 401 589 379 599 q 449 579 424 579 l 938 579 m 749 78 l 749 315 l 1194 315 l 1194 474 l 56 474 l 56 315 l 583 315 l 583 78 l 749 78 m 938 -249 l 938 -90 l 492 -90 l 492 175 l 326 175 l 326 -125 q 336 -173 326 -150 q 363 -212 346 -196 q 401 -239 379 -229 q 449 -249 424 -249 l 938 -249 z "},"눋":{"ha":1250,"x_min":56,"x_max":1194,"o":"m 938 579 l 938 738 l 492 738 l 492 1057 l 326 1057 l 326 703 q 336 655 326 678 q 363 615 346 632 q 401 589 379 599 q 449 579 424 579 l 938 579 m 938 -249 l 938 -90 l 492 -90 l 492 83 l 924 83 l 924 243 l 707 243 l 707 342 l 1194 342 l 1194 500 l 56 500 l 56 342 l 543 342 l 543 243 l 326 243 l 326 -125 q 336 -173 326 -150 q 363 -212 346 -196 q 401 -239 379 -229 q 449 -249 424 -249 l 938 -249 z "},"눌":{"ha":1250,"x_min":56,"x_max":1194,"o":"m 938 593 l 938 751 l 492 751 l 492 1057 l 326 1057 l 326 717 q 336 669 326 692 q 363 629 346 646 q 401 603 379 613 q 449 593 424 593 l 938 593 m 938 -276 l 938 -125 l 492 -125 l 492 -69 l 924 -69 l 924 283 l 707 283 l 707 368 l 1194 368 l 1194 528 l 56 528 l 56 368 l 543 368 l 543 283 l 326 283 l 326 131 l 758 131 l 758 78 l 326 78 l 326 -153 q 336 -201 326 -178 q 363 -240 346 -224 q 401 -267 379 -257 q 449 -276 424 -276 l 938 -276 z "},"눔":{"ha":1250,"x_min":56,"x_max":1194,"o":"m 938 579 l 938 738 l 492 738 l 492 1057 l 326 1057 l 326 703 q 336 655 326 678 q 363 615 346 632 q 401 589 379 599 q 449 579 424 579 l 938 579 m 924 -125 l 924 243 l 707 243 l 707 342 l 1194 342 l 1194 500 l 56 500 l 56 342 l 543 342 l 543 243 l 326 243 l 326 -125 q 336 -173 326 -150 q 363 -212 346 -196 q 401 -239 379 -229 q 449 -249 424 -249 l 801 -249 q 849 -239 826 -249 q 888 -212 871 -229 q 914 -173 904 -196 q 924 -125 924 -150 m 758 -90 l 492 -90 l 492 83 l 758 83 l 758 -90 z "},"눕":{"ha":1250,"x_min":56,"x_max":1194,"o":"m 938 579 l 938 738 l 492 738 l 492 1057 l 326 1057 l 326 703 q 336 655 326 678 q 363 615 346 632 q 401 589 379 599 q 449 579 424 579 l 938 579 m 707 186 l 707 342 l 1194 342 l 1194 500 l 56 500 l 56 342 l 543 342 l 543 186 l 707 186 m 924 -139 l 924 249 l 758 249 l 758 140 l 492 140 l 492 249 l 326 249 l 326 -139 q 336 -187 326 -164 q 363 -226 346 -210 q 401 -253 379 -243 q 449 -262 424 -262 l 801 -262 q 849 -253 826 -262 q 888 -226 871 -243 q 914 -187 904 -210 q 924 -139 924 -164 m 758 -104 l 492 -104 l 492 -18 l 758 -18 l 758 -104 z "},"눗":{"ha":1250,"x_min":56,"x_max":1194,"o":"m 938 579 l 938 738 l 492 738 l 492 1057 l 326 1057 l 326 703 q 336 655 326 678 q 363 615 346 632 q 401 589 379 599 q 449 579 424 579 l 938 579 m 1000 -167 l 707 179 l 707 342 l 1194 342 l 1194 500 l 56 500 l 56 342 l 543 342 l 543 179 l 250 -167 l 379 -268 l 625 26 l 871 -268 l 1000 -167 z "},"눙":{"ha":1250,"x_min":56,"x_max":1194,"o":"m 938 579 l 938 738 l 492 738 l 492 1057 l 326 1057 l 326 703 q 336 655 326 678 q 363 615 346 632 q 401 589 379 599 q 449 579 424 579 l 938 579 m 910 -14 q 894 69 910 29 q 851 143 878 110 q 787 201 824 176 q 707 236 750 225 l 707 342 l 1194 342 l 1194 500 l 56 500 l 56 342 l 543 342 l 543 236 q 463 201 500 225 q 399 145 426 178 q 356 72 372 113 q 340 -14 340 31 q 364 -117 340 -69 q 426 -201 388 -165 q 517 -256 465 -236 q 625 -276 568 -276 q 733 -256 681 -276 q 824 -201 785 -236 q 886 -117 863 -165 q 910 -14 910 -69 m 744 -14 q 710 -90 744 -60 q 625 -121 675 -121 q 540 -90 575 -121 q 506 -14 506 -60 q 540 61 506 31 q 625 92 575 92 q 710 61 675 92 q 744 -14 744 31 z "},"눠":{"ha":1250,"x_min":42,"x_max":1056,"o":"m 1056 71 l 1056 1085 l 892 1085 l 892 360 l 649 360 l 649 206 l 892 206 l 892 71 l 1056 71 m 746 638 l 746 794 l 382 794 l 382 1058 l 217 1058 l 217 760 q 253 673 217 708 q 340 638 289 638 l 746 638 m 529 97 l 529 401 l 813 401 l 813 558 l 42 558 l 42 401 l 365 401 l 365 97 l 529 97 z "},"눴":{"ha":1250,"x_min":42,"x_max":1104,"o":"m 746 633 l 746 793 l 382 793 l 382 1057 l 217 1057 l 217 757 q 253 669 217 706 q 340 633 289 633 l 746 633 m 531 240 l 531 424 l 814 424 l 814 582 l 42 582 l 42 424 l 365 424 l 365 240 l 531 240 m 1104 -217 l 925 118 l 1057 118 l 1057 1085 l 892 1085 l 892 396 l 649 396 l 649 253 l 892 253 l 892 179 l 860 239 l 692 -7 l 524 239 l 279 -217 l 425 -281 l 540 -61 l 690 -274 l 843 -61 l 958 -281 l 1104 -217 z "},"눼":{"ha":1250,"x_min":14,"x_max":1083,"o":"m 1083 71 l 1083 1085 l 918 1085 l 918 71 l 1083 71 m 867 206 l 867 1085 l 706 1085 l 706 360 l 486 360 l 486 206 l 867 206 m 597 638 l 597 794 l 314 794 l 314 1058 l 149 1058 l 149 760 q 185 673 149 708 q 272 638 221 638 l 597 638 m 435 97 l 435 401 l 651 401 l 651 558 l 14 558 l 14 401 l 271 401 l 271 97 l 435 97 z "},"뉘":{"ha":1250,"x_min":42,"x_max":1056,"o":"m 746 638 l 746 794 l 382 794 l 382 1058 l 217 1058 l 217 760 q 253 673 217 708 q 340 638 289 638 l 746 638 m 529 97 l 529 374 l 892 374 l 892 71 l 1056 71 l 1056 1085 l 892 1085 l 892 532 l 42 532 l 42 374 l 365 374 l 365 97 l 529 97 z "},"뉜":{"ha":1250,"x_min":42,"x_max":1069,"o":"m 746 633 l 746 793 l 382 793 l 382 1057 l 217 1057 l 217 757 q 253 669 217 706 q 340 633 289 633 l 746 633 m 531 213 l 531 369 l 892 369 l 892 118 l 1056 118 l 1056 1085 l 892 1085 l 892 528 l 42 528 l 42 369 l 365 369 l 365 213 l 531 213 m 1069 -249 l 1069 -90 l 625 -90 l 625 175 l 460 175 l 460 -125 q 469 -173 460 -150 q 496 -212 479 -196 q 535 -239 513 -229 q 582 -249 557 -249 l 1069 -249 z "},"뉠":{"ha":1250,"x_min":42,"x_max":1069,"o":"m 746 633 l 746 793 l 382 793 l 382 1057 l 217 1057 l 217 757 q 253 669 217 706 q 340 633 289 633 l 746 633 m 531 243 l 531 396 l 892 396 l 892 243 l 531 243 m 1069 -276 l 1069 -124 l 625 -124 l 625 -90 l 1056 -90 l 1056 243 l 1056 1085 l 892 1085 l 892 556 l 42 556 l 42 396 l 365 396 l 365 240 l 460 240 l 460 90 l 892 90 l 892 58 l 460 58 l 460 -153 q 469 -201 460 -178 q 496 -240 479 -224 q 535 -267 513 -257 q 582 -276 557 -276 l 1069 -276 z "},"뉨":{"ha":1250,"x_min":42,"x_max":1056,"o":"m 746 633 l 746 793 l 382 793 l 382 1057 l 217 1057 l 217 757 q 253 669 217 706 q 340 633 289 633 l 746 633 m 1056 -125 l 1056 215 l 1056 1085 l 892 1085 l 892 556 l 42 556 l 42 396 l 365 396 l 365 240 l 529 240 l 529 396 l 892 396 l 892 215 l 460 215 l 460 -125 q 469 -173 460 -150 q 496 -212 479 -196 q 535 -239 513 -229 q 582 -249 557 -249 l 933 -249 q 981 -239 958 -249 q 1019 -212 1003 -229 q 1046 -173 1036 -196 q 1056 -125 1056 -150 m 892 -90 l 624 -90 l 624 57 l 892 57 l 892 -90 z "},"뉩":{"ha":1250,"x_min":42,"x_max":1056,"o":"m 746 633 l 746 793 l 382 793 l 382 1057 l 217 1057 l 217 757 q 253 669 217 706 q 340 633 289 633 l 746 633 m 1056 -139 l 1056 222 l 1056 1085 l 892 1085 l 892 556 l 42 556 l 42 396 l 365 396 l 365 240 l 529 240 l 529 396 l 892 396 l 892 128 l 624 128 l 624 222 l 460 222 l 460 -139 q 469 -187 460 -164 q 496 -226 479 -210 q 535 -253 513 -243 q 582 -262 557 -262 l 933 -262 q 981 -253 958 -262 q 1019 -226 1003 -243 q 1046 -187 1036 -210 q 1056 -139 1056 -164 m 892 -104 l 624 -104 l 624 -32 l 892 -32 l 892 -104 z "},"뉴":{"ha":1250,"x_min":56,"x_max":1194,"o":"m 938 554 l 938 713 l 492 713 l 492 1057 l 326 1057 l 326 678 q 336 630 326 653 q 363 590 346 607 q 401 564 379 574 q 449 554 424 554 l 938 554 m 558 1 l 558 278 l 692 278 l 692 1 l 857 1 l 857 278 l 1194 278 l 1194 436 l 56 436 l 56 278 l 393 278 l 393 1 l 558 1 z "},"뉵":{"ha":1250,"x_min":56,"x_max":1194,"o":"m 938 579 l 938 738 l 492 738 l 492 1057 l 326 1057 l 326 703 q 336 655 326 678 q 363 615 346 632 q 401 589 379 599 q 449 579 424 579 l 938 579 m 572 215 l 572 342 l 678 342 l 678 215 l 572 215 m 924 -249 l 924 215 l 843 215 l 843 342 l 1194 342 l 1194 500 l 56 500 l 56 342 l 407 342 l 407 215 l 313 215 l 313 57 l 758 57 l 758 -249 l 924 -249 z "},"뉼":{"ha":1250,"x_min":56,"x_max":1194,"o":"m 938 593 l 938 751 l 492 751 l 492 1057 l 326 1057 l 326 717 q 336 669 326 692 q 363 629 346 646 q 401 603 379 613 q 449 593 424 593 l 938 593 m 572 283 l 572 368 l 678 368 l 678 283 l 572 283 m 938 -276 l 938 -125 l 492 -125 l 492 -69 l 924 -69 l 924 283 l 843 283 l 843 368 l 1194 368 l 1194 528 l 56 528 l 56 368 l 407 368 l 407 283 l 326 283 l 326 131 l 758 131 l 758 78 l 326 78 l 326 -153 q 336 -201 326 -178 q 363 -240 346 -224 q 401 -267 379 -257 q 449 -276 424 -276 l 938 -276 z "},"늄":{"ha":1250,"x_min":56,"x_max":1194,"o":"m 938 579 l 938 738 l 492 738 l 492 1057 l 326 1057 l 326 703 q 336 655 326 678 q 363 615 346 632 q 401 589 379 599 q 449 579 424 579 l 938 579 m 572 243 l 572 342 l 678 342 l 678 243 l 572 243 m 924 -125 l 924 243 l 843 243 l 843 342 l 1194 342 l 1194 500 l 56 500 l 56 342 l 407 342 l 407 243 l 326 243 l 326 -125 q 336 -173 326 -150 q 363 -212 346 -196 q 401 -239 379 -229 q 449 -249 424 -249 l 801 -249 q 849 -239 826 -249 q 888 -212 871 -229 q 914 -173 904 -196 q 924 -125 924 -150 m 758 -90 l 492 -90 l 492 83 l 758 83 l 758 -90 z "},"늅":{"ha":1250,"x_min":56,"x_max":1194,"o":"m 938 579 l 938 738 l 492 738 l 492 1057 l 326 1057 l 326 703 q 336 655 326 678 q 363 615 346 632 q 401 589 379 599 q 449 579 424 579 l 938 579 m 492 186 l 572 186 l 572 342 l 678 342 l 678 186 l 758 186 l 758 140 l 492 140 l 492 186 m 924 -139 l 924 249 l 843 249 l 843 342 l 1194 342 l 1194 500 l 56 500 l 56 342 l 407 342 l 407 249 l 326 249 l 326 -139 q 336 -187 326 -164 q 363 -226 346 -210 q 401 -253 379 -243 q 449 -262 424 -262 l 801 -262 q 849 -253 826 -262 q 888 -226 871 -243 q 914 -187 904 -210 q 924 -139 924 -164 m 758 -104 l 492 -104 l 492 -18 l 758 -18 l 758 -104 z "},"늉":{"ha":1250,"x_min":56,"x_max":1194,"o":"m 938 579 l 938 738 l 492 738 l 492 1057 l 326 1057 l 326 703 q 336 655 326 678 q 363 615 346 632 q 401 589 379 599 q 449 579 424 579 l 938 579 m 572 243 l 572 342 l 678 342 l 678 243 q 652 247 665 246 q 625 247 639 247 q 598 247 611 247 q 572 243 585 246 m 910 -14 q 892 77 910 35 q 843 153 874 119 l 843 342 l 1194 342 l 1194 500 l 56 500 l 56 342 l 407 342 l 407 153 q 358 77 376 119 q 340 -14 340 35 q 364 -117 340 -69 q 426 -201 388 -165 q 517 -256 465 -236 q 625 -276 568 -276 q 733 -256 681 -276 q 824 -201 785 -236 q 886 -117 863 -165 q 910 -14 910 -69 m 744 -14 q 710 -90 744 -60 q 625 -121 675 -121 q 540 -90 575 -121 q 506 -14 506 -60 q 540 61 506 31 q 625 92 575 92 q 710 61 675 92 q 744 -14 744 31 z "},"느":{"ha":1250,"x_min":56,"x_max":1194,"o":"m 938 544 l 938 701 l 492 701 l 492 1057 l 326 1057 l 326 667 q 336 619 326 642 q 363 581 346 597 q 401 554 379 564 q 449 544 424 544 l 938 544 m 1194 217 l 1194 374 l 56 374 l 56 217 l 1194 217 z "},"늑":{"ha":1250,"x_min":56,"x_max":1194,"o":"m 938 579 l 938 738 l 492 738 l 492 1057 l 326 1057 l 326 703 q 336 655 326 678 q 363 615 346 632 q 401 589 379 599 q 449 579 424 579 l 938 579 m 1194 315 l 1194 474 l 56 474 l 56 315 l 1194 315 m 924 -249 l 924 215 l 313 215 l 313 57 l 758 57 l 758 -249 l 924 -249 z "},"는":{"ha":1250,"x_min":56,"x_max":1194,"o":"m 938 579 l 938 738 l 492 738 l 492 1057 l 326 1057 l 326 703 q 336 655 326 678 q 363 615 346 632 q 401 589 379 599 q 449 579 424 579 l 938 579 m 1194 288 l 1194 446 l 56 446 l 56 288 l 1194 288 m 938 -249 l 938 -90 l 492 -90 l 492 175 l 326 175 l 326 -125 q 336 -173 326 -150 q 363 -212 346 -196 q 401 -239 379 -229 q 449 -249 424 -249 l 938 -249 z "},"늘":{"ha":1250,"x_min":56,"x_max":1194,"o":"m 938 593 l 938 751 l 492 751 l 492 1057 l 326 1057 l 326 717 q 336 669 326 692 q 363 629 346 646 q 401 603 379 613 q 449 593 424 593 l 938 593 m 1194 356 l 1194 514 l 56 514 l 56 356 l 1194 356 m 938 -276 l 938 -125 l 492 -125 l 492 -69 l 924 -69 l 924 283 l 326 283 l 326 131 l 758 131 l 758 78 l 326 78 l 326 -153 q 336 -201 326 -178 q 363 -240 346 -224 q 401 -267 379 -257 q 449 -276 424 -276 l 938 -276 z "},"늙":{"ha":1250,"x_min":56,"x_max":1194,"o":"m 938 593 l 938 751 l 492 751 l 492 1057 l 326 1057 l 326 717 q 336 669 326 692 q 363 629 346 646 q 401 603 379 613 q 449 593 424 593 l 938 593 m 1194 356 l 1194 514 l 56 514 l 56 356 l 1194 356 m 660 -276 l 660 -125 l 417 -125 l 417 -69 l 646 -69 l 646 124 l 833 124 l 833 -276 l 999 -276 l 999 283 l 590 283 l 251 283 l 251 131 l 482 131 l 482 78 l 251 78 l 251 -153 q 288 -240 251 -204 q 375 -276 324 -276 l 660 -276 z "},"늚":{"ha":1250,"x_min":56,"x_max":1194,"o":"m 938 593 l 938 751 l 492 751 l 492 1057 l 326 1057 l 326 717 q 336 669 326 692 q 363 629 346 646 q 401 603 379 613 q 449 593 424 593 l 938 593 m 1194 356 l 1194 514 l 56 514 l 56 356 l 1194 356 m 1025 -153 l 1025 283 l 631 283 l 631 -153 q 667 -240 631 -204 q 754 -276 703 -276 l 903 -276 q 990 -240 954 -276 q 1025 -153 1025 -204 m 861 -118 l 796 -118 l 796 124 l 861 124 l 861 -118 m 606 -276 l 606 -125 l 389 -125 l 389 -69 l 592 -69 l 592 283 l 225 283 l 225 131 l 428 131 l 428 78 l 225 78 l 225 -153 q 260 -240 225 -204 q 347 -276 296 -276 l 606 -276 z "},"늠":{"ha":1250,"x_min":56,"x_max":1194,"o":"m 938 579 l 938 738 l 492 738 l 492 1057 l 326 1057 l 326 703 q 336 655 326 678 q 363 615 346 632 q 401 589 379 599 q 449 579 424 579 l 938 579 m 1194 328 l 1194 488 l 56 488 l 56 328 l 1194 328 m 924 -125 l 924 243 l 326 243 l 326 -125 q 336 -173 326 -150 q 363 -212 346 -196 q 401 -239 379 -229 q 449 -249 424 -249 l 801 -249 q 849 -239 826 -249 q 888 -212 871 -229 q 914 -173 904 -196 q 924 -125 924 -150 m 758 -90 l 492 -90 l 492 83 l 758 83 l 758 -90 z "},"늡":{"ha":1250,"x_min":56,"x_max":1194,"o":"m 938 579 l 938 738 l 492 738 l 492 1057 l 326 1057 l 326 703 q 336 655 326 678 q 363 615 346 632 q 401 589 379 599 q 449 579 424 579 l 938 579 m 1194 328 l 1194 488 l 56 488 l 56 328 l 1194 328 m 924 -139 l 924 249 l 758 249 l 758 140 l 492 140 l 492 249 l 326 249 l 326 -139 q 336 -187 326 -164 q 363 -226 346 -210 q 401 -253 379 -243 q 449 -262 424 -262 l 801 -262 q 849 -253 826 -262 q 888 -226 871 -243 q 914 -187 904 -210 q 924 -139 924 -164 m 758 -104 l 492 -104 l 492 -18 l 758 -18 l 758 -104 z "},"늣":{"ha":1250,"x_min":56,"x_max":1194,"o":"m 938 579 l 938 738 l 492 738 l 492 1057 l 326 1057 l 326 703 q 336 655 326 678 q 363 615 346 632 q 401 589 379 599 q 449 579 424 579 l 938 579 m 1194 314 l 1194 474 l 56 474 l 56 314 l 1194 314 m 1000 -167 l 625 278 l 250 -167 l 379 -268 l 625 26 l 871 -268 l 1000 -167 z "},"능":{"ha":1250,"x_min":56,"x_max":1194,"o":"m 938 579 l 938 738 l 492 738 l 492 1057 l 326 1057 l 326 703 q 336 655 326 678 q 363 615 346 632 q 401 589 379 599 q 449 579 424 579 l 938 579 m 1194 314 l 1194 474 l 56 474 l 56 314 l 1194 314 m 910 -14 q 886 88 910 40 q 824 170 863 135 q 733 226 785 206 q 625 247 681 247 q 517 226 568 247 q 426 170 465 206 q 363 88 386 135 q 340 -14 340 40 q 364 -117 340 -69 q 426 -201 388 -165 q 517 -256 465 -236 q 625 -276 568 -276 q 733 -256 681 -276 q 824 -201 785 -236 q 886 -117 863 -165 q 910 -14 910 -69 m 744 -14 q 710 -90 744 -60 q 625 -121 675 -121 q 540 -90 575 -121 q 506 -14 506 -60 q 540 61 506 31 q 625 92 575 92 q 710 61 675 92 q 744 -14 744 31 z "},"늦":{"ha":1250,"x_min":56,"x_max":1194,"o":"m 938 579 l 938 738 l 492 738 l 492 1057 l 326 1057 l 326 703 q 336 655 326 678 q 363 615 346 632 q 401 589 379 599 q 449 579 424 579 l 938 579 m 1194 328 l 1194 488 l 56 488 l 56 328 l 1194 328 m 992 -156 l 756 83 l 924 83 l 924 243 l 326 243 l 326 83 l 494 83 l 258 -156 l 378 -268 l 625 -14 l 872 -268 l 992 -156 z "},"늪":{"ha":1250,"x_min":56,"x_max":1194,"o":"m 938 579 l 938 738 l 492 738 l 492 1057 l 326 1057 l 326 703 q 336 655 326 678 q 363 615 346 632 q 401 589 379 599 q 449 579 424 579 l 938 579 m 1194 328 l 1194 488 l 56 488 l 56 328 l 1194 328 m 558 -104 l 558 83 l 692 83 l 692 -104 l 558 -104 m 958 -262 l 958 -104 l 857 -104 l 857 83 l 951 83 l 951 243 l 299 243 l 299 83 l 393 83 l 393 -104 l 292 -104 l 292 -262 l 958 -262 z "},"늬":{"ha":1250,"x_min":42,"x_max":1056,"o":"m 746 569 l 746 728 l 382 728 l 382 1058 l 217 1058 l 217 693 q 253 606 217 642 q 340 569 289 569 l 746 569 m 892 267 l 892 71 l 1056 71 l 1056 1085 l 892 1085 l 892 424 l 42 424 l 42 267 l 892 267 z "},"늰":{"ha":1250,"x_min":42,"x_max":1069,"o":"m 746 593 l 746 751 l 382 751 l 382 1057 l 217 1057 l 217 717 q 253 629 217 665 q 340 593 289 593 l 746 593 m 892 301 l 892 158 l 1056 158 l 1056 1085 l 892 1085 l 892 460 l 42 460 l 42 301 l 892 301 m 1069 -249 l 1069 -90 l 625 -90 l 625 175 l 460 175 l 460 -125 q 469 -173 460 -150 q 496 -212 479 -196 q 535 -239 513 -229 q 582 -249 557 -249 l 1069 -249 z "},"늴":{"ha":1250,"x_min":42,"x_max":1069,"o":"m 746 593 l 746 751 l 382 751 l 382 1057 l 217 1057 l 217 717 q 253 629 217 665 q 340 593 289 593 l 746 593 m 1069 -276 l 1069 -124 l 625 -124 l 625 -76 l 1056 -76 l 1056 269 l 1056 1085 l 892 1085 l 892 500 l 42 500 l 42 342 l 892 342 l 892 269 l 460 269 l 460 118 l 892 118 l 892 71 l 460 71 l 460 -153 q 469 -201 460 -178 q 496 -240 479 -224 q 535 -267 513 -257 q 582 -276 557 -276 l 1069 -276 z "},"니":{"ha":1250,"x_min":181,"x_max":1028,"o":"m 1028 71 l 1028 1085 l 864 1085 l 864 71 l 1028 71 m 693 449 l 693 606 l 344 606 l 344 1058 l 181 1058 l 181 571 q 216 485 181 521 q 303 449 251 449 l 693 449 z "},"닉":{"ha":1250,"x_min":181,"x_max":1028,"o":"m 693 499 l 693 657 l 344 657 l 344 1057 l 181 1057 l 181 622 q 216 535 181 571 q 303 499 251 499 l 693 499 m 1028 -249 l 1028 283 l 1028 1085 l 864 1085 l 864 283 l 422 283 l 422 125 l 864 125 l 864 -249 l 1028 -249 z "},"닌":{"ha":1250,"x_min":181,"x_max":1042,"o":"m 1028 200 l 1028 1085 l 865 1085 l 865 200 l 1028 200 m 693 499 l 693 657 l 344 657 l 344 1057 l 181 1057 l 181 622 q 190 574 181 597 q 217 535 200 551 q 256 508 233 518 q 303 499 278 499 l 693 499 m 1042 -249 l 1042 -90 l 599 -90 l 599 229 l 435 229 l 435 -125 q 444 -173 435 -150 q 471 -212 454 -196 q 510 -239 488 -229 q 557 -249 532 -249 l 1042 -249 z "},"닐":{"ha":1250,"x_min":181,"x_max":1042,"o":"m 693 497 l 693 657 l 344 657 l 344 1057 l 181 1057 l 181 621 q 190 574 181 596 q 217 534 200 551 q 256 507 233 517 q 303 497 278 497 l 693 497 m 1042 -276 l 1042 -124 l 599 -124 l 599 -62 l 1028 -62 l 1028 297 l 1028 1085 l 865 1085 l 865 297 l 435 297 l 435 144 l 865 144 l 865 85 l 435 85 l 435 -153 q 444 -201 435 -178 q 471 -240 454 -224 q 510 -267 488 -257 q 557 -276 532 -276 l 1042 -276 z "},"닒":{"ha":1250,"x_min":181,"x_max":1028,"o":"m 693 499 l 693 657 l 344 657 l 344 1057 l 181 1057 l 181 622 q 216 535 181 571 q 303 499 251 499 l 693 499 m 1028 -139 l 1028 297 l 1028 1085 l 864 1085 l 864 297 l 636 297 l 636 -139 q 646 -187 636 -164 q 672 -226 656 -210 q 711 -253 689 -243 q 758 -262 733 -262 l 906 -262 q 992 -226 957 -262 q 1028 -139 1028 -190 m 864 -104 l 800 -104 l 800 138 l 864 138 l 864 -104 m 611 -262 l 611 -110 l 397 -110 l 397 -56 l 599 -56 l 599 297 l 233 297 l 233 144 l 435 144 l 435 92 l 233 92 l 233 -139 q 243 -187 233 -164 q 269 -226 253 -210 q 308 -253 286 -243 q 356 -262 331 -262 l 611 -262 z "},"님":{"ha":1250,"x_min":181,"x_max":1028,"o":"m 693 499 l 693 657 l 344 657 l 344 1057 l 181 1057 l 181 622 q 216 535 181 571 q 303 499 251 499 l 693 499 m 1028 -125 l 1028 283 l 1028 1085 l 864 1085 l 864 283 l 435 283 l 435 -125 q 444 -173 435 -150 q 471 -212 454 -196 q 510 -239 488 -229 q 557 -249 532 -249 l 906 -249 q 992 -212 957 -249 q 1028 -125 1028 -176 m 864 -90 l 599 -90 l 599 125 l 864 125 l 864 -90 z "},"닙":{"ha":1250,"x_min":181,"x_max":1028,"o":"m 693 499 l 693 657 l 344 657 l 344 1057 l 181 1057 l 181 622 q 216 535 181 571 q 303 499 251 499 l 693 499 m 1028 -132 l 1028 283 l 1028 1085 l 864 1085 l 864 200 l 864 161 l 599 161 l 599 283 l 435 283 l 435 -132 q 444 -180 435 -157 q 471 -219 454 -203 q 510 -246 488 -236 q 557 -256 532 -256 l 906 -256 q 992 -219 957 -256 q 1028 -132 1028 -183 m 864 -97 l 599 -97 l 599 3 l 864 3 l 864 -97 z "},"닛":{"ha":1250,"x_min":181,"x_max":1078,"o":"m 1029 199 l 1029 1085 l 865 1085 l 865 199 l 1029 199 m 693 499 l 693 657 l 344 657 l 344 1057 l 181 1057 l 181 622 q 190 574 181 597 q 217 535 200 551 q 256 508 233 518 q 303 499 278 499 l 693 499 m 1078 -167 l 706 278 l 333 -167 l 463 -268 l 706 26 l 949 -268 l 1078 -167 z "},"닝":{"ha":1250,"x_min":181,"x_max":1028,"o":"m 693 497 l 693 657 l 344 657 l 344 1057 l 181 1057 l 181 621 q 190 574 181 596 q 217 534 200 551 q 256 507 233 517 q 303 497 278 497 l 693 497 m 1028 -1 l 1028 1085 l 864 1085 l 864 247 q 746 272 811 272 q 640 251 690 272 q 550 192 589 229 q 488 106 511 156 q 465 -1 465 56 q 488 -108 465 -58 q 549 -196 511 -158 q 638 -255 588 -233 q 746 -276 689 -276 q 854 -255 803 -276 q 944 -196 906 -233 q 1005 -108 982 -158 q 1028 -1 1028 -58 m 864 -1 q 829 -87 864 -54 q 746 -121 794 -121 q 663 -87 699 -121 q 628 -1 628 -54 q 663 84 628 51 q 746 117 699 117 q 829 84 794 117 q 864 -1 864 51 z "},"닢":{"ha":1250,"x_min":181,"x_max":1035,"o":"m 693 499 l 693 657 l 344 657 l 344 1057 l 181 1057 l 181 622 q 190 574 181 597 q 217 535 200 551 q 256 508 233 518 q 303 499 278 499 l 693 499 m 639 -90 l 639 125 l 771 125 l 771 -90 l 639 -90 m 1035 -249 l 1035 -90 l 935 -90 l 935 125 l 1028 125 l 1028 283 l 1028 1085 l 864 1085 l 864 283 l 382 283 l 382 125 l 475 125 l 475 -90 l 375 -90 l 375 -249 l 1035 -249 z "},"다":{"ha":1250,"x_min":139,"x_max":1181,"o":"m 1181 664 l 1181 822 l 1006 822 l 1006 1085 l 840 1085 l 840 71 l 1006 71 l 1006 664 l 1181 664 m 668 449 l 668 606 l 304 606 l 304 900 l 654 900 l 654 1058 l 139 1058 l 139 571 q 149 524 139 546 q 175 485 158 501 q 214 458 192 468 q 261 449 236 449 l 668 449 z "},"닥":{"ha":1250,"x_min":139,"x_max":1181,"o":"m 668 499 l 668 657 l 304 657 l 304 899 l 654 899 l 654 1057 l 139 1057 l 139 622 q 149 574 139 597 q 175 535 158 551 q 214 508 192 518 q 261 499 236 499 l 668 499 m 1006 -249 l 1006 283 l 1006 701 l 1181 701 l 1181 861 l 1006 861 l 1006 1085 l 840 1085 l 840 283 l 396 283 l 396 125 l 840 125 l 840 -249 l 1006 -249 z "},"닦":{"ha":1250,"x_min":139,"x_max":1181,"o":"m 668 499 l 668 657 l 304 657 l 304 899 l 654 899 l 654 1057 l 139 1057 l 139 622 q 149 574 139 597 q 175 535 158 551 q 214 508 192 518 q 261 499 236 499 l 668 499 m 1006 -249 l 1006 283 l 1006 701 l 1181 701 l 1181 861 l 1006 861 l 1006 1085 l 840 1085 l 840 283 l 286 283 l 286 125 l 489 125 l 489 -249 l 654 -249 l 654 125 l 840 125 l 840 -249 l 1006 -249 z "},"단":{"ha":1250,"x_min":139,"x_max":1181,"o":"m 1181 701 l 1181 861 l 1006 861 l 1006 1085 l 840 1085 l 840 200 l 1006 200 l 1006 701 l 1181 701 m 668 499 l 668 657 l 304 657 l 304 899 l 654 899 l 654 1057 l 139 1057 l 139 622 q 149 574 139 597 q 175 535 158 551 q 214 508 192 518 q 261 499 236 499 l 668 499 m 1018 -249 l 1018 -90 l 574 -90 l 574 229 l 408 229 l 408 -125 q 444 -212 408 -176 q 532 -249 481 -249 l 1018 -249 z "},"닫":{"ha":1250,"x_min":139,"x_max":1181,"o":"m 668 499 l 668 657 l 304 657 l 304 899 l 654 899 l 654 1057 l 139 1057 l 139 622 q 149 574 139 597 q 175 535 158 551 q 214 508 192 518 q 261 499 236 499 l 668 499 m 1018 -249 l 1018 -90 l 574 -90 l 574 125 l 1006 125 l 1006 283 l 1006 701 l 1181 701 l 1181 861 l 1006 861 l 1006 1085 l 840 1085 l 840 283 l 408 283 l 408 -125 q 444 -212 408 -176 q 532 -249 481 -249 l 1018 -249 z "},"달":{"ha":1250,"x_min":139,"x_max":1181,"o":"m 668 497 l 668 657 l 304 657 l 304 899 l 654 899 l 654 1057 l 139 1057 l 139 621 q 149 574 139 596 q 175 534 158 551 q 214 507 192 517 q 261 497 236 497 l 668 497 m 1018 -276 l 1018 -124 l 574 -124 l 574 -62 l 1006 -62 l 1006 297 l 1006 701 l 1181 701 l 1181 861 l 1006 861 l 1006 1085 l 840 1085 l 840 297 l 408 297 l 408 144 l 840 144 l 840 85 l 408 85 l 408 -153 q 444 -240 408 -204 q 532 -276 481 -276 l 1018 -276 z "},"닭":{"ha":1250,"x_min":139,"x_max":1181,"o":"m 668 499 l 668 657 l 304 657 l 304 899 l 654 899 l 654 1057 l 139 1057 l 139 622 q 149 574 139 597 q 175 535 158 551 q 214 508 192 518 q 261 499 236 499 l 668 499 m 667 -262 l 667 -110 l 424 -110 l 424 -56 l 654 -56 l 654 138 l 840 138 l 840 -262 l 1006 -262 l 1006 297 l 1006 701 l 1181 701 l 1181 861 l 1006 861 l 1006 1085 l 840 1085 l 840 297 l 597 297 l 260 297 l 260 144 l 489 144 l 489 92 l 260 92 l 260 -139 q 269 -187 260 -164 q 296 -226 279 -210 q 335 -253 313 -243 q 382 -262 357 -262 l 667 -262 z "}}}
